SplineFontDB: 3.0
FontName: Knewave-Regular
FullName: Knewave
FamilyName: Knewave
Weight: Regular
Copyright: Copyright (c) 2011 by Tyler Finck (tylerfinck@gmail.com), with Reserved Font Name "Knewave"
Version: 1.001
ItalicAngle: 0
UnderlinePosition: -50
UnderlineWidth: 50
Ascent: 800
Descent: 200
sfntRevision: 0x00010000
LayerCount: 2
Layer: 0 1 "Back"  1
Layer: 1 1 "Fore"  0
NeedsXUIDChange: 1
XUID: [1021 288 713564382 8027261]
FSType: 0
OS2Version: 3
OS2_WeightWidthSlopeOnly: 0
OS2_UseTypoMetrics: 1
CreationTime: 1321008300
ModificationTime: 1321763465
PfmFamily: 81
TTFWeight: 400
TTFWidth: 5
LineGap: 0
VLineGap: 0
Panose: 2 0 8 6 0 0 0 2 0 4
OS2TypoAscent: 1169
OS2TypoAOffset: 0
OS2TypoDescent: -385
OS2TypoDOffset: 0
OS2TypoLinegap: 0
OS2WinAscent: 1169
OS2WinAOffset: 0
OS2WinDescent: 385
OS2WinDOffset: 0
HheadAscent: 1169
HheadAOffset: 0
HheadDescent: -385
HheadDOffset: 0
OS2SubXSize: 700
OS2SubYSize: 650
OS2SubXOff: 0
OS2SubYOff: 140
OS2SupXSize: 700
OS2SupYSize: 650
OS2SupXOff: 0
OS2SupYOff: 477
OS2StrikeYSize: 50
OS2StrikeYPos: 250
OS2Vendor: 'pyrs'
OS2CodePages: 20000011.00000000
OS2UnicodeRanges: 8000002f.0000004a.00000000.00000000
Lookup: 258 0 0 "'kern' Horizontal Kerning in Latin lookup 0"  {"'kern' Horizontal Kerning in Latin lookup 0 subtable"  } ['kern' ('latn' <'dflt' > ) ]
MarkAttachClasses: 1
DEI: 91125
TtTable: prep
PUSHW_1
 511
SCANCTRL
PUSHB_1
 4
SCANTYPE
EndTTInstrs
LangName: 1033 "" "" "" "" "" "Version 1.001" "" "" "Tyler Finck" "Tyler Finck" "" "www.sursly.com" "www.sursly.com" "This Font Software is licensed under the SIL Open Font License, Version 1.1. This license is available with a FAQ at: http://scripts.sil.org/OFL" "http://scripts.sil.org/OFL" "" "" "" "Knewave" 
GaspTable: 1 65535 15
Encoding: UnicodeBmp
UnicodeInterp: none
NameList: Adobe Glyph List
DisplaySize: -36
AntiAlias: 1
FitToEm: 1
WinInfo: 34 34 12
BeginPrivate: 0
EndPrivate
BeginChars: 65539 210

StartChar: ogonek
Encoding: 731 731 4
Width: 461
Flags: HW
LayerCount: 2
Fore
SplineSet
147 -148 m 1,0,1
 162.547169811 -169.377358491 162.547169811 -169.377358491 192 -182 c 1,2,-1
 193 -178 l 1,3,4
 215.25 -178 215.25 -178 237.125 -164 c 128,-1,5
 259 -150 259 -150 271 -141.5 c 128,-1,6
 283 -133 283 -133 300.5 -127.5 c 128,-1,7
 318 -122 318 -122 336.5 -116 c 128,-1,8
 355 -110 355 -110 375 -114 c 128,-1,9
 395 -118 395 -118 410.5 -126.5 c 128,-1,10
 426 -135 426 -135 434.5 -148 c 128,-1,11
 443 -161 443 -161 443 -179 c 128,-1,12
 443 -197 443 -197 431 -220 c 1,13,-1
 415 -235 l 1,14,15
 410 -243 410 -243 405.5 -250.5 c 128,-1,16
 401 -258 401 -258 391 -270.5 c 128,-1,17
 381 -283 381 -283 360.5 -295.5 c 128,-1,18
 340 -308 340 -308 314 -323 c 128,-1,19
 288 -338 288 -338 249.5 -346.5 c 128,-1,20
 211 -355 211 -355 172.5 -355 c 0,21,22
 97.6153846154 -355 97.6153846154 -355 33 -327 c 0,23,24
 5.91304347826 -315.391304348 5.91304347826 -315.391304348 -10.5 -276 c 0,25,26
 -35.8103837472 -215.255079007 -35.8103837472 -215.255079007 -15 -133.5 c 0,27,28
 -1.33333333333 -79.8095238095 -1.33333333333 -79.8095238095 46.5 -51.5 c 0,29,30
 89.6726342711 -25.9488491049 89.6726342711 -25.9488491049 157 -6 c 0,31,32
 201.55 7.2 201.55 7.2 224.5 45 c 0,33,34
 233 59 233 59 244 73 c 1,35,36
 304.925742574 114.272277228 304.925742574 114.272277228 354 78 c 1,37,38
 371.447368421 46.9824561404 371.447368421 46.9824561404 351 -3 c 0,39,40
 330.757475083 -52.4817275748 330.757475083 -52.4817275748 292 -79 c 0,41,42
 272.2 -92.2 272.2 -92.2 240.1 -107.6 c 128,-1,43
 208 -123 208 -123 188 -129.5 c 0,44,45
 154.666666667 -140.333333333 154.666666667 -140.333333333 147 -148 c 1,0,1
EndSplineSet
EndChar

StartChar: caron
Encoding: 711 711 5
Width: 430
Flags: HW
LayerCount: 2
Fore
SplineSet
128 594 m 1,0,-1
 125 610 l 1,1,2
 105.115384615 662.423076923 105.115384615 662.423076923 92 728 c 1,3,4
 68.6640316206 777.588932806 68.6640316206 777.588932806 66.8320158103 800.794466403 c 128,-1,5
 65 824 65 824 73.5 838 c 128,-1,6
 82 852 82 852 104 855 c 0,7,8
 150.46882793 861.336658354 150.46882793 861.336658354 166 832 c 1,9,10
 168 824 168 824 167.5 817 c 128,-1,11
 167 810 167 810 167 803 c 1,12,13
 173 782 173 782 185 763 c 128,-1,14
 197 744 197 744 208 726 c 1,15,16
 247.421052632 773.868421053 247.421052632 773.868421053 267 791 c 1,17,18
 304 814 304 814 345 811 c 1,19,20
 391.641630901 813.221030043 391.641630901 813.221030043 417.5 791.5 c 0,21,22
 446.170634921 767.416666667 446.170634921 767.416666667 425 727 c 1,23,24
 358.512635379 647.848375451 358.512635379 647.848375451 321.25631769 614.924187726 c 128,-1,25
 284 582 284 582 264.5 567.5 c 128,-1,26
 245 553 245 553 230 541 c 128,-1,27
 215 529 215 529 194.5 526 c 0,28,29
 143.71691974 518.568329718 143.71691974 518.568329718 117 550 c 1,30,31
 106.514018692 574.46728972 106.514018692 574.46728972 128 594 c 1,0,-1
EndSplineSet
EndChar

StartChar: fraction
Encoding: 8260 8260 6
Width: 567
Flags: HW
LayerCount: 2
Fore
SplineSet
383.5 674.5 m 128,-1,1
 402 712 402 712 414 731.5 c 128,-1,2
 426 751 426 751 430 755.5 c 128,-1,3
 434 760 434 760 436 765 c 1,4,5
 434 788 434 788 458.5 809.5 c 128,-1,6
 483 831 483 831 540 842 c 1,7,-1
 547 842 l 1,8,9
 601.222222222 839.535353535 601.222222222 839.535353535 621.611111111 830.267676768 c 0,10,11
 661.25 812.25 661.25 812.25 676 768 c 1,12,13
 679 749 679 749 667.5 732 c 128,-1,14
 656 715 656 715 644 701 c 1,15,16
 656.180685358 669.330218069 656.180685358 669.330218069 627 635 c 1,17,18
 585 595 585 595 552 549.5 c 128,-1,19
 519 504 519 504 474.5 442.5 c 128,-1,20
 430 381 430 381 377.5 297 c 128,-1,21
 325 213 325 213 272 128 c 0,22,23
 138.4781491 -86.1388174807 138.4781491 -86.1388174807 52 -192 c 0,24,25
 35.3191489362 -212.85106383 35.3191489362 -212.85106383 3 -199 c 0,26,27
 -29.6893203883 -184.990291262 -29.6893203883 -184.990291262 -42.5 -150.5 c 0,28,29
 -57.7598566308 -109.415770609 -57.7598566308 -109.415770609 -30 -65 c 1,30,31
 38.051091883 89.8162340338 38.051091883 89.8162340338 148.5 272 c 0,32,33
 197 352 197 352 246.5 432.5 c 128,-1,34
 296 513 296 513 330.5 575 c 128,-1,0
 365 637 365 637 383.5 674.5 c 128,-1,1
EndSplineSet
EndChar

StartChar: Zcaron
Encoding: 381 381 7
Width: 561
Flags: HW
LayerCount: 2
Fore
SplineSet
454 126 m 1,0,1
 497 127 497 127 512 106 c 128,-1,2
 527 85 527 85 521.5 58 c 128,-1,3
 516 31 516 31 493.5 4.5 c 128,-1,4
 471 -22 471 -22 438 -32 c 1,5,6
 377.139874739 -58.6263048017 377.139874739 -58.6263048017 279.5 -68.5 c 0,7,8
 193.27064803 -77.2198221093 193.27064803 -77.2198221093 108 -66 c 0,9,10
 57.0063291139 -58.7151898734 57.0063291139 -58.7151898734 36.503164557 -40.8575949367 c 0,11,12
 -3.40823327616 -6.09605488851 -3.40823327616 -6.09605488851 2 57 c 0,13,14
 3.90186915888 87.4299065421 3.90186915888 87.4299065421 14.4509345794 105.714953271 c 0,15,16
 29.6478873239 132.056338028 29.6478873239 132.056338028 64.323943662 182.028169014 c 128,-1,17
 99 232 99 232 133.5 273 c 128,-1,18
 168 314 168 314 202 352 c 0,19,20
 335.097560976 500.756097561 335.097560976 500.756097561 359 539 c 0,21,22
 364 547 364 547 374 570 c 1,23,24
 283.329918033 548.913934426 283.329918033 548.913934426 191 573 c 0,25,26
 156 581.75 156 581.75 143 617.5 c 0,27,28
 128.733333333 656.733333333 128.733333333 656.733333333 163 691 c 1,29,30
 211.873873874 743.783783784 211.873873874 743.783783784 308 770 c 0,31,32
 397.660377358 794.452830189 397.660377358 794.452830189 488 788 c 1,33,34
 504 783 504 783 513 778.5 c 128,-1,35
 522 774 522 774 533 761 c 1,36,-1
 534 742 l 1,37,38
 539 740 539 740 550.5 738 c 128,-1,39
 562 736 562 736 568 733.5 c 128,-1,40
 574 731 574 731 581 726 c 128,-1,41
 588 721 588 721 593.5 712 c 0,42,43
 606 691.545454545 606 691.545454545 605.5 645.272727273 c 128,-1,44
 605 599 605 599 583.5 544.5 c 128,-1,45
 562 490 562 490 531 438 c 128,-1,46
 500 386 500 386 464.5 339.5 c 128,-1,47
 429 293 429 293 404 261 c 128,-1,48
 379 229 379 229 364.5 209.5 c 128,-1,49
 350 190 350 190 343 176.5 c 0,50,51
 329.535031847 150.531847134 329.535031847 150.531847134 345 137 c 1,52,-1
 454 126 l 1,0,1
466 124 m 1,53,-1
 457 124 l 1,54,-1
 466 124 l 1,53,-1
389 885 m 1,55,-1
 386 901 l 1,56,57
 366.115384615 953.423076923 366.115384615 953.423076923 353 1019 c 1,58,59
 329.664031621 1068.58893281 329.664031621 1068.58893281 327.83201581 1091.7944664 c 128,-1,60
 326 1115 326 1115 334.5 1129 c 128,-1,61
 343 1143 343 1143 365 1146 c 0,62,63
 411.46882793 1152.33665835 411.46882793 1152.33665835 427 1123 c 1,64,65
 429 1115 429 1115 428.5 1108 c 128,-1,66
 428 1101 428 1101 428 1094 c 1,67,68
 434 1073 434 1073 446 1054 c 128,-1,69
 458 1035 458 1035 469 1017 c 1,70,71
 508.421052632 1064.86842105 508.421052632 1064.86842105 528 1082 c 1,72,73
 565 1105 565 1105 606 1102 c 1,74,75
 652.641630901 1104.22103004 652.641630901 1104.22103004 678.5 1082.5 c 0,76,77
 707.170634921 1058.41666667 707.170634921 1058.41666667 686 1018 c 1,78,79
 619.512635379 938.848375451 619.512635379 938.848375451 582.25631769 905.924187726 c 128,-1,80
 545 873 545 873 525.5 858.5 c 128,-1,81
 506 844 506 844 491 832 c 128,-1,82
 476 820 476 820 455.5 817 c 0,83,84
 404.71691974 809.568329718 404.71691974 809.568329718 378 841 c 1,85,86
 367.514018692 865.46728972 367.514018692 865.46728972 389 885 c 1,55,-1
EndSplineSet
EndChar

StartChar: zcaron
Encoding: 382 382 8
Width: 518
Flags: HW
LayerCount: 2
Fore
SplineSet
272 97 m 1,0,1
 302 105 302 105 337 101 c 128,-1,2
 372 97 372 97 398 81 c 128,-1,3
 424 65 424 65 433.5 37 c 128,-1,4
 443 9 443 9 421 -30 c 1,5,6
 410 -31 410 -31 376.5 -37 c 128,-1,7
 343 -43 343 -43 298.5 -50 c 128,-1,8
 254 -57 254 -57 204.5 -63 c 128,-1,9
 155 -69 155 -69 112 -70.5 c 0,10,11
 12.7844036697 -73.9610091743 12.7844036697 -73.9610091743 2 -47 c 1,12,13
 -36.7692307692 40.2307692308 -36.7692307692 40.2307692308 88.5 165.5 c 0,14,15
 121 198 121 198 149 224.5 c 128,-1,16
 177 251 177 251 194.5 270 c 128,-1,17
 212 289 212 289 207 298 c 1,18,19
 188.333333333 302 188.333333333 302 184.166666667 304.5 c 0,20,21
 176.714285714 308.971428571 176.714285714 308.971428571 149.357142857 312.485714286 c 128,-1,22
 122 316 122 316 107.5 331.5 c 128,-1,23
 93 347 93 347 95.5 367.5 c 128,-1,24
 98 388 98 388 115.5 409.5 c 128,-1,25
 133 431 133 431 163 447 c 128,-1,26
 193 463 193 463 227.5 474 c 128,-1,27
 262 485 262 485 298 492.5 c 0,28,29
 358.205128205 505.042735043 358.205128205 505.042735043 440 510 c 0,30,31
 451 510 451 510 455.5 502.5 c 128,-1,32
 460 495 460 495 464 486.5 c 128,-1,33
 468 478 468 478 474.5 471.5 c 128,-1,34
 481 465 481 465 501 467.5 c 128,-1,35
 521 470 521 470 529.5 450.5 c 128,-1,36
 538 431 538 431 534 402 c 128,-1,37
 530 373 530 373 515 342.5 c 128,-1,38
 500 312 500 312 476 294 c 1,39,40
 356 174 356 174 326 146.5 c 2,41,-1
 272 97 l 1,0,1
48 78 m 1,42,43
 49 79 49 79 48 78 c 129,-1,44
 47 77 47 77 45 76 c 1,45,46
 46 76 46 76 48 78 c 1,42,43
330 614 m 1,47,-1
 327 630 l 1,48,49
 307.115384615 682.423076923 307.115384615 682.423076923 294 748 c 1,50,51
 270.664031621 797.588932806 270.664031621 797.588932806 268.83201581 820.794466403 c 128,-1,52
 267 844 267 844 275.5 858 c 128,-1,53
 284 872 284 872 306 875 c 0,54,55
 352.46882793 881.336658354 352.46882793 881.336658354 368 852 c 1,56,57
 370 844 370 844 369.5 837 c 128,-1,58
 369 830 369 830 369 823 c 1,59,60
 375 802 375 802 387 783 c 128,-1,61
 399 764 399 764 410 746 c 1,62,63
 449.421052632 793.868421053 449.421052632 793.868421053 469 811 c 1,64,65
 506 834 506 834 547 831 c 1,66,67
 593.641630901 833.221030043 593.641630901 833.221030043 619.5 811.5 c 0,68,69
 648.170634921 787.416666667 648.170634921 787.416666667 627 747 c 1,70,71
 560.512635379 667.848375451 560.512635379 667.848375451 523.25631769 634.924187726 c 128,-1,72
 486 602 486 602 466.5 587.5 c 128,-1,73
 447 573 447 573 432 561 c 128,-1,74
 417 549 417 549 396.5 546 c 0,75,76
 345.71691974 538.568329718 345.71691974 538.568329718 319 570 c 1,77,78
 308.514018692 594.46728972 308.514018692 594.46728972 330 614 c 1,47,-1
EndSplineSet
EndChar

StartChar: hungarumlaut
Encoding: 733 733 9
Width: 458
Flags: HW
LayerCount: 2
Fore
SplineSet
388.5 622 m 128,-1,1
 383 656 383 656 382 697.5 c 128,-1,2
 381 739 381 739 397 764.5 c 128,-1,3
 413 790 413 790 436.5 801.5 c 128,-1,4
 460 813 460 813 486.5 811.5 c 128,-1,5
 513 810 513 810 534.5 795.5 c 128,-1,6
 556 781 556 781 567.5 754 c 128,-1,7
 579 727 579 727 572 688 c 1,8,9
 574.361573374 631.322239032 574.361573374 631.322239032 526 562.5 c 0,10,11
 513 544 513 544 502.5 526.5 c 128,-1,12
 492 509 492 509 474 499.5 c 128,-1,13
 456 490 456 490 438 491.5 c 128,-1,14
 420 493 420 493 407 507.5 c 128,-1,15
 394 522 394 522 394 555 c 128,-1,0
 394 588 394 588 388.5 622 c 128,-1,1
166 533 m 1,16,17
 141 586 141 586 141.5 634 c 128,-1,18
 142 682 142 682 157.5 718.5 c 128,-1,19
 173 755 173 755 199.5 777 c 128,-1,20
 226 799 226 799 254.5 800 c 128,-1,21
 283 801 283 801 308.5 777.5 c 128,-1,22
 334 754 334 754 348 701 c 1,23,-1
 337 675 l 1,24,25
 338 673 338 673 338 671.5 c 128,-1,26
 338 670 338 670 339 669 c 1,27,28
 326 643 326 643 323 616 c 128,-1,29
 320 589 320 589 309 563 c 1,30,-1
 272 507 l 1,31,32
 262 490 262 490 244.5 481 c 128,-1,33
 227 472 227 472 209.5 473.5 c 128,-1,34
 192 475 192 475 179 489 c 128,-1,35
 166 503 166 503 166 533 c 1,16,17
EndSplineSet
EndChar

StartChar: exclam
Encoding: 33 33 10
Width: 370
Flags: HW
LayerCount: 2
Fore
SplineSet
470 721 m 1,0,1
 474 709 474 709 479 704.5 c 128,-1,2
 484 700 484 700 486.5 697.5 c 0,3,4
 491.0625 692.9375 491.0625 692.9375 481 680 c 1,5,6
 472 662 472 662 456 638 c 0,7,8
 427.333333333 595 427.333333333 595 419 575 c 1,9,10
 378 493 378 493 355 424.5 c 128,-1,11
 332 356 332 356 316 301 c 128,-1,12
 300 246 300 246 285 204.5 c 0,13,14
 267.169811321 155.169811321 267.169811321 155.169811321 243 131 c 1,15,16
 231 111 231 111 200 104 c 128,-1,17
 169 97 169 97 137 101.5 c 128,-1,18
 105 106 105 106 82.5 122 c 128,-1,19
 60 138 60 138 66 164 c 1,20,21
 76.5990430622 257.624880383 76.5990430622 257.624880383 99.2995215311 321.812440191 c 128,-1,22
 122 386 122 386 138.5 428 c 128,-1,23
 155 470 155 470 167 503.5 c 128,-1,24
 179 537 179 537 189.5 561.5 c 128,-1,25
 200 586 200 586 214 613.5 c 128,-1,26
 228 641 228 641 244.5 669.5 c 128,-1,27
 261 698 261 698 278.5 722.5 c 0,28,29
 317.4 776.96 317.4 776.96 344.2 787.48 c 128,-1,30
 371 798 371 798 398.5 800 c 128,-1,31
 426 802 426 802 446.5 794 c 128,-1,32
 467 786 467 786 475 768 c 128,-1,33
 483 750 483 750 470 721 c 1,0,1
231 -33 m 1,34,35
 220 -74 220 -74 185.5 -94.5 c 128,-1,36
 151 -115 151 -115 112 -116.5 c 128,-1,37
 73 -118 73 -118 39.5 -101.5 c 128,-1,38
 6 -85 6 -85 -2.5 -50.5 c 128,-1,39
 -11 -16 -11 -16 8.5 8.5 c 128,-1,40
 28 33 28 33 55 40.5 c 128,-1,41
 82 48 82 48 118.5 51 c 128,-1,42
 155 54 155 54 185 47 c 128,-1,43
 215 40 215 40 231 21 c 128,-1,44
 247 2 247 2 231 -33 c 1,34,35
EndSplineSet
EndChar

StartChar: quotedbl
Encoding: 34 34 11
Width: 458
Flags: HW
LayerCount: 2
Fore
SplineSet
388.5 622 m 128,-1,1
 383 656 383 656 382 697.5 c 128,-1,2
 381 739 381 739 397 764.5 c 128,-1,3
 413 790 413 790 436.5 801.5 c 128,-1,4
 460 813 460 813 486.5 811.5 c 128,-1,5
 513 810 513 810 534.5 795.5 c 128,-1,6
 556 781 556 781 567.5 754 c 128,-1,7
 579 727 579 727 572 688 c 1,8,9
 574.361573374 631.322239032 574.361573374 631.322239032 526 562.5 c 0,10,11
 513 544 513 544 502.5 526.5 c 128,-1,12
 492 509 492 509 474 499.5 c 128,-1,13
 456 490 456 490 438 491.5 c 128,-1,14
 420 493 420 493 407 507.5 c 128,-1,15
 394 522 394 522 394 555 c 128,-1,0
 394 588 394 588 388.5 622 c 128,-1,1
166 533 m 1,16,17
 141 586 141 586 141.5 634 c 128,-1,18
 142 682 142 682 157.5 718.5 c 128,-1,19
 173 755 173 755 199.5 777 c 128,-1,20
 226 799 226 799 254.5 800 c 128,-1,21
 283 801 283 801 308.5 777.5 c 128,-1,22
 334 754 334 754 348 701 c 1,23,-1
 337 675 l 1,24,25
 338 673 338 673 338 671.5 c 128,-1,26
 338 670 338 670 339 669 c 1,27,28
 326 643 326 643 323 616 c 128,-1,29
 320 589 320 589 309 563 c 1,30,-1
 272 507 l 1,31,32
 262 490 262 490 244.5 481 c 128,-1,33
 227 472 227 472 209.5 473.5 c 128,-1,34
 192 475 192 475 179 489 c 128,-1,35
 166 503 166 503 166 533 c 1,16,17
EndSplineSet
EndChar

StartChar: numbersign
Encoding: 35 35 12
Width: 833
Flags: HW
LayerCount: 2
Fore
SplineSet
814 366 m 1,0,1
 772.478873239 362.225352113 772.478873239 362.225352113 738 373 c 1,2,-1
 737 372 l 1,3,-1
 752 369 l 1,4,-1
 618 378 l 1,5,6
 612 363 612 363 602 348.5 c 128,-1,7
 592 334 592 334 587 319 c 1,8,9
 624 319 624 319 642.5 315.5 c 128,-1,10
 661 312 661 312 671 312.5 c 128,-1,11
 681 313 681 313 690.5 314 c 0,12,13
 711.324503311 316.19205298 711.324503311 316.19205298 727 304 c 0,14,15
 734 298 734 298 734.5 283 c 128,-1,16
 735 268 735 268 739 262 c 1,17,18
 761 244 761 244 766 221.5 c 128,-1,19
 771 199 771 199 762 180 c 128,-1,20
 753 161 753 161 731 149 c 128,-1,21
 709 137 709 137 674 139.5 c 128,-1,22
 639 142 639 142 598 140 c 128,-1,23
 557 138 557 138 520 141 c 1,24,-1
 493 45 l 1,25,26
 470.553191489 16.4313346228 470.553191489 16.4313346228 430.5 22.5 c 0,27,28
 414 25 414 25 401.5 37 c 128,-1,29
 389 49 389 49 388 71 c 1,30,-1
 387 71 l 1,31,32
 387 73 387 73 388 75 c 1,33,34
 387 89 387 89 387 101.5 c 2,35,-1
 387 128 l 1,36,37
 380 129 380 129 373.5 129 c 2,38,-1
 360 129 l 1,39,-1
 267 126 l 2,40,41
 265 126 265 126 264.5 126.5 c 128,-1,42
 264 127 264 127 265 127 c 2,43,-1
 235 126 l 1,44,45
 224 100 224 100 209.5 72 c 128,-1,46
 195 44 195 44 189 6 c 1,47,48
 165.6 -21.6545454545 165.6 -21.6545454545 127.5 -20.5 c 0,49,50
 111 -20 111 -20 98.5 -9.5 c 128,-1,51
 86 1 86 1 84 22 c 1,52,-1
 83 22 l 1,53,54
 83 24 83 24 84 25 c 1,55,-1
 84 27 l 1,56,57
 89.0434782609 56 89.0434782609 56 97 117 c 1,58,59
 77.75 112.875 77.75 112.875 73.875 110.9375 c 0,60,61
 66 107 66 107 49 106.5 c 128,-1,62
 32 106 32 106 20 114 c 128,-1,63
 8 122 8 122 4 135 c 0,64,65
 -5.54189944134 166.011173184 -5.54189944134 166.011173184 36 200 c 0,66,67
 56.1460674157 216.483146067 56.1460674157 216.483146067 66.5730337079 219.741573034 c 128,-1,68
 77 223 77 223 87.5 225 c 128,-1,69
 98 227 98 227 116 231 c 1,70,71
 121 263 121 263 126 297.5 c 128,-1,72
 131 332 131 332 137 366 c 1,73,74
 54.6717557252 355.022900763 54.6717557252 355.022900763 12 378 c 1,75,76
 -7 395 -7 395 -2 409 c 128,-1,77
 3 423 3 423 22 440 c 1,78,79
 78.875 472.229166667 78.875 472.229166667 162 494 c 1,80,-1
 172 535 l 1,81,82
 194.16097561 639.473170732 194.16097561 639.473170732 209.580487805 677.236585366 c 128,-1,83
 225 715 225 715 253 738 c 128,-1,84
 281 761 281 761 312 770 c 128,-1,85
 343 779 343 779 373 774 c 128,-1,86
 403 769 403 769 424.5 752 c 0,87,88
 472.996240602 713.654135338 472.996240602 713.654135338 450 637 c 1,89,-1
 411 557 l 1,90,-1
 483 578 l 1,91,92
 486 588 486 588 489.5 596.5 c 128,-1,93
 493 605 493 605 496 614 c 0,94,95
 504.642857143 639.928571429 504.642857143 639.928571429 506 663 c 1,96,97
 515 705 515 705 542 731.5 c 128,-1,98
 569 758 569 758 602.5 772 c 128,-1,99
 636 786 636 786 670 788.5 c 128,-1,100
 704 791 704 791 723 786.5 c 128,-1,101
 742 782 742 782 753.5 774 c 128,-1,102
 765 766 765 766 771 754.5 c 0,103,104
 784.85 727.954166667 784.85 727.954166667 763 697 c 1,105,106
 759.373333333 664.36 759.373333333 664.36 734 609 c 1,107,-1
 759 606 l 1,108,109
 781 600 781 600 795.5 596 c 128,-1,110
 810 592 810 592 823.5 580 c 128,-1,111
 837 568 837 568 845 563.5 c 128,-1,112
 853 559 853 559 857 553 c 0,113,114
 864.793103448 541.310344828 864.793103448 541.310344828 851 512 c 1,115,116
 881.890380313 461.803131991 881.890380313 461.803131991 869.590580228 419.312913513 c 128,-1,117
 857.290780142 376.822695035 857.290780142 376.822695035 814 366 c 1,0,1
288 270 m 1,118,119
 351.333333333 286.888888889 351.333333333 286.888888889 412 297 c 1,120,121
 417 318 417 318 425 344 c 128,-1,122
 433 370 433 370 439 391 c 1,123,-1
 331 385 l 1,124,-1
 288 270 l 1,118,119
754 369 m 1,125,126
 761 369 761 369 766.5 367.5 c 128,-1,127
 772 366 772 366 774.5 365.5 c 128,-1,128
 777 365 777 365 775 365 c 0,129,130
 766 365 766 365 754 369 c 1,125,126
EndSplineSet
EndChar

StartChar: dollar
Encoding: 36 36 13
Width: 591
Flags: HW
LayerCount: 2
Fore
SplineSet
358 861 m 1,0,1
 382.839506173 900.329218107 382.839506173 900.329218107 450 916 c 0,2,3
 519.663461538 932.254807692 519.663461538 932.254807692 565 915.5 c 0,4,5
 588 907 588 907 599 889.5 c 128,-1,6
 610 872 610 872 600 845 c 1,7,8
 593 838 593 838 588.5 827.5 c 128,-1,9
 584 817 584 817 578.5 805 c 0,10,11
 563.383233533 772.017964072 563.383233533 772.017964072 547 757 c 1,12,13
 596.486338798 750.81420765 596.486338798 750.81420765 621.243169399 733.907103825 c 128,-1,14
 646 717 646 717 667 702 c 1,15,16
 686 684 686 684 685.5 675.5 c 128,-1,17
 685 667 685 667 674.5 659 c 128,-1,18
 664 651 664 651 649.5 639.5 c 128,-1,19
 635 628 635 628 627 605 c 1,20,21
 633.337662338 573.311688312 633.337662338 573.311688312 627.168831169 556.655844156 c 0,22,23
 613.810368349 520.587994543 613.810368349 520.587994543 564 512 c 0,24,25
 530.857142857 506.901098901 530.857142857 506.901098901 481.428571429 505.950549451 c 128,-1,26
 432 505 432 505 409.5 503.5 c 128,-1,27
 387 502 387 502 371 496.5 c 0,28,29
 335.430577223 484.27301092 335.430577223 484.27301092 341 449 c 0,30,31
 343 437 343 437 360.5 424 c 128,-1,32
 378 411 378 411 402 395 c 128,-1,33
 426 379 426 379 452 360 c 128,-1,34
 478 341 478 341 498 316.5 c 0,35,36
 543.92554819 260.241203468 543.92554819 260.241203468 528 193 c 0,37,38
 505.055555556 101.222222222 505.055555556 101.222222222 414 35 c 0,39,40
 381 11 381 11 337 -5 c 1,41,42
 334 -10 334 -10 330.5 -13.5 c 128,-1,43
 327 -17 327 -17 325 -22 c 1,44,-1
 317 -34 l 1,45,46
 307 -52 307 -52 298 -71 c 128,-1,47
 289 -90 289 -90 276 -109 c 1,48,49
 274 -110 274 -110 274 -109 c 1,50,51
 270 -135 270 -135 252.5 -156.5 c 128,-1,52
 235 -178 235 -178 213 -188 c 128,-1,53
 191 -198 191 -198 168 -193 c 128,-1,54
 145 -188 145 -188 130 -162 c 1,55,-1
 129 -162 l 1,56,-1
 129 -28 l 1,57,58
 43.1129032258 -16.5483870968 43.1129032258 -16.5483870968 5.5 45 c 0,59,60
 -11 72 -11 72 -14 102.5 c 128,-1,61
 -17 133 -17 133 -6 159 c 1,62,63
 11 183 11 183 39.5 189.5 c 128,-1,64
 68 196 68 196 100 196 c 128,-1,65
 132 196 132 196 164 195 c 128,-1,66
 196 194 196 194 220 202 c 1,67,68
 295 219.857142857 295 219.857142857 307 228.428571429 c 128,-1,69
 319 237 319 237 314 241 c 128,-1,70
 309 245 309 245 298 249 c 128,-1,71
 287 253 287 253 273 258 c 128,-1,72
 259 263 259 263 247 271 c 1,73,74
 137.808823529 323.573529412 137.808823529 323.573529412 103 428 c 0,75,76
 90 467 90 467 94.5 512.5 c 128,-1,77
 99 558 99 558 114.5 591.5 c 128,-1,78
 130 625 130 625 151.5 650.5 c 0,79,80
 198.741132545 706.53018046 198.741132545 706.53018046 298.5 742 c 0,81,82
 321 750 321 750 342 755 c 1,83,84
 344 787 344 787 344 800 c 128,-1,85
 344 813 344 813 344.5 819.5 c 128,-1,86
 345 826 345 826 348 833 c 128,-1,87
 351 840 351 840 358 861 c 1,0,1
EndSplineSet
EndChar

StartChar: percent
Encoding: 37 37 14
Width: 976
Flags: HW
LayerCount: 2
Fore
SplineSet
261 -33 m 1,0,-1
 246 -53 l 1,1,2
 209.520084567 -80.8964059197 209.520084567 -80.8964059197 168.5 -83 c 0,3,4
 124.1375 -85.275 124.1375 -85.275 109 -55 c 1,5,6
 71.0560747664 -45.5140186916 71.0560747664 -45.5140186916 92 11.5 c 0,7,8
 111.35971223 64.2014388489 111.35971223 64.2014388489 161 116 c 1,9,10
 177.843478261 130.252173913 177.843478261 130.252173913 186.92173913 144.626086957 c 0,11,12
 206.35483871 175.39516129 206.35483871 175.39516129 255 221 c 1,13,-1
 480 448 l 1,14,15
 544 544 544 544 585.5 597 c 128,-1,16
 627 650 627 650 644 673.5 c 128,-1,17
 661 697 661 697 681 718 c 1,18,19
 682.9 723.7 682.9 723.7 676.95 731.35 c 0,20,21
 665.166666667 746.5 665.166666667 746.5 667 752 c 0,22,23
 689.726256983 806.921787709 689.726256983 806.921787709 763.5 828 c 0,24,25
 832.203187251 847.629482072 832.203187251 847.629482072 887 825.5 c 0,26,27
 946.435061153 801.49737915 946.435061153 801.49737915 937 743 c 1,28,29
 888.657039711 625.59566787 888.657039711 625.59566787 738.5 481 c 0,30,31
 698 442 698 442 660 403 c 2,32,-1
 550 291 l 1,33,34
 539 277 539 277 527 264 c 128,-1,35
 515 251 515 251 482 211.5 c 0,36,37
 353.624821683 57.8388017118 353.624821683 57.8388017118 282 -15 c 1,38,-1
 261 -33 l 1,0,-1
452.5 141 m 128,-1,40
 457 160 457 160 463 181.5 c 0,41,42
 473.443037975 218.920886076 473.443037975 218.920886076 523 266 c 1,43,44
 520 290 520 290 540 313.5 c 128,-1,45
 560 337 560 337 599 354 c 1,46,47
 610 373 610 373 634.5 386.5 c 128,-1,48
 659 400 659 400 692.5 401.5 c 0,49,50
 767.482801492 404.857438873 767.482801492 404.857438873 852 341 c 1,51,52
 929.963483146 279.742977528 929.963483146 279.742977528 907 181 c 0,53,54
 897 138 897 138 872.5 100 c 128,-1,55
 848 62 848 62 825 43.5 c 128,-1,56
 802 25 802 25 782.5 16.5 c 128,-1,57
 763 8 763 8 742.5 2 c 0,58,59
 713.019047619 -6.62857142857 713.019047619 -6.62857142857 682.00952381 -11.8142857143 c 128,-1,60
 651 -17 651 -17 646 -17 c 128,-1,61
 641 -17 641 -17 636.5 -16.5 c 128,-1,62
 632 -16 632 -16 627.5 -15 c 128,-1,63
 623 -14 623 -14 603.5 -11 c 128,-1,64
 584 -8 584 -8 559 -0.5 c 128,-1,65
 534 7 534 7 513.5 20 c 0,66,67
 469.238187078 48.068466731 469.238187078 48.068466731 453 104 c 0,68,39
 448 122 448 122 452.5 141 c 128,-1,40
136.5 545 m 0,69,70
 166.549090909 679.505454545 166.549090909 679.505454545 324 697 c 1,71,-1
 325 698 l 1,72,73
 412.160629921 734.699212598 412.160629921 734.699212598 478 706 c 0,74,75
 539.905829596 679.736920777 539.905829596 679.736920777 533 636 c 1,76,77
 564.844748858 599.812785388 564.844748858 599.812785388 566.5 548.5 c 0,78,79
 568.014139827 501.561665357 568.014139827 501.561665357 494 440.5 c 0,80,81
 474 424 474 424 453.5 408 c 128,-1,82
 433 392 433 392 410.5 367.5 c 128,-1,83
 388 343 388 343 345.5 332 c 128,-1,84
 303 321 303 321 261.5 329 c 128,-1,85
 220 337 220 337 186.5 363.5 c 128,-1,86
 153 390 153 390 139.5 444 c 128,-1,87
 126 498 126 498 136.5 545 c 0,69,70
746 201 m 1,88,-1
 710 197 l 1,89,90
 705 193 705 193 700.5 190.5 c 128,-1,91
 696 188 696 188 691 184 c 128,-1,92
 686 180 686 180 669.5 167.5 c 128,-1,93
 653 155 653 155 640.5 140 c 0,94,95
 608.054054054 101.064864865 608.054054054 101.064864865 642 79 c 0,96,97
 675.537643208 56.0531914894 675.537643208 56.0531914894 721.5 104.5 c 0,98,99
 758.806629834 143.82320442 758.806629834 143.82320442 770 183 c 0,100,101
 772 190 772 190 774 197 c 128,-1,102
 776 204 776 204 776 211 c 1,103,-1
 746 201 l 1,88,-1
399 530 m 1,104,-1
 349 515 l 1,105,106
 325 486 325 486 285 472 c 1,107,108
 284 464 284 464 284 457 c 128,-1,109
 284 450 284 450 289 444 c 1,110,111
 358.375 444 358.375 444 389 493 c 0,112,113
 399 509 399 509 399 530 c 1,104,-1
761 165 m 2,114,-1
 772 172 l 2,115,116
 776 174 776 174 784 178.5 c 1,117,118
 779.123509805 175.244039221 779.123509805 175.244039221 773.561754903 172.62201961 c 128,-1,119
 768 170 768 170 761 165 c 2,114,-1
794 559 m 1,120,-1
 791 555 l 1,121,-1
 794 559 l 1,120,-1
EndSplineSet
EndChar

StartChar: ampersand
Encoding: 38 38 15
Width: 712
Flags: HW
LayerCount: 2
Fore
SplineSet
633 -3 m 1,0,1
 665 7 665 7 676 1.5 c 128,-1,2
 687 -4 687 -4 683 -17 c 128,-1,3
 679 -30 679 -30 663 -48 c 128,-1,4
 647 -66 647 -66 624.5 -81 c 0,5,6
 568.852459016 -118.098360656 568.852459016 -118.098360656 527 -109 c 1,7,8
 499.904761905 -104.218487395 499.904761905 -104.218487395 478.5 -74 c 0,9,10
 470 -62 470 -62 462 -50 c 128,-1,11
 454 -38 454 -38 445 -30 c 1,12,13
 363.769230769 -87.5384615385 363.769230769 -87.5384615385 271 -103 c 0,14,15
 241 -108 241 -108 197 -101.5 c 128,-1,16
 153 -95 153 -95 109.5 -75.5 c 128,-1,17
 66 -56 66 -56 42 -23 c 0,18,19
 -5.82679296346 42.7618403248 -5.82679296346 42.7618403248 27 176 c 1,20,21
 63.263229308 269.248303935 63.263229308 269.248303935 175 360.5 c 0,22,23
 221.744186047 398.674418605 221.744186047 398.674418605 239 411 c 1,24,25
 218.692528736 532.844827586 218.692528736 532.844827586 267.5 635 c 0,26,27
 309.703703704 723.333333333 309.703703704 723.333333333 382 764 c 1,28,29
 430.976976977 797.393393393 430.976976977 797.393393393 504.5 800.5 c 0,30,31
 638.421590677 806.158658761 638.421590677 806.158658761 667.5 712 c 0,32,33
 686.018181818 652.036363636 686.018181818 652.036363636 645.5 571 c 0,34,35
 614.438356164 508.876712329 614.438356164 508.876712329 543 440.5 c 0,36,37
 508 407 508 407 463 376 c 1,38,39
 464.666666667 337.666666667 464.666666667 337.666666667 478.833333333 301.833333333 c 128,-1,40
 493 266 493 266 502.5 244.5 c 128,-1,41
 512 223 512 223 520 202 c 1,42,43
 523 204 523 204 527 210.5 c 128,-1,44
 531 217 531 217 536 224 c 128,-1,45
 541 231 541 231 546 238 c 128,-1,46
 551 245 551 245 554 247.5 c 128,-1,47
 557 250 557 250 562.5 254 c 128,-1,48
 568 258 568 258 576 261.5 c 0,49,50
 596.470588235 270.455882353 596.470588235 270.455882353 610 262 c 1,51,52
 611 263 611 263 618.5 265.5 c 128,-1,53
 626 268 626 268 626 270 c 0,54,55
 628 279 628 279 641.5 283 c 128,-1,56
 655 287 655 287 670.5 286 c 0,57,58
 710 283.451612903 710 283.451612903 710 262 c 1,59,60
 712.047619048 243.571428571 712.047619048 243.571428571 691 212 c 1,61,62
 654.592920354 119.911504425 654.592920354 119.911504425 603 58 c 0,63,64
 602 56 602 56 601 55.5 c 128,-1,65
 600 55 600 55 599 54 c 1,66,67
 613 36 613 36 618.5 24.5 c 128,-1,68
 624 13 624 13 633 -3 c 1,0,1
285 218 m 1,69,70
 256 185 256 185 245 162.5 c 128,-1,71
 234 140 234 140 252 115 c 0,72,73
 266.151394422 95.5418326693 266.151394422 95.5418326693 285.075697211 93.2709163347 c 128,-1,74
 304 91 304 91 319 92 c 128,-1,75
 334 93 334 93 352 94 c 1,76,77
 347 104 347 104 340 112.5 c 128,-1,78
 333 121 333 121 324.5 134 c 0,79,80
 302.096899225 168.263565891 302.096899225 168.263565891 285 218 c 1,69,70
509 638 m 1,81,82
 503.042016807 661.831932773 503.042016807 661.831932773 473 644.5 c 0,83,84
 446.114695341 628.989247312 446.114695341 628.989247312 424 592.5 c 0,85,86
 400.575342466 553.849315068 400.575342466 553.849315068 414 527 c 1,87,88
 426 536 426 536 434 543.5 c 128,-1,89
 442 551 442 551 455 557.5 c 128,-1,90
 468 564 468 564 480 573 c 0,91,92
 506.666666667 593 506.666666667 593 510 638 c 1,93,-1
 509 638 l 1,81,82
463 537 m 1,94,-1
 425 534 l 1,95,-1
 463 537 l 1,94,-1
423 532 m 1,96,-1
 420 529 l 1,97,-1
 423 532 l 1,96,-1
EndSplineSet
EndChar

StartChar: quotesingle
Encoding: 39 39 16
Width: 250
Flags: HW
LayerCount: 2
Fore
SplineSet
178.5 584 m 128,-1,1
 173 618 173 618 172 660 c 128,-1,2
 171 702 171 702 187 727 c 128,-1,3
 203 752 203 752 226.5 763.5 c 128,-1,4
 250 775 250 775 276.5 773.5 c 128,-1,5
 303 772 303 772 324.5 757.5 c 128,-1,6
 346 743 346 743 357.5 716 c 128,-1,7
 369 689 369 689 362 650 c 1,8,9
 364.361573374 593.322239032 364.361573374 593.322239032 316 524.5 c 0,10,11
 303 506 303 506 292.5 488.5 c 128,-1,12
 282 471 282 471 264 461.5 c 128,-1,13
 246 452 246 452 228 453.5 c 128,-1,14
 210 455 210 455 197 469.5 c 128,-1,15
 184 484 184 484 184 517 c 128,-1,0
 184 550 184 550 178.5 584 c 128,-1,1
EndSplineSet
EndChar

StartChar: parenleft
Encoding: 40 40 17
Width: 342
Flags: HW
LayerCount: 2
Fore
SplineSet
-6 206 m 1,0,1
 15.8636640292 426.458612295 15.8636640292 426.458612295 93 583 c 0,2,3
 154.838926174 708.496644295 154.838926174 708.496644295 237.5 766 c 0,4,5
 272 790 272 790 300 794 c 128,-1,6
 328 798 328 798 343 785 c 1,7,8
 374.799107143 833.633928571 374.799107143 833.633928571 437.5 836 c 0,9,10
 464 837 464 837 487 828.5 c 128,-1,11
 510 820 510 820 522 806.5 c 128,-1,12
 534 793 534 793 530.5 776 c 128,-1,13
 527 759 527 759 500 742 c 1,14,15
 351.529182879 636.564202335 351.529182879 636.564202335 273.5 511 c 0,16,17
 181.494520548 362.945205479 181.494520548 362.945205479 161 158 c 0,18,19
 152.756756757 68.972972973 152.756756757 68.972972973 174.5 -18 c 0,20,21
 183 -52 183 -52 190.5 -77 c 128,-1,22
 198 -102 198 -102 198 -119 c 128,-1,23
 198 -136 198 -136 187 -145 c 128,-1,24
 176 -154 176 -154 146 -156 c 1,25,26
 64.8909090909 -156 64.8909090909 -156 23 -28 c 0,27,28
 -10.9191729323 75.6419172932 -10.9191729323 75.6419172932 -6 206 c 1,0,1
EndSplineSet
EndChar

StartChar: parenright
Encoding: 41 41 18
Width: 427
Flags: HW
LayerCount: 2
Fore
SplineSet
-83 -62 m 1,0,1
 71.9306480921 52.3535735918 71.9306480921 52.3535735918 141 278.5 c 0,2,3
 198.815827151 467.800208252 198.815827151 467.800208252 183 696 c 1,4,5
 181 743 181 743 196.5 775.5 c 128,-1,6
 212 808 212 808 236.5 825 c 128,-1,7
 261 842 261 842 290.5 843.5 c 128,-1,8
 320 845 320 845 345.5 830.5 c 128,-1,9
 371 816 371 816 388 784.5 c 128,-1,10
 405 753 405 753 405 705 c 1,11,12
 407 682 407 682 404 654.5 c 128,-1,13
 401 627 401 627 400.5 582 c 128,-1,14
 400 537 400 537 384.5 460.5 c 128,-1,15
 369 384 369 384 342.5 307.5 c 0,16,17
 285.054390564 141.666448231 285.054390564 141.666448231 208 33 c 1,18,19
 135.272727273 -71.7272727273 135.272727273 -71.7272727273 96.6363636364 -110.363636364 c 128,-1,20
 58 -149 58 -149 29.5 -162 c 128,-1,21
 1 -175 1 -175 -20 -155 c 1,22,23
 -55 -177 -55 -177 -80.5 -171.5 c 128,-1,24
 -106 -166 -106 -166 -116.5 -147 c 128,-1,25
 -127 -128 -127 -128 -120 -103.5 c 128,-1,26
 -113 -79 -113 -79 -83 -62 c 1,0,1
EndSplineSet
EndChar

StartChar: asterisk
Encoding: 42 42 19
Width: 558
Flags: HW
LayerCount: 2
Fore
SplineSet
576 691 m 1,0,1
 698.900332226 697.468438538 698.900332226 697.468438538 741 658 c 1,2,3
 773.108108108 629.459459459 773.108108108 629.459459459 725.5 596.5 c 0,4,5
 687.301369863 570.054794521 687.301369863 570.054794521 632 560 c 1,6,7
 476.533333333 521.133333333 476.533333333 521.133333333 441 502 c 1,8,9
 542.818181818 409.878787879 542.818181818 409.878787879 619 321 c 1,10,11
 631.546539379 290.529832936 631.546539379 290.529832936 605.5 286 c 0,12,13
 582.828571429 282.057142857 582.828571429 282.057142857 553 292 c 1,14,15
 542 294 542 294 533.5 300.5 c 128,-1,16
 525 307 525 307 507.5 316.5 c 0,17,18
 487.666666667 327.266666667 487.666666667 327.266666667 416 376 c 1,19,20
 406.695652174 348.086956522 406.695652174 348.086956522 405.847826087 326.043478261 c 128,-1,21
 405 304 405 304 404 291 c 1,22,23
 399 280 399 280 398.5 268.5 c 128,-1,24
 398 257 398 257 387 243.5 c 128,-1,25
 376 230 376 230 355.5 221 c 128,-1,26
 335 212 335 212 312 211.5 c 128,-1,27
 289 211 289 211 266.5 218 c 128,-1,28
 244 225 244 225 226.5 238.5 c 0,29,30
 187.167475728 268.84223301 187.167475728 268.84223301 191 311 c 1,31,32
 197 348 197 348 213 383 c 1,33,-1
 218 399 l 1,34,-1
 169 387 l 1,35,36
 128 387 128 387 104 399 c 128,-1,37
 80 411 80 411 74 423.5 c 128,-1,38
 68 436 68 436 83 452 c 1,39,40
 106 474 106 474 137 490.5 c 128,-1,41
 168 507 168 507 200 523 c 1,42,43
 194 525 194 525 184.5 528 c 128,-1,44
 175 531 175 531 163 535 c 128,-1,45
 151 539 151 539 138 543 c 128,-1,46
 125 547 125 547 114 552 c 1,47,48
 76 564 76 564 63.5 584 c 128,-1,49
 51 604 51 604 53 622 c 128,-1,50
 55 640 55 640 68 650 c 128,-1,51
 81 660 81 660 95 651 c 1,52,53
 109.813688213 697.292775665 109.813688213 697.292775665 159 704 c 0,54,55
 199.5795053 709.533568905 199.5795053 709.533568905 249 686 c 1,56,57
 272.928571429 671.642857143 272.928571429 671.642857143 280.964285714 661.821428571 c 128,-1,58
 289 652 289 652 297 645 c 1,59,60
 299 639 299 639 301.5 634.5 c 128,-1,61
 304 630 304 630 306 625 c 1,62,63
 349.362831858 722.566371681 349.362831858 722.566371681 425 828 c 0,64,65
 438 847 438 847 458.5 853 c 128,-1,66
 479 859 479 859 496.5 853.5 c 128,-1,67
 514 848 514 848 523 831 c 128,-1,68
 532 814 532 814 523 792.5 c 128,-1,69
 514 771 514 771 507.5 756.5 c 128,-1,70
 501 742 501 742 496 728.5 c 0,71,72
 482.666666667 692.5 482.666666667 692.5 477 667 c 1,73,74
 498.076923077 677.538461538 498.076923077 677.538461538 528.038461538 682.269230769 c 128,-1,75
 558 687 558 687 576 691 c 1,0,1
EndSplineSet
EndChar

StartChar: plus
Encoding: 43 43 20
Width: 497
Flags: HW
LayerCount: 2
Fore
SplineSet
156 452 m 1,0,1
 192.75 550 192.75 550 208 611 c 1,2,3
 203 626 203 626 206 644 c 1,4,5
 228 675 228 675 265 693.5 c 128,-1,6
 302 712 302 712 344 710 c 1,7,8
 383.7109375 714.671875 383.7109375 714.671875 402.85546875 705.8359375 c 0,9,10
 439.262295082 689.032786885 439.262295082 689.032786885 428 659 c 1,11,12
 430 655 430 655 439 646 c 128,-1,13
 448 637 448 637 448 632 c 1,14,15
 435.029900332 594.710963455 435.029900332 594.710963455 412.514950166 561.355481728 c 128,-1,16
 390 528 390 528 376 508 c 128,-1,17
 362 488 362 488 355.5 476 c 0,18,19
 348.071428571 462.285714286 348.071428571 462.285714286 346 454 c 1,20,21
 410.179104478 459.134328358 410.179104478 459.134328358 450 466 c 1,22,23
 473 468 473 468 497.5 462 c 128,-1,24
 522 456 522 456 535.5 445 c 128,-1,25
 549 434 549 434 545 419 c 128,-1,26
 541 404 541 404 507 388 c 1,27,28
 494 387 494 387 472 381.5 c 128,-1,29
 450 376 450 376 425.5 370 c 128,-1,30
 401 364 401 364 378.5 358 c 128,-1,31
 356 352 356 352 345.5 349.5 c 0,32,33
 321.875 343.875 321.875 343.875 307 329 c 1,34,35
 278.066006601 208.00330033 278.066006601 208.00330033 251.5 183 c 0,36,37
 239.139442231 171.366533865 239.139442231 171.366533865 221.569721116 167.183266932 c 128,-1,38
 204 163 204 163 184 153 c 128,-1,39
 164 143 164 143 137 144.5 c 128,-1,40
 110 146 110 146 91.5 160 c 128,-1,41
 73 174 73 174 66 199 c 128,-1,42
 59 224 59 224 71 258 c 1,43,44
 75 273 75 273 80.5 288 c 128,-1,45
 86 303 86 303 91 317 c 1,46,47
 72.25 326.375 72.25 326.375 70 332 c 1,48,49
 60 339 60 339 55 351 c 1,50,51
 33 362 33 362 12.5 371.5 c 128,-1,52
 -8 381 -8 381 -22 392 c 1,53,54
 -60.1578947368 430.157894737 -60.1578947368 430.157894737 -21 453 c 0,55,56
 -9 460 -9 460 8 466 c 1,57,58
 59.6153846154 462.871794872 59.6153846154 462.871794872 64.3076923077 464.435897436 c 128,-1,59
 69 466 69 466 65.5 466.5 c 2,60,-1
 63 466.5 l 1,61,62
 65.6363636364 465.181818182 65.6363636364 465.181818182 96.3181818182 460.090909091 c 0,63,64
 131.847396768 454.195691203 131.847396768 454.195691203 156 452 c 1,0,1
344 454 m 1,65,66
 345.634153216 458.902459648 345.634153216 458.902459648 345.5 460.5 c 1,67,68
 345 460 345 460 345 459 c 128,-1,69
 345 458 345 458 343 454 c 1,70,-1
 344 454 l 1,65,66
EndSplineSet
EndChar

StartChar: comma
Encoding: 44 44 21
Width: 288
Flags: HW
LayerCount: 2
Fore
SplineSet
236 64.5 m 128,-1,1
 239 61 239 61 241 57 c 1,2,-1
 259 39 l 1,3,4
 258 27 258 27 261.5 15 c 128,-1,5
 265 3 265 3 263.5 -14.5 c 128,-1,6
 262 -32 262 -32 246 -54 c 128,-1,7
 230 -76 230 -76 209 -94 c 1,8,9
 170.003351955 -143.829050279 170.003351955 -143.829050279 116.5 -162 c 0,10,11
 57.4611260054 -182.050938338 57.4611260054 -182.050938338 13 -145 c 1,12,13
 6 -131 6 -131 6 -123.5 c 128,-1,14
 6 -116 6 -116 13 -103 c 1,15,16
 18 -90 18 -90 29.5 -73 c 128,-1,17
 41 -56 41 -56 51 -41 c 1,18,-1
 46 -37 l 1,19,-1
 44 -39 l 1,20,21
 41 -40 41 -40 41 -33 c 1,22,23
 38 -31 38 -31 31 -24 c 1,24,-1
 30 -24 l 1,25,-1
 22 -17 l 1,26,-1
 20 -12 l 1,27,28
 -7.63744427935 39.5898959881 -7.63744427935 39.5898959881 28 73 c 0,29,30
 67.048951049 109.608391608 67.048951049 109.608391608 141 105.5 c 0,31,32
 158.542372881 104.525423729 158.542372881 104.525423729 196 93 c 1,33,34
 203 86 203 86 209.5 81 c 128,-1,35
 216 76 216 76 221 72 c 1,36,-1
 225 75 l 1,37,-1
 230 72 l 1,38,0
 233 68 233 68 236 64.5 c 128,-1,1
EndSplineSet
EndChar

StartChar: hyphen
Encoding: 45 45 22
Width: 588
Flags: HW
LayerCount: 2
Fore
SplineSet
320 246 m 1,0,-1
 149 249 l 1,1,2
 147 248 147 248 145 248 c 128,-1,3
 143 248 143 248 140 247 c 1,4,-1
 139 249 l 1,5,6
 107 249 107 249 83.5 258.5 c 128,-1,7
 60 268 60 268 52.5 283 c 128,-1,8
 45 298 45 298 56.5 315 c 128,-1,9
 68 332 68 332 106 346 c 1,10,-1
 124 348 l 1,11,12
 131 374 131 374 164.5 397 c 128,-1,13
 198 420 198 420 263 428 c 1,14,-1
 321 430 l 1,15,-1
 366 430 l 2,16,17
 390 430 390 430 414 429 c 1,18,19
 466.771428571 442.192857143 466.771428571 442.192857143 523 425.5 c 0,20,21
 590.948296122 405.327849589 590.948296122 405.327849589 587 354 c 0,22,23
 585 328 585 328 553 297 c 1,24,25
 536 291 536 291 520 282.5 c 128,-1,26
 504 274 504 274 476 264.5 c 0,27,28
 421.473684211 246 421.473684211 246 320 246 c 1,0,-1
EndSplineSet
EndChar

StartChar: period
Encoding: 46 46 23
Width: 235
Flags: HW
LayerCount: 2
Fore
SplineSet
176.5 -80.5 m 128,-1,1
 153 -99 153 -99 129.5 -106.5 c 128,-1,2
 106 -114 106 -114 97.75 -114 c 128,-1,3
 89.5 -114 89.5 -114 57 -109 c 1,4,-1
 56 -109 l 2,5,6
 55 -109 55 -109 53 -107 c 0,7,8
 1 -82.8571428571 1 -82.8571428571 1 -41.5 c 0,9,10
 1 -6.34375 1 -6.34375 38 29.5 c 0,11,12
 88.0597701149 77.9954022989 88.0597701149 77.9954022989 146.5 73.5 c 0,13,14
 153.464285714 72.9642857143 153.464285714 72.9642857143 179 66 c 1,15,16
 182 63 182 63 183 63 c 0,17,18
 240.313953488 18.6279069767 240.313953488 18.6279069767 212 -38 c 0,19,0
 200 -62 200 -62 176.5 -80.5 c 128,-1,1
EndSplineSet
EndChar

StartChar: slash
Encoding: 47 47 24
Width: 567
Flags: HW
LayerCount: 2
Fore
SplineSet
383.5 674.5 m 128,-1,1
 402 712 402 712 414 731.5 c 128,-1,2
 426 751 426 751 430 755.5 c 128,-1,3
 434 760 434 760 436 765 c 1,4,5
 434 788 434 788 458.5 809.5 c 128,-1,6
 483 831 483 831 540 842 c 1,7,-1
 547 842 l 1,8,9
 601.222222222 839.535353535 601.222222222 839.535353535 621.611111111 830.267676768 c 0,10,11
 661.25 812.25 661.25 812.25 676 768 c 1,12,13
 679 749 679 749 667.5 732 c 128,-1,14
 656 715 656 715 644 701 c 1,15,16
 656.180685358 669.330218069 656.180685358 669.330218069 627 635 c 1,17,18
 585 595 585 595 552 549.5 c 128,-1,19
 519 504 519 504 474.5 442.5 c 128,-1,20
 430 381 430 381 377.5 297 c 128,-1,21
 325 213 325 213 272 128 c 0,22,23
 138.4781491 -86.1388174807 138.4781491 -86.1388174807 52 -192 c 0,24,25
 35.3191489362 -212.85106383 35.3191489362 -212.85106383 3 -199 c 0,26,27
 -29.6893203883 -184.990291262 -29.6893203883 -184.990291262 -42.5 -150.5 c 0,28,29
 -57.7598566308 -109.415770609 -57.7598566308 -109.415770609 -30 -65 c 1,30,31
 38.051091883 89.8162340338 38.051091883 89.8162340338 148.5 272 c 0,32,33
 197 352 197 352 246.5 432.5 c 128,-1,34
 296 513 296 513 330.5 575 c 128,-1,0
 365 637 365 637 383.5 674.5 c 128,-1,1
EndSplineSet
EndChar

StartChar: zero
Encoding: 48 48 25
Width: 600
Flags: HW
LayerCount: 2
Fore
SplineSet
162 671 m 0,0,1
 177 700 177 700 210 728 c 128,-1,2
 243 756 243 756 284 775 c 0,3,4
 378.699599466 818.88518024 378.699599466 818.88518024 454 785 c 0,5,6
 493.875 766.875 493.875 766.875 497.4375 760.9375 c 128,-1,7
 501 755 501 755 500 748 c 128,-1,8
 499 741 499 741 500 727 c 1,9,10
 588.836470855 762.16443638 588.836470855 762.16443638 627.5 676 c 0,11,12
 661.895220588 599.347794118 661.895220588 599.347794118 645.5 466 c 0,13,14
 629.191897655 333.360767591 629.191897655 333.360767591 579 239 c 1,15,16
 542.196261682 133.846461949 542.196261682 133.846461949 462.5 41.5 c 0,17,18
 431 5 431 5 404.5 -14.5 c 128,-1,19
 378 -34 378 -34 367 -32 c 1,20,21
 346.789473684 -35.7894736842 346.789473684 -35.7894736842 331.394736842 -39.8947368421 c 0,22,23
 308.5 -46 308.5 -46 293 -46 c 1,24,25
 291 -48 291 -48 289.5 -49 c 128,-1,26
 288 -50 288 -50 287 -52 c 1,27,-1
 257 -61 l 1,28,29
 255 -77 255 -77 231 -83.5 c 128,-1,30
 207 -90 207 -90 176.5 -86 c 128,-1,31
 146 -82 146 -82 115 -68.5 c 128,-1,32
 84 -55 84 -55 69 -30 c 1,33,34
 44.5333333333 23.8266666667 44.5333333333 23.8266666667 38.2666666667 56.4133333333 c 0,35,36
 17.9283088235 162.172794118 17.9283088235 162.172794118 42 328 c 0,37,38
 59.7647360328 450.37929267 59.7647360328 450.37929267 105.5 554.5 c 0,39,40
 129 608 129 608 162 671 c 0,0,1
349 558 m 1,41,42
 274.988095238 409.976190476 274.988095238 409.976190476 250.5 240 c 0,43,44
 242 181 242 181 247 130 c 1,45,-1
 249 130 l 1,46,-1
 250 131 l 1,47,48
 356.405797101 290.608695652 356.405797101 290.608695652 409.5 478 c 0,49,50
 427.972644377 543.197568389 427.972644377 543.197568389 426.486322188 581.098784195 c 128,-1,51
 425 619 425 619 413 630 c 1,52,53
 409 626 409 626 408.5 626 c 128,-1,54
 408 626 408 626 407 627.5 c 0,55,56
 403.2 633.2 403.2 633.2 396 632 c 1,57,58
 382 613 382 613 370 593 c 2,59,-1
 349 558 l 1,41,42
EndSplineSet
EndChar

StartChar: one
Encoding: 49 49 26
Width: 400
Flags: HW
LayerCount: 2
Fore
SplineSet
45 579 m 128,-1,1
 55 597 55 597 80.5652173913 615.260869565 c 128,-1,2
 106.130434783 633.52173913 106.130434783 633.52173913 127 637 c 1,3,-1
 128 638 l 1,4,5
 133 640 133 640 137.5 643 c 128,-1,6
 142 646 142 646 147 649 c 0,7,8
 189 685 189 685 223 729 c 0,9,10
 224 730 224 730 224 731 c 128,-1,11
 224 732 224 732 226 734 c 1,12,13
 239.641509434 765.830188679 239.641509434 765.830188679 275.820754717 781.41509434 c 128,-1,14
 312 797 312 797 345 795.5 c 128,-1,15
 378 794 378 794 404.5 776 c 128,-1,16
 431 758 431 758 437 723 c 1,17,18
 433.299212598 695.244094488 433.299212598 695.244094488 410 655 c 1,19,20
 416 642 416 642 426 624.5 c 128,-1,21
 436 607 436 607 430 589 c 1,22,23
 404 536 404 536 377.5 483 c 128,-1,24
 351 430 351 430 334 390 c 128,-1,25
 317 350 317 350 303.5 317.5 c 128,-1,26
 290 285 290 285 276.5 251.5 c 0,27,28
 228.444444444 132.251028807 228.444444444 132.251028807 206.722222222 56.6255144033 c 128,-1,29
 185 -19 185 -19 162 -66 c 1,30,-1
 162 -69 l 1,31,-1
 161 -69 l 1,32,33
 152 -92 152 -92 126.5 -102.5 c 128,-1,34
 101 -113 101 -113 74 -110.5 c 128,-1,35
 47 -108 47 -108 27 -93 c 128,-1,36
 7 -78 7 -78 9.5 -50.5 c 128,-1,37
 12 -23 12 -23 17.5 2.5 c 128,-1,38
 23 28 23 28 35 96.5 c 0,39,40
 58.9748075577 233.356193142 58.9748075577 233.356193142 127 482 c 1,41,42
 98.44 486.08 98.44 486.08 71.72 504.04 c 128,-1,43
 45 522 45 522 40 541.5 c 128,-1,0
 35 561 35 561 45 579 c 128,-1,1
EndSplineSet
EndChar

StartChar: two
Encoding: 50 50 27
Width: 545
Flags: HW
LayerCount: 2
Fore
SplineSet
320 542 m 1,0,1
 308.682551883 498.616448885 308.682551883 498.616448885 236.5 478.5 c 0,2,3
 169.696709585 459.882689557 169.696709585 459.882689557 118 482.5 c 0,4,5
 94 493 94 493 83.5 514 c 128,-1,6
 73 535 73 535 86 568 c 1,7,8
 132.625254582 657.66395112 132.625254582 657.66395112 194 720.5 c 0,9,10
 215 742 215 742 236 755 c 1,11,12
 264 777 264 777 307.5 791.5 c 128,-1,13
 351 806 351 806 398 807 c 0,14,15
 506.6875 809.3125 506.6875 809.3125 569 747 c 1,16,17
 625.705345502 697.611473272 625.705345502 697.611473272 619 620.5 c 0,18,19
 610.305309735 520.511061947 610.305309735 520.511061947 473 352 c 0,20,21
 416 282 416 282 342.5 216.5 c 128,-1,22
 269 151 269 151 203 88 c 1,23,24
 175 104 175 104 181 115.5 c 128,-1,25
 187 127 187 127 213 134 c 128,-1,26
 239 141 239 141 278 143.5 c 128,-1,27
 317 146 317 146 355 144 c 0,28,29
 445.55721393 139.233830846 445.55721393 139.233830846 461 118 c 1,30,31
 474 110 474 110 477.5 88 c 128,-1,32
 481 66 481 66 475 40.5 c 0,33,34
 461 -19 461 -19 423 -49 c 1,35,36
 396.724137931 -75.275862069 396.724137931 -75.275862069 283.5 -89 c 0,37,38
 170.769559033 -102.664295875 170.769559033 -102.664295875 84.5 -91.5 c 0,39,40
 42 -86 42 -86 17 -73 c 128,-1,41
 -8 -60 -8 -60 -1 -41.5 c 128,-1,42
 6 -23 6 -23 -1 -13 c 128,-1,43
 -8 -3 -8 -3 -15.5 8 c 0,44,45
 -35.1203438395 36.776504298 -35.1203438395 36.776504298 -14 76 c 1,46,47
 16.5075376884 127.628140704 16.5075376884 127.628140704 40.7537688442 153.814070352 c 128,-1,48
 65 180 65 180 90.5 210 c 128,-1,49
 116 240 116 240 149.5 275 c 128,-1,50
 183 310 183 310 216 344.5 c 0,51,52
 289.783018868 421.636792453 289.783018868 421.636792453 342 493 c 1,53,54
 366 528 366 528 379 558 c 128,-1,55
 392 588 392 588 390 625 c 1,56,57
 378 612 378 612 368 603.5 c 128,-1,58
 358 595 358 595 349.5 586.5 c 0,59,60
 329 566 329 566 320 542 c 1,0,1
EndSplineSet
EndChar

StartChar: three
Encoding: 51 51 28
Width: 597
Flags: HW
LayerCount: 2
Fore
SplineSet
190 282 m 0,0,1
 151.095890411 293.671232877 151.095890411 293.671232877 156.5 331.5 c 0,2,3
 162.016393443 370.114754098 162.016393443 370.114754098 203 407 c 1,4,5
 220 426 220 426 249.5 452 c 128,-1,6
 279 478 279 478 308.5 506 c 0,7,8
 383.205779335 576.907180385 383.205779335 576.907180385 394 617 c 1,9,10
 349 605 349 605 318 594.5 c 128,-1,11
 287 584 287 584 265 579.5 c 128,-1,12
 243 575 243 575 227.5 578 c 128,-1,13
 212 581 212 581 201.5 592 c 128,-1,14
 191 603 191 603 186 619 c 128,-1,15
 181 635 181 635 181 652 c 0,16,17
 181 692.75 181 692.75 218 702 c 0,18,19
 228 704 228 704 233.5 711 c 128,-1,20
 239 718 239 718 244.5 726.5 c 0,21,22
 258.918918919 748.783783784 258.918918919 748.783783784 280 753 c 1,23,24
 305 762 305 762 336.5 774 c 128,-1,25
 368 786 368 786 401.5 795 c 0,26,27
 513.823529412 825.176470588 513.823529412 825.176470588 580 759 c 0,28,29
 626.631578947 712.368421053 626.631578947 712.368421053 617 630.5 c 0,30,31
 612 588 612 588 588 535 c 1,32,33
 565.677419355 499.655913978 565.677419355 499.655913978 540.838709677 477.827956989 c 128,-1,34
 516 456 516 456 495.5 441 c 128,-1,35
 475 426 475 426 450 407 c 1,36,37
 503 401 503 401 530 367.5 c 128,-1,38
 557 334 557 334 561.5 286 c 0,39,40
 570.70981755 187.761946134 570.70981755 187.761946134 503 72 c 1,41,42
 425.943661972 -56.4272300469 425.943661972 -56.4272300469 172 -79 c 1,43,44
 102 -84 102 -84 55 -64 c 128,-1,45
 8 -44 8 -44 0 -8 c 1,46,47
 -9 16 -9 16 -1.5 41.5 c 128,-1,48
 6 67 6 67 22.5 86 c 128,-1,49
 39 105 39 105 61 113.5 c 128,-1,50
 83 122 83 122 104 111 c 1,51,52
 160.905660377 104.433962264 160.905660377 104.433962264 181.452830189 106.716981132 c 0,53,54
 216.351351351 110.594594595 216.351351351 110.594594595 277 140 c 0,55,56
 297 150 297 150 319 170.5 c 128,-1,57
 341 191 341 191 353.5 212.5 c 128,-1,58
 366 234 366 234 363 250 c 128,-1,59
 360 266 360 266 336 267 c 128,-1,60
 312 268 312 268 275 268 c 128,-1,61
 238 268 238 268 190 282 c 0,0,1
EndSplineSet
EndChar

StartChar: four
Encoding: 52 52 29
Width: 588
Flags: HW
LayerCount: 2
Fore
SplineSet
554 283 m 1,0,1
 550.357894737 272.073684211 550.357894737 272.073684211 500 270.5 c 1,2,-1
 501 270 l 1,3,4
 517 270 517 270 491.5 264 c 0,5,6
 470.25 259 470.25 259 455 259 c 1,7,8
 421.170212766 133.829787234 421.170212766 133.829787234 412.085106383 102.914893617 c 128,-1,9
 403 72 403 72 397.5 50.5 c 128,-1,10
 392 29 392 29 382 9 c 2,11,-1
 372 -12 l 1,12,13
 372 -17 372 -17 373 -20 c 1,14,15
 362 -61 362 -61 337.5 -83.5 c 128,-1,16
 313 -106 313 -106 284 -110 c 128,-1,17
 255 -114 255 -114 226.5 -99 c 128,-1,18
 198 -84 198 -84 179 -50 c 1,19,-1
 186 -2 l 1,20,21
 179 4 179 4 169.5 6 c 128,-1,22
 160 8 160 8 151.5 10 c 0,23,24
 131 14.8235294118 131 14.8235294118 131 32 c 1,25,26
 142 73 142 73 150 111.5 c 128,-1,27
 158 150 158 150 180 183 c 1,28,-1
 192 216 l 1,29,-1
 127 211 l 2,30,31
 74.7257383966 206.978902954 74.7257383966 206.978902954 53.8628691983 218.489451477 c 128,-1,32
 33 230 33 230 15.5 250.5 c 128,-1,33
 -2 271 -2 271 -11.5 290 c 128,-1,34
 -21 309 -21 309 -18.5 330 c 0,35,36
 -14.0252918288 367.587548638 -14.0252918288 367.587548638 35.4873540856 431.793774319 c 128,-1,37
 85 496 85 496 121 540 c 128,-1,38
 157 584 157 584 195 623 c 0,39,40
 271.689655172 701.707803993 271.689655172 701.707803993 377 783 c 1,41,42
 411 811 411 811 466 811 c 1,43,44
 509.252427184 808.597087379 509.252427184 808.597087379 527.126213592 800.298543689 c 0,45,46
 561.728051392 784.233404711 561.728051392 784.233404711 571 749 c 1,47,-1
 571 741 l 1,48,49
 601.52742616 716.578059072 601.52742616 716.578059072 588.5 679.5 c 0,50,51
 579.693548387 654.435483871 579.693548387 654.435483871 558.846774194 622.217741935 c 128,-1,52
 538 590 538 590 534 576 c 2,53,-1
 513 496 l 2,54,55
 508 477 508 477 504.5 461.5 c 128,-1,56
 501 446 501 446 497.5 430.5 c 128,-1,57
 494 415 494 415 490 399.5 c 128,-1,58
 486 384 486 384 482 365 c 1,59,-1
 500 366 l 2,60,61
 509 366 509 366 518 366 c 1,62,63
 525 369 525 369 533 372.5 c 128,-1,64
 541 376 541 376 549 377.5 c 0,65,66
 567.666666667 381 567.666666667 381 576.833333333 369 c 128,-1,67
 586 357 586 357 587 341.5 c 128,-1,68
 588 326 588 326 584 313 c 128,-1,69
 580 300 580 300 571.5 291.5 c 128,-1,70
 563 283 563 283 554 283 c 1,0,1
285 492 m 1,71,72
 160.911032028 374.220640569 160.911032028 374.220640569 143.455516014 352.110320285 c 128,-1,73
 126 330 126 330 127.5 324.5 c 128,-1,74
 129 319 129 319 142.5 321 c 128,-1,75
 156 323 156 323 178 330 c 128,-1,76
 200 337 200 337 227 344 c 1,77,78
 230.763636364 356.545454545 230.763636364 356.545454545 248.381818182 398.272727273 c 0,79,80
 282.34 478.7 282.34 478.7 285 492 c 1,71,72
365 -34 m 1,81,82
 366 -29 366 -29 367 -25 c 1,83,84
 360.333333333 -43.3333333333 360.333333333 -43.3333333333 365 -34 c 1,81,82
EndSplineSet
EndChar

StartChar: five
Encoding: 53 53 30
Width: 603
Flags: HW
LayerCount: 2
Fore
SplineSet
335 760.5 m 128,-1,1
 369 764 369 764 406 767.5 c 128,-1,2
 443 771 443 771 479 774 c 128,-1,3
 515 777 515 777 544 776.5 c 0,4,5
 609 775.379310345 609 775.379310345 609 754 c 1,6,7
 634.299396031 675.290767903 634.299396031 675.290767903 574 634.5 c 0,8,9
 549.933454877 618.219690064 549.933454877 618.219690064 494.966727438 610.109845032 c 128,-1,10
 440 602 440 602 418 604.5 c 0,11,12
 387.2 608 387.2 608 369 608 c 1,13,14
 356.320754717 585.811320755 356.320754717 585.811320755 330.160377358 547.405660377 c 128,-1,15
 304 509 304 509 279 471 c 1,16,-1
 260 428 l 1,17,18
 278.195652174 454.282608696 278.195652174 454.282608696 354.5 462.5 c 0,19,20
 427.635994587 470.376184032 427.635994587 470.376184032 475 451 c 1,21,22
 569.493948563 408.210287443 569.493948563 408.210287443 577.5 319 c 0,23,24
 582.597955707 262.194207836 582.597955707 262.194207836 549 167 c 1,25,26
 522.653061224 95.4868804665 522.653061224 95.4868804665 462 37 c 0,27,28
 409.264573991 -13.8520179372 409.264573991 -13.8520179372 344.132286996 -41.4260089686 c 0,29,30
 214.6344155 -96.2494047361 214.6344155 -96.2494047361 60 -49 c 0,31,32
 31 -41 31 -41 12.5 -22.5 c 128,-1,33
 -6 -4 -6 -4 -14 18 c 128,-1,34
 -22 40 -22 40 -19 62.5 c 128,-1,35
 -16 85 -16 85 -0.5 101 c 0,36,37
 36.0043997486 138.681961031 36.0043997486 138.681961031 112 122 c 0,38,39
 182.641509434 106.547169811 182.641509434 106.547169811 211.820754717 116.273584906 c 128,-1,40
 241 126 241 126 261 145 c 128,-1,41
 281 164 281 164 292.5 184.5 c 128,-1,42
 304 205 304 205 309 216.5 c 128,-1,43
 314 228 314 228 316 240.5 c 0,44,45
 321.010169492 271.813559322 321.010169492 271.813559322 303 280 c 0,46,47
 292 284 292 284 266 280 c 128,-1,48
 240 276 240 276 208 271 c 128,-1,49
 176 266 176 266 143 262 c 128,-1,50
 110 258 110 258 86 262 c 0,51,52
 31.6470588235 271.058823529 31.6470588235 271.058823529 53 328 c 1,53,54
 52 331 52 331 54 327 c 128,-1,55
 56 323 56 323 56 326 c 1,56,57
 29 343 29 343 29 382 c 1,58,59
 45 428 45 428 68.5 472.5 c 128,-1,60
 92 517 92 517 108.5 547.5 c 128,-1,61
 125 578 125 578 134.5 595.5 c 128,-1,62
 144 613 144 613 153 632 c 1,63,64
 148 630 148 630 148.5 633.5 c 128,-1,65
 149 637 149 637 152.5 643 c 128,-1,66
 156 649 156 649 160.5 656.5 c 128,-1,67
 165 664 165 664 168 670 c 1,68,69
 155.464285714 712.979591837 155.464285714 712.979591837 197.5 737 c 0,70,71
 229.52173913 755.298136646 229.52173913 755.298136646 265.260869565 756.149068323 c 128,-1,0
 301 757 301 757 335 760.5 c 128,-1,1
169.5 658 m 128,-1,73
 173 664 173 664 168.5 662 c 128,-1,74
 164 660 164 660 163 654.5 c 128,-1,75
 162 649 162 649 161 644 c 1,76,72
 166 652 166 652 169.5 658 c 128,-1,73
496 754 m 1,77,78
 519 752 519 752 521 755 c 128,-1,79
 523 758 523 758 496 754 c 1,77,78
238 298 m 1,80,81
 234 299 234 299 240.5 298 c 1,82,-1
 238 298 l 1,80,81
EndSplineSet
EndChar

StartChar: six
Encoding: 54 54 31
Width: 582
Flags: HW
LayerCount: 2
Fore
SplineSet
441 788 m 1,0,1
 475.565217391 799.52173913 475.565217391 799.52173913 515.5 785 c 0,2,3
 554.506578947 770.815789474 554.506578947 770.815789474 545 748 c 0,4,5
 540 737 540 737 545 730 c 128,-1,6
 550 723 550 723 558 716.5 c 128,-1,7
 566 710 566 710 573.5 704.5 c 128,-1,8
 581 699 581 699 582.5 691.5 c 0,9,10
 585.964028777 674.179856115 585.964028777 674.179856115 541 649 c 1,11,12
 522 643 522 643 499 630.5 c 128,-1,13
 476 618 476 618 450 605 c 128,-1,14
 424 592 424 592 393.5 565.5 c 128,-1,15
 363 539 363 539 336.5 507.5 c 0,16,17
 287.308383234 449.026946108 287.308383234 449.026946108 246 371 c 1,18,19
 273 396 273 396 309.5 409.5 c 128,-1,20
 346 423 346 423 378 421.5 c 128,-1,21
 410 420 410 420 439.5 403 c 128,-1,22
 469 386 469 386 490.5 358 c 0,23,24
 539.439688716 294.26459144 539.439688716 294.26459144 527.219844358 216.13229572 c 128,-1,25
 515 138 515 138 487.5 83 c 128,-1,26
 460 28 460 28 419.5 -7 c 0,27,28
 343.128571429 -73 343.128571429 -73 215 -73 c 1,29,30
 74.810012837 -65.3183568678 74.810012837 -65.3183568678 25 26 c 0,31,32
 -22.1675126904 112.473773266 -22.1675126904 112.473773266 9 260 c 1,33,34
 55.0939916716 454.851873885 55.0939916716 454.851873885 153 581 c 0,35,36
 259.796204248 718.602801627 259.796204248 718.602801627 441 788 c 1,0,1
320 266 m 1,37,38
 251.367088608 231.683544304 251.367088608 231.683544304 223.5 153 c 0,39,40
 215 129 215 129 213 106 c 1,41,42
 217 99 217 99 221 97 c 0,43,44
 252.344314559 74.8746014878 252.344314559 74.8746014878 283 118.5 c 0,45,46
 310.668280872 157.87409201 310.668280872 157.87409201 318.834140436 195.437046005 c 128,-1,47
 327 233 327 233 327 249 c 128,-1,48
 327 265 327 265 320 266 c 1,37,38
EndSplineSet
EndChar

StartChar: seven
Encoding: 55 55 32
Width: 548
Flags: HW
LayerCount: 2
Fore
SplineSet
342 579 m 1,0,1
 289 582 289 582 237 582 c 128,-1,2
 185 582 185 582 155.5 583.5 c 0,3,4
 124.054945055 585.098901099 124.054945055 585.098901099 101.527472527 590.049450549 c 128,-1,5
 79 595 79 595 73 618.5 c 128,-1,6
 67 642 67 642 77 668.5 c 128,-1,7
 87 695 87 695 111.5 717 c 128,-1,8
 136 739 136 739 181 742 c 128,-1,9
 226 745 226 745 268 750.5 c 128,-1,10
 310 756 310 756 344.5 761.5 c 128,-1,11
 379 767 379 767 408.5 772.5 c 128,-1,12
 438 778 438 778 462 781.5 c 128,-1,13
 486 785 486 785 507.5 788.5 c 128,-1,14
 529 792 529 792 547 790 c 0,15,16
 588.4 785.4 588.4 785.4 599 743 c 1,17,-1
 593 719 l 1,18,19
 638.360824742 703.12371134 638.360824742 703.12371134 652 670 c 0,20,21
 667.605371901 632.101239669 667.605371901 632.101239669 632 589 c 1,22,23
 551.297921478 500.538106236 551.297921478 500.538106236 437 314.5 c 0,24,25
 390 238 390 238 341.5 158.5 c 128,-1,26
 293 79 293 79 262 35.5 c 0,27,28
 225.662251656 -15.4900662252 225.662251656 -15.4900662252 199 -47 c 0,29,30
 198 -47 198 -47 196 -49 c 1,31,32
 196 -51 196 -51 192.5 -55 c 128,-1,33
 189 -59 189 -59 186 -63.5 c 128,-1,34
 183 -68 183 -68 183 -66 c 1,35,36
 159 -89 159 -89 130 -92.5 c 128,-1,37
 101 -96 101 -96 66 -91 c 1,38,39
 35.0689655172 -83.8620689655 35.0689655172 -83.8620689655 19.0344827586 -64.4310344828 c 128,-1,40
 3 -45 3 -45 3.5 -29.5 c 128,-1,41
 4 -14 4 -14 12 -0.5 c 128,-1,42
 20 13 20 13 32 26.5 c 128,-1,43
 44 40 44 40 54 56.5 c 0,44,45
 112.091603053 152.351145038 112.091603053 152.351145038 144.045801527 221.175572519 c 128,-1,46
 176 290 176 290 202.5 346.5 c 0,47,48
 266.815157116 483.624768946 266.815157116 483.624768946 322 553 c 1,49,-1
 342 579 l 1,0,1
EndSplineSet
EndChar

StartChar: eight
Encoding: 56 56 33
Width: 658
Flags: HW
LayerCount: 2
Fore
SplineSet
439 809 m 1,0,1
 482.5 809 482.5 809 501.75 803.5 c 0,2,3
 544.8875 791.175 544.8875 791.175 564 746 c 1,4,5
 622.679819617 757.357384442 622.679819617 757.357384442 653.5 698 c 0,6,7
 683.748344371 639.74392936 683.748344371 639.74392936 665 571 c 1,8,9
 640.45603396 470.097028502 640.45603396 470.097028502 548 392.5 c 0,10,11
 520 369 520 369 489 348 c 1,12,13
 526.247956403 321.926430518 526.247956403 321.926430518 547.5 266 c 0,14,15
 566.294964029 216.539568345 566.294964029 216.539568345 561.647482014 160.769784173 c 128,-1,16
 557 105 557 105 529.5 59.5 c 128,-1,17
 502 14 502 14 464.5 -16.5 c 128,-1,18
 427 -47 427 -47 387 -64 c 128,-1,19
 347 -81 347 -81 309 -85 c 128,-1,20
 271 -89 271 -89 221 -91.5 c 128,-1,21
 171 -94 171 -94 127 -81.5 c 128,-1,22
 83 -69 83 -69 50.5 -35.5 c 128,-1,23
 18 -2 18 -2 7 66 c 1,24,25
 -3.96510705789 162.858445678 -3.96510705789 162.858445678 40 236.5 c 0,26,27
 72.8425998434 291.511354738 72.8425998434 291.511354738 148 340 c 1,28,-1
 212 377 l 1,29,30
 163.4375 434.8125 163.4375 434.8125 149.21875 473.40625 c 128,-1,31
 135 512 135 512 134 543 c 128,-1,32
 133 574 133 574 146.5 613 c 128,-1,33
 160 652 160 652 190 689.5 c 128,-1,34
 220 727 220 727 259.5 754 c 0,35,36
 345.767062315 812.96735905 345.767062315 812.96735905 439 809 c 1,0,1
336.5 120 m 128,-1,38
 351 127 351 127 356 152 c 128,-1,39
 361 177 361 177 349.5 199.5 c 128,-1,40
 338 222 338 222 318 250 c 1,41,-1
 294 241 l 1,42,43
 271 229.5 271 229.5 271 227.25 c 0,44,45
 271 221.076923077 271 221.076923077 252 208.038461538 c 128,-1,46
 233 195 233 195 231 179 c 128,-1,47
 229 163 229 163 239 149.5 c 128,-1,48
 249 136 249 136 267 126.5 c 128,-1,49
 285 117 285 117 303.5 115 c 128,-1,37
 322 113 322 113 336.5 120 c 128,-1,38
445 609 m 1,50,51
 440 623 440 623 428 623 c 128,-1,52
 416 623 416 623 402.5 613.5 c 128,-1,53
 389 604 389 604 376 587 c 128,-1,54
 363 570 363 570 355.5 548.5 c 0,55,56
 338.118025751 498.67167382 338.118025751 498.67167382 364 458 c 1,57,-1
 367 453 l 1,58,59
 377 463 377 463 388 471 c 128,-1,60
 399 479 399 479 411.5 490.5 c 0,61,62
 441.412451362 518.019455253 441.412451362 518.019455253 467 558 c 0,63,64
 472.578125 565.4375 472.578125 565.4375 462.7890625 582.21875 c 128,-1,65
 453 599 453 599 452 604 c 1,66,-1
 445 609 l 1,50,51
EndSplineSet
EndChar

StartChar: nine
Encoding: 57 57 34
Width: 603
Flags: HW
LayerCount: 2
Fore
SplineSet
339 -30 m 1,0,1
 312.184615385 -69.1917159763 312.184615385 -69.1917159763 254 -81.5 c 0,2,3
 196.303184713 -93.7050955414 196.303184713 -93.7050955414 162 -70.5 c 0,4,5
 122.099656357 -43.5085910653 122.099656357 -43.5085910653 146 19 c 1,6,7
 163 49 163 49 177 74.5 c 128,-1,8
 191 100 191 100 206.5 125 c 0,9,10
 241.928571429 182.142857143 241.928571429 182.142857143 283 238 c 1,11,12
 175.731836196 210.695376486 175.731836196 210.695376486 106 261.5 c 0,13,14
 34.0670183059 313.908315234 34.0670183059 313.908315234 30 410.5 c 0,15,16
 28 458 28 458 49 513.5 c 128,-1,17
 70 569 70 569 106 621 c 128,-1,18
 142 673 142 673 189 711 c 0,19,20
 292.236133122 794.467511886 292.236133122 794.467511886 405 783 c 1,21,22
 496.524216524 775.678062678 496.524216524 775.678062678 530.262108262 765.339031339 c 0,23,24
 608.392665474 741.395796064 608.392665474 741.395796064 591 684 c 0,25,26
 585 665 585 665 591.5 657 c 128,-1,27
 598 649 598 649 607.5 641.5 c 128,-1,28
 617 634 617 634 624 620.5 c 128,-1,29
 631 607 631 607 627 576 c 0,30,31
 593.151293856 323.673281473 593.151293856 323.673281473 444 101.5 c 0,32,33
 396 30 396 30 339 -30 c 1,0,1
416 588.5 m 0,34,35
 416 604.588235294 416 604.588235294 387 608 c 1,36,37
 350.784197866 607.262506892 350.784197866 607.262506892 318.5 574 c 0,38,39
 283.813487882 538.262381454 283.813487882 538.262381454 275 497.5 c 0,40,41
 265.453151618 453.345826235 265.453151618 453.345826235 293 446 c 1,42,43
 322.706013363 436.859688196 322.706013363 436.859688196 354.5 462.5 c 0,44,45
 390.353535354 491.414141414 390.353535354 491.414141414 405 550 c 0,46,47
 408 562 408 562 412 571.5 c 128,-1,48
 416 581 416 581 416 588.5 c 0,34,35
EndSplineSet
EndChar

StartChar: colon
Encoding: 58 58 35
Width: 339
Flags: HW
LayerCount: 2
Fore
SplineSet
374 462.5 m 128,-1,1
 382 441 382 441 368.222972973 414.445945946 c 128,-1,2
 354.445945946 387.891891892 354.445945946 387.891891892 327.222972973 372.945945946 c 128,-1,3
 300 358 300 358 269.5 352.5 c 128,-1,4
 239 347 239 347 208 349.5 c 128,-1,5
 177 352 177 352 154.5 363.5 c 0,6,7
 101.908980583 390.379854369 101.908980583 390.379854369 122 447 c 1,8,9
 150.899159664 504.798319328 150.899159664 504.798319328 227 515.5 c 0,10,11
 298.322033898 525.529661017 298.322033898 525.529661017 344 497.5 c 0,12,0
 366 484 366 484 374 462.5 c 128,-1,1
288 194 m 1,13,14
 280.188267394 135.412005457 280.188267394 135.412005457 220.5 100.5 c 0,15,16
 163.989110708 67.44646098 163.989110708 67.44646098 107 78 c 0,17,18
 80 83 80 83 60.5 100 c 128,-1,19
 41 117 41 117 37 148 c 2,20,-1
 40 124 l 1,21,22
 35 155 35 155 54 180 c 128,-1,23
 73 205 73 205 103 222.5 c 128,-1,24
 133 240 133 240 168.5 248.5 c 128,-1,25
 204 257 204 257 233 254.5 c 128,-1,26
 262 252 262 252 278.5 238 c 128,-1,27
 295 224 295 224 287 197 c 1,28,-1
 288 194 l 1,13,14
EndSplineSet
EndChar

StartChar: semicolon
Encoding: 59 59 36
Width: 339
Flags: HW
LayerCount: 2
Fore
SplineSet
374 472.5 m 128,-1,1
 382 451 382 451 368.222972973 424.445945946 c 128,-1,2
 354.445945946 397.891891892 354.445945946 397.891891892 327.222972973 382.945945946 c 128,-1,3
 300 368 300 368 269.5 362.5 c 128,-1,4
 239 357 239 357 208 359.5 c 128,-1,5
 177 362 177 362 154.5 373.5 c 0,6,7
 101.908980583 400.379854369 101.908980583 400.379854369 122 457 c 1,8,9
 150.899159664 514.798319328 150.899159664 514.798319328 227 525.5 c 0,10,11
 298.322033898 535.529661017 298.322033898 535.529661017 344 507.5 c 0,12,0
 366 494 366 494 374 472.5 c 128,-1,1
288 251 m 1,13,14
 291 247 291 247 294 243.5 c 128,-1,15
 297 240 297 240 299 236 c 1,16,-1
 317 218 l 1,17,18
 316 206 316 206 319.5 194 c 128,-1,19
 323 182 323 182 321.5 164.5 c 128,-1,20
 320 147 320 147 304 125 c 128,-1,21
 288 103 288 103 267 85 c 1,22,23
 228.003351955 35.1709497207 228.003351955 35.1709497207 174.5 17 c 0,24,25
 115.461126005 -3.0509383378 115.461126005 -3.0509383378 71 34 c 1,26,27
 64 48 64 48 64 55.5 c 128,-1,28
 64 63 64 63 71 76 c 1,29,30
 76 89 76 89 87.5 106 c 128,-1,31
 99 123 99 123 109 138 c 1,32,-1
 104 142 l 1,33,-1
 102 140 l 1,34,35
 99 139 99 139 99 146 c 1,36,37
 96 148 96 148 89 155 c 1,38,-1
 88 155 l 1,39,-1
 80 162 l 1,40,-1
 78 167 l 1,41,42
 50.3625557207 218.589895988 50.3625557207 218.589895988 86 252 c 0,43,44
 125.048951049 288.608391608 125.048951049 288.608391608 199 284.5 c 0,45,46
 216.542372881 283.525423729 216.542372881 283.525423729 254 272 c 1,47,48
 261 265 261 265 267.5 260 c 128,-1,49
 274 255 274 255 279 251 c 1,50,-1
 283 254 l 1,51,-1
 288 251 l 1,13,14
EndSplineSet
EndChar

StartChar: less
Encoding: 60 60 37
Width: 570
Flags: HW
LayerCount: 2
Fore
SplineSet
484 601 m 1,0,1
 497 603 497 603 506 605 c 128,-1,2
 515 607 515 607 523.5 608 c 0,3,4
 564.760820046 612.854214123 564.760820046 612.854214123 594.880410023 597.427107062 c 128,-1,5
 625 582 625 582 639.5 567.5 c 0,6,7
 673.451612903 533.548387097 673.451612903 533.548387097 651 498 c 1,8,9
 655 477 655 477 640 455.5 c 128,-1,10
 625 434 625 434 596 417 c 1,11,12
 518 378 518 378 435.5 350.5 c 128,-1,13
 353 323 353 323 271 292 c 1,14,15
 268 280 268 280 293 264 c 128,-1,16
 318 248 318 248 356 228 c 128,-1,17
 394 208 394 208 437.5 184 c 128,-1,18
 481 160 481 160 515 133 c 1,19,20
 522.681415929 104.194690265 522.681415929 104.194690265 503.5 80.5 c 0,21,22
 486.319148936 59.2765957447 486.319148936 59.2765957447 459 57 c 1,23,24
 440 63 440 63 402.5 69 c 128,-1,25
 365 75 365 75 318.5 83 c 128,-1,26
 272 91 272 91 221 104 c 128,-1,27
 170 117 170 117 123.5 137.5 c 0,28,29
 17.7663293468 184.113768783 17.7663293468 184.113768783 -14 260 c 1,30,31
 -14 266 -14 266 -10 273 c 128,-1,32
 -6 280 -6 280 -2.5 288 c 0,33,34
 6.44444444444 308.444444444 6.44444444444 308.444444444 -6 324 c 1,35,36
 -6 361.684210526 -6 361.684210526 74 408 c 0,37,38
 93 419 93 419 106 427 c 1,39,40
 154 451 154 451 199.5 475.5 c 128,-1,41
 245 500 245 500 290.5 523 c 0,42,43
 392.708860759 574.666017527 392.708860759 574.666017527 484 601 c 1,0,1
EndSplineSet
EndChar

StartChar: equal
Encoding: 61 61 38
Width: 567
Flags: HW
LayerCount: 2
Fore
SplineSet
81 145 m 1,0,1
 43 140 43 140 18.5 155 c 128,-1,2
 -6 170 -6 170 -13 191.5 c 128,-1,3
 -20 213 -20 213 -8.5 236 c 128,-1,4
 3 259 3 259 41 274 c 128,-1,5
 79 289 79 289 128.5 295.5 c 128,-1,6
 178 302 178 302 228.5 304.5 c 128,-1,7
 279 307 279 307 329.5 308 c 128,-1,8
 380 309 380 309 421.5 316 c 128,-1,9
 463 323 463 323 486 317 c 128,-1,10
 509 311 509 311 520 297.5 c 128,-1,11
 531 284 531 284 529.5 265.5 c 128,-1,12
 528 247 528 247 515 228.5 c 0,13,14
 484.621877692 185.269595177 484.621877692 185.269595177 414 170 c 1,15,16
 319.024475524 153.482517483 319.024475524 153.482517483 226.012237762 151.241258741 c 128,-1,17
 133 149 133 149 81 145 c 1,0,1
473 541 m 1,18,19
 531 535 531 535 557 512.5 c 128,-1,20
 583 490 583 490 579.5 465.5 c 128,-1,21
 576 441 576 441 543 421 c 128,-1,22
 510 401 510 401 451 401 c 1,23,24
 438.710087102 402.755701843 438.710087102 402.755701843 416 403 c 1,25,26
 423 403 423 403 454 404 c 0,27,28
 463 404 463 404 446 405 c 0,29,30
 416.857142857 406.714285714 416.857142857 406.714285714 406 404 c 2,31,-1
 394 402 l 1,32,33
 354.107266436 339.311418685 354.107266436 339.311418685 158 355 c 1,34,35
 110.806722689 364.831932773 110.806722689 364.831932773 89 391 c 0,36,37
 67.6496350365 416.620437956 67.6496350365 416.620437956 92 443 c 1,38,39
 98 467 98 467 142 481 c 1,40,41
 165 490 165 490 192 495 c 128,-1,42
 219 500 219 500 260 508.5 c 128,-1,43
 301 517 301 517 358 528 c 128,-1,44
 415 539 415 539 473 541 c 1,18,19
EndSplineSet
EndChar

StartChar: greater
Encoding: 62 62 39
Width: 745
Flags: HW
LayerCount: 2
Fore
SplineSet
485 309 m 1,0,-1
 444 335 l 2,1,2
 395 367 395 367 342.5 395.5 c 128,-1,3
 290 424 290 424 243 459 c 1,4,5
 201.20343461 502.886393659 201.20343461 502.886393659 237 545 c 1,6,7
 249.3 573.7 249.3 573.7 293 606 c 1,8,9
 305 611 305 611 317 616.5 c 128,-1,10
 329 622 329 622 349 628.5 c 128,-1,11
 369 635 369 635 393.5 636 c 128,-1,12
 418 637 418 637 439.5 631.5 c 0,13,14
 476.231325301 622.103614458 476.231325301 622.103614458 514 591 c 0,15,16
 522 585 522 585 544.5 568.5 c 128,-1,17
 567 552 567 552 596 529 c 128,-1,18
 625 506 625 506 656 480 c 128,-1,19
 687 454 687 454 711 428 c 0,20,21
 766.056338028 368.355633803 766.056338028 368.355633803 752 342 c 0,22,23
 750 337 750 337 741.5 327 c 128,-1,24
 733 317 733 317 731 313 c 1,25,26
 739 282 739 282 726 244 c 1,27,28
 715 224 715 224 704 214.5 c 128,-1,29
 693 205 693 205 673 193 c 1,30,31
 624.764705882 176.117647059 624.764705882 176.117647059 545.882352941 164.058823529 c 128,-1,32
 467 152 467 152 405.5 137 c 128,-1,33
 344 122 344 122 281.5 106.5 c 0,34,35
 121.547638774 66.8318144159 121.547638774 66.8318144159 55 64 c 1,36,37
 53 70 53 70 49.5 78 c 128,-1,38
 46 86 46 86 43 94 c 0,39,40
 35.2931034483 114.551724138 35.2931034483 114.551724138 43.6465517241 124.275862069 c 128,-1,41
 52 134 52 134 58.5 143.5 c 128,-1,42
 65 153 65 153 76 165 c 128,-1,43
 87 177 87 177 115 192 c 128,-1,44
 143 207 143 207 178 220.5 c 128,-1,45
 213 234 213 234 251.5 246 c 128,-1,46
 290 258 290 258 325.5 267.5 c 128,-1,47
 361 277 361 277 390.5 284 c 128,-1,48
 420 291 420 291 437 296 c 2,49,-1
 485 309 l 1,0,-1
EndSplineSet
EndChar

StartChar: question
Encoding: 63 63 40
Width: 570
Flags: HW
LayerCount: 2
Fore
SplineSet
627 541 m 0,0,1
 639.131661442 439.094043887 639.131661442 439.094043887 478 324 c 0,2,3
 436 294 436 294 399 269 c 128,-1,4
 362 244 362 244 335.5 223.5 c 128,-1,5
 309 203 309 203 306 188 c 1,6,7
 304 164 304 164 283 148 c 128,-1,8
 262 132 262 132 236 125.5 c 128,-1,9
 210 119 210 119 184 121 c 128,-1,10
 158 123 158 123 146 135 c 1,11,12
 117.991962492 194.517079705 117.991962492 194.517079705 178.5 279 c 0,13,14
 205 316 205 316 241 353.5 c 128,-1,15
 277 391 277 391 311.5 426.5 c 128,-1,16
 346 462 346 462 373 494.5 c 0,17,18
 403.792134831 531.564606742 403.792134831 531.564606742 411 564 c 1,19,-1
 408 564 l 1,20,21
 401 558 401 558 394.5 549.5 c 128,-1,22
 388 541 388 541 367 530 c 128,-1,23
 346 519 346 519 329.5 512 c 128,-1,24
 313 505 313 505 298.5 498.5 c 128,-1,25
 284 492 284 492 280.5 490 c 128,-1,26
 277 488 277 488 273.5 486 c 128,-1,27
 270 484 270 484 264.5 482 c 2,28,-1
 248 476 l 1,29,30
 160.92408377 454.981675393 160.92408377 454.981675393 124.5 499.5 c 0,31,32
 111 516 111 516 100 544 c 1,33,34
 89.1875 583.645833333 89.1875 583.645833333 121.5 637.5 c 0,35,36
 150.283018868 685.471698113 150.283018868 685.471698113 192.141509434 709.735849057 c 128,-1,37
 234 734 234 734 297.5 750.5 c 128,-1,38
 361 767 361 767 423 767 c 128,-1,39
 485 767 485 767 537 748 c 128,-1,40
 589 729 589 729 615 687 c 1,41,42
 625.202764977 668.294930876 625.202764977 668.294930876 621.101382488 646.147465438 c 128,-1,43
 617 624 617 624 613.5 611.5 c 128,-1,44
 610 599 610 599 610.5 589 c 128,-1,45
 611 579 611 579 618 566.5 c 128,-1,46
 625 554 625 554 627 541 c 0,0,1
245 -16 m 1,47,48
 224 -58 224 -58 190 -77.5 c 128,-1,49
 156 -97 156 -97 124.5 -97.5 c 128,-1,50
 93 -98 93 -98 72 -80 c 128,-1,51
 51 -62 51 -62 55 -27 c 1,52,53
 57.4745011086 22.4900221729 57.4745011086 22.4900221729 103.5 40.5 c 0,54,55
 163.61498708 64.023255814 163.61498708 64.023255814 217 40 c 0,56,57
 266.344262295 17.7950819672 266.344262295 17.7950819672 245 -16 c 1,47,48
EndSplineSet
EndChar

StartChar: at
Encoding: 64 64 41
Width: 815
Flags: HW
LayerCount: 2
Fore
SplineSet
408 157 m 1,0,1
 374.25 130 374.25 130 335.125 130 c 128,-1,2
 296 130 296 130 265.5 150.5 c 128,-1,3
 235 171 235 171 224 207 c 0,4,5
 199.690451745 286.558521561 199.690451745 286.558521561 272 396 c 0,6,7
 307.741935484 449.612903226 307.741935484 449.612903226 371.5 495 c 0,8,9
 473.207689544 567.402084082 473.207689544 567.402084082 543 548.5 c 0,10,11
 567 542 567 542 582 521 c 1,12,13
 591 518 591 518 589 512 c 2,14,-1
 584.5 498.5 l 2,15,16
 582 491 582 491 582.5 483.5 c 128,-1,17
 583 476 583 476 596 471 c 1,18,19
 618.387323944 442.507042254 618.387323944 442.507042254 619.5 398 c 128,-1,20
 620.608272506 353.669099757 620.608272506 353.669099757 600 331 c 1,21,22
 569.476744186 286.23255814 569.476744186 286.23255814 570.738372093 273.61627907 c 128,-1,23
 572 261 572 261 582 253.5 c 128,-1,24
 592 246 592 246 612 237 c 1,25,26
 637.428571429 249.714285714 637.428571429 249.714285714 649 260 c 0,27,28
 697.300173511 306.511278195 697.300173511 306.511278195 698.5 384.5 c 0,29,30
 699.417910448 444.164179104 699.417910448 444.164179104 675 493 c 1,31,32
 645.484076433 556.248407643 645.484076433 556.248407643 592 582 c 0,33,34
 518.132075472 617.566037736 518.132075472 617.566037736 390 553.5 c 0,35,36
 335.347826087 526.173913043 335.347826087 526.173913043 283.5 466.5 c 0,37,38
 215.463823305 388.194211729 215.463823305 388.194211729 197.731911653 352.097105864 c 128,-1,39
 180 316 180 316 170.5 282 c 128,-1,40
 161 248 161 248 159.5 212 c 128,-1,41
 158 176 158 176 170.5 145 c 0,42,43
 198.720663265 75.012755102 198.720663265 75.012755102 296 64 c 0,44,45
 332 60 332 60 343.5 51 c 128,-1,46
 355 42 355 42 357 31 c 128,-1,47
 359 20 359 20 359 7.5 c 128,-1,48
 359 -5 359 -5 371 -15 c 0,49,50
 393 -34 393 -34 381 -52 c 128,-1,51
 369 -70 369 -70 336.5 -81.5 c 128,-1,52
 304 -93 304 -93 257 -95 c 128,-1,53
 210 -97 210 -97 163 -86 c 0,54,55
 52.1689189189 -60.0608108108 52.1689189189 -60.0608108108 14 29 c 0,56,57
 -15.6268325189 96.1541537095 -15.6268325189 96.1541537095 4.5 209.5 c 0,58,59
 23.8 318.189473684 23.8 318.189473684 82.5 432.5 c 0,60,61
 143.641625616 551.565270936 143.641625616 551.565270936 228 632 c 0,62,63
 354.284401328 754.338013786 354.284401328 754.338013786 513.5 776 c 0,64,65
 668.579088472 797.09919571 668.579088472 797.09919571 776 714 c 1,66,67
 810 690 810 690 831 633.5 c 128,-1,68
 852 577 852 577 850 500.5 c 128,-1,69
 848 424 848 424 817 332 c 128,-1,70
 786 240 786 240 715 145 c 0,71,72
 670.723514212 85.322997416 670.723514212 85.322997416 595.5 59.5 c 0,73,74
 524.233291299 35.0353089533 524.233291299 35.0353089533 470.5 54 c 0,75,76
 413.108527132 74.2558139535 413.108527132 74.2558139535 415 131 c 1,77,78
 410 143 410 143 408 157 c 1,0,1
315 222 m 1,79,80
 344.006993007 235.65034965 344.006993007 235.65034965 367.503496503 260.825174825 c 128,-1,81
 391 286 391 286 404 301.5 c 128,-1,82
 417 317 417 317 431 332 c 1,83,84
 426 338 426 338 416 340 c 1,85,86
 376.874471086 341.956276446 376.874471086 341.956276446 344.5 304 c 0,87,88
 312.953869048 267.014880952 312.953869048 267.014880952 315 222 c 1,79,80
EndSplineSet
EndChar

StartChar: A
Encoding: 65 65 42
Width: 564
Flags: HW
LayerCount: 2
Fore
SplineSet
553 678 m 1,0,1
 586.795918367 659.975510204 586.795918367 659.975510204 596 625 c 1,2,3
 576 513 576 513 560 402.5 c 128,-1,4
 544 292 544 292 529 217.5 c 128,-1,5
 514 143 514 143 508.5 106 c 128,-1,6
 503 69 503 69 496 32 c 1,7,-1
 490 11 l 1,8,9
 488 0 488 0 486 -9.5 c 128,-1,10
 484 -19 484 -19 482 -30 c 1,11,12
 454 -62 454 -62 405.5 -62 c 0,13,14
 355 -62 355 -62 325 -36 c 1,15,16
 306.775 -21.825 306.775 -21.825 319 23 c 0,17,18
 323.921348315 41.0449438202 323.921348315 41.0449438202 325.460674157 69.5224719101 c 128,-1,19
 327 98 327 98 329 117 c 1,20,-1
 329 119 l 1,21,22
 299.227848101 108.367088608 299.227848101 108.367088608 275.113924051 90.6835443038 c 128,-1,23
 251 73 251 73 245 68.5 c 128,-1,24
 239 64 239 64 229 61.5 c 128,-1,25
 219 59 219 59 211 58.5 c 0,26,27
 191.610169492 57.2881355932 191.610169492 57.2881355932 185 52 c 1,28,29
 127.434782609 -51.6173913043 127.434782609 -51.6173913043 81 -64 c 1,30,31
 52 -73 52 -73 23 -68.5 c 128,-1,32
 -6 -64 -6 -64 -23 -34 c 1,33,34
 -55.4854368932 -3.83495145631 -55.4854368932 -3.83495145631 -7 129.5 c 0,35,36
 18.8490566038 200.58490566 18.8490566038 200.58490566 67.4245283019 300.29245283 c 128,-1,37
 116 400 116 400 161 474 c 0,38,39
 257.961577351 633.447927199 257.961577351 633.447927199 374 742 c 1,40,41
 393 750 393 750 415 760.5 c 128,-1,42
 437 771 437 771 458.5 772 c 128,-1,43
 480 773 480 773 503 767 c 128,-1,44
 526 761 526 761 542 749 c 0,45,46
 579.223880597 721.082089552 579.223880597 721.082089552 553 678 c 1,0,1
339 415 m 1,47,48
 317.712328767 354.684931507 317.712328767 354.684931507 296.856164384 304.342465753 c 128,-1,49
 276 254 276 254 261 216 c 1,50,-1
 340 219 l 1,51,52
 348 283 348 283 358 346 c 128,-1,53
 368 409 368 409 377 472 c 1,54,-1
 339 415 l 1,47,48
312 215 m 256,55,56
 326 215 326 215 340 217 c 1,57,-1
 340 218 l 1,58,59
 327 217 327 217 316 216 c 128,-1,60
 305 215 305 215 312 215 c 256,55,56
EndSplineSet
EndChar

StartChar: B
Encoding: 66 66 43
Width: 585
Flags: HW
LayerCount: 2
Fore
SplineSet
528 754 m 1,0,-1
 532 753 l 1,1,2
 557 738 557 738 575.5 719.5 c 128,-1,3
 594 701 594 701 609.5 680.5 c 128,-1,4
 625 660 625 660 634.5 636.5 c 0,5,6
 672.079194631 543.540939597 672.079194631 543.540939597 568 430 c 0,7,8
 523.676470588 381.647058824 523.676470588 381.647058824 469 348 c 1,9,10
 483 338 483 338 495.5 333.5 c 128,-1,11
 508 329 508 329 531 316.5 c 128,-1,12
 554 304 554 304 561 269.5 c 128,-1,13
 568 235 568 235 557.5 192 c 128,-1,14
 547 149 547 149 519.5 103.5 c 128,-1,15
 492 58 492 58 448.5 22 c 0,16,17
 348.366649404 -60.8689798032 348.366649404 -60.8689798032 216 -48 c 1,18,19
 197 -48 197 -48 192 -45 c 128,-1,20
 187 -42 187 -42 184 -40 c 128,-1,21
 181 -38 181 -38 171 -37 c 1,22,23
 146 -57 146 -57 114 -62 c 128,-1,24
 82 -67 82 -67 53.5 -57 c 128,-1,25
 25 -47 25 -47 5.5 -23 c 128,-1,26
 -14 1 -14 1 -14 40 c 1,27,28
 -11 66 -11 66 -4 81 c 1,29,30
 -7 90 -7 90 -7 103 c 1,31,32
 26.6893617021 284.404255319 26.6893617021 284.404255319 57.3446808511 380.20212766 c 0,33,34
 118.357142857 570.866071429 118.357142857 570.866071429 189 668 c 0,35,36
 247.271719039 749.580406654 247.271719039 749.580406654 350.5 774 c 0,37,38
 449.452133381 797.408031553 449.452133381 797.408031553 528 754 c 1,0,-1
217 56 m 1,39,40
 229 59 229 59 237.5 57.5 c 128,-1,41
 246 56 246 56 258 57.5 c 0,42,43
 286.615384615 61.0769230769 286.615384615 61.0769230769 336 94 c 1,44,45
 366.666666667 124.666666667 366.666666667 124.666666667 368.833333333 154.833333333 c 128,-1,46
 371 185 371 185 360 193.5 c 128,-1,47
 349 202 349 202 330.5 202 c 128,-1,48
 312 202 312 202 289.5 196.5 c 128,-1,49
 267 191 267 191 246 190 c 1,50,-1
 246 188 l 1,51,52
 241 168 241 168 236 153 c 128,-1,53
 231 138 231 138 227 123.5 c 0,54,55
 217.962962963 90.7407407407 217.962962963 90.7407407407 213 56 c 1,56,-1
 217 56 l 1,39,40
403 575.5 m 0,57,58
 373.022364217 579.587859425 373.022364217 579.587859425 338 529 c 0,59,60
 315.808219178 496.945205479 315.808219178 496.945205479 304 432 c 1,61,62
 325 441 325 441 345.5 447.5 c 128,-1,63
 366 454 366 454 384.5 462 c 0,64,65
 427.723112128 480.691075515 427.723112128 480.691075515 447 508 c 1,66,67
 469 534.4 469 534.4 461 552 c 1,68,69
 448.909090909 567.545454545 448.909090909 567.545454545 422 581 c 1,70,71
 414 574 414 574 403 575.5 c 0,57,58
388 580 m 1,72,-1
 391 580 l 1,73,-1
 388 580 l 1,72,-1
EndSplineSet
EndChar

StartChar: C
Encoding: 67 67 44
Width: 573
Flags: HW
LayerCount: 2
Fore
SplineSet
449 498 m 1,0,1
 449 528 449 528 428.5 528 c 0,2,3
 420 528 420 528 409 524 c 128,-1,4
 398 520 398 520 388 517 c 1,5,6
 350.575418994 496.586592179 350.575418994 496.586592179 330.287709497 473.293296089 c 128,-1,7
 310 450 310 450 289 421 c 128,-1,8
 268 392 268 392 253 359 c 128,-1,9
 238 326 238 326 230 297 c 0,10,11
 200.590078329 190.389033943 200.590078329 190.389033943 252 153 c 0,12,13
 272.625 138 272.625 138 296.3125 138.5 c 128,-1,14
 320 139 320 139 334.5 148 c 128,-1,15
 349 157 349 157 363 165 c 128,-1,16
 377 173 377 173 395.5 176.5 c 128,-1,17
 414 180 414 180 441.5 171.5 c 128,-1,18
 469 163 469 163 471 149 c 128,-1,19
 473 135 473 135 471 120 c 128,-1,20
 469 105 469 105 470.5 93 c 128,-1,21
 472 81 472 81 492 78 c 1,22,23
 511.486631016 53.6417112299 511.486631016 53.6417112299 468.5 20 c 0,24,25
 457 11 457 11 447 3 c 1,26,27
 360.760288066 -52.1934156379 360.760288066 -52.1934156379 263.5 -58 c 0,28,29
 202.787114846 -61.6246498599 202.787114846 -61.6246498599 133.5 -35.5 c 0,30,31
 31.3311081442 3.02269692924 31.3311081442 3.02269692924 18 139 c 1,32,33
 1.13890261987 264.521502719 1.13890261987 264.521502719 50 400 c 0,34,35
 91.0792659118 513.901600937 91.0792659118 513.901600937 173.5 611 c 0,36,37
 248.926249393 699.858321203 248.926249393 699.858321203 322 727 c 1,38,39
 408.576086957 772.349378882 408.576086957 772.349378882 510 762 c 1,40,41
 616.625662778 748.178154825 616.625662778 748.178154825 650 671 c 0,42,43
 683.144219309 594.353992849 683.144219309 594.353992849 639 486 c 0,44,45
 623.965517241 448.413793103 623.965517241 448.413793103 582.5 426 c 0,46,47
 545.5 406 545.5 406 503.75 406 c 128,-1,48
 462 406 462 406 450 432.5 c 128,-1,49
 438 459 438 459 449 498 c 1,0,1
EndSplineSet
EndChar

StartChar: D
Encoding: 68 68 45
Width: 594
Flags: HW
LayerCount: 2
Fore
SplineSet
622.5 406.5 m 0,0,1
 618 363 618 363 606.5 318 c 128,-1,2
 595 273 595 273 573.5 230 c 128,-1,3
 552 187 552 187 522.5 147 c 128,-1,4
 493 107 493 107 457 73 c 128,-1,5
 421 39 421 39 380.5 15.5 c 0,6,7
 291.924889543 -35.8954344624 291.924889543 -35.8954344624 210 -21 c 1,8,9
 192 -60 192 -60 156.5 -70.5 c 128,-1,10
 121 -81 121 -81 86.5 -70.5 c 128,-1,11
 52 -60 52 -60 26 -31 c 128,-1,12
 0 -2 0 -2 0 48.5 c 128,-1,13
 0 99 0 99 7 152 c 128,-1,14
 14 205 14 205 25.5 253.5 c 0,15,16
 44.8607594937 335.151898734 44.8607594937 335.151898734 73.4303797468 405.575949367 c 0,17,18
 138.954998416 567.093989227 138.954998416 567.093989227 148.5 632 c 0,19,20
 161.340909091 719.318181818 161.340909091 719.318181818 196.5 740 c 0,21,22
 254.1957914 773.938700823 254.1957914 773.938700823 306.0978957 768.969350412 c 128,-1,23
 358 764 358 764 400.5 743.5 c 0,24,25
 468.740890688 710.583805668 468.740890688 710.583805668 549 633 c 0,26,27
 637.094017094 547.575498575 637.094017094 547.575498575 622.5 406.5 c 0,0,1
229 106 m 1,28,29
 280.454545455 131.727272727 280.454545455 131.727272727 311.727272727 159.363636364 c 128,-1,30
 343 187 343 187 371 210 c 1,31,32
 414.421052632 253.421052632 414.421052632 253.421052632 434.210526316 312.210526316 c 0,33,34
 478.009748964 442.326834024 478.009748964 442.326834024 378 509 c 0,35,36
 363 519.909090909 363 519.909090909 333 539 c 1,37,38
 319 507 319 507 312.5 472 c 128,-1,39
 306 437 306 437 295 404 c 2,40,-1
 268 316 l 1,41,-1
 246 221 l 1,42,43
 244 201 244 201 240 182.5 c 128,-1,44
 236 164 236 164 233 144 c 2,45,-1
 229 106 l 1,28,29
EndSplineSet
EndChar

StartChar: E
Encoding: 69 69 46
Width: 524
Flags: HW
LayerCount: 2
Fore
SplineSet
226 126 m 0,0,1
 284 120 284 120 312.5 120 c 128,-1,2
 341 120 341 120 399 128 c 1,3,4
 417 122 417 122 420 113 c 128,-1,5
 423 104 423 104 422 94.5 c 128,-1,6
 421 85 421 85 423 76 c 128,-1,7
 425 67 425 67 442 61 c 0,8,9
 451 58 451 58 447.5 43.5 c 128,-1,10
 444 29 444 29 431 12 c 0,11,12
 398.030927835 -31.1134020619 398.030927835 -31.1134020619 353 -48 c 1,13,14
 281.388746803 -66.4143222506 281.388746803 -66.4143222506 240.194373402 -69.2071611253 c 0,15,16
 172.392156863 -73.8039215686 172.392156863 -73.8039215686 92 -64 c 1,17,18
 4.14864864865 -48.027027027 4.14864864865 -48.027027027 7 9 c 1,19,20
 7 219.4 7 219.4 99 431 c 0,21,22
 129 500 129 500 167 576 c 0,23,24
 175 592 175 592 176.5 612 c 128,-1,25
 178 632 178 632 179 651 c 128,-1,26
 180 670 180 670 185 685 c 128,-1,27
 190 700 190 700 206 706 c 0,28,29
 413.561926606 788.553038991 413.561926606 788.553038991 535 770 c 1,30,31
 577 769 577 769 590.5 741.5 c 128,-1,32
 604 714 604 714 593.5 680 c 128,-1,33
 583 646 583 646 552.5 616 c 128,-1,34
 522 586 522 586 476 579 c 1,35,36
 417 562.48 417 562.48 404 556.24 c 0,37,38
 379.054187192 544.266009852 379.054187192 544.266009852 368 524 c 1,39,40
 354 502 354 502 342 482 c 128,-1,41
 330 462 330 462 325 439 c 2,42,-1
 321 417 l 1,43,44
 340 408 340 408 367.5 411.5 c 128,-1,45
 395 415 395 415 418.5 418.5 c 128,-1,46
 442 422 442 422 456.5 419 c 128,-1,47
 471 416 471 416 462.5 389.5 c 128,-1,48
 454 363 454 363 431.5 330 c 128,-1,49
 409 297 409 297 368 282 c 1,50,51
 342 277 342 277 332.5 274.5 c 128,-1,52
 323 272 323 272 318 271 c 0,53,54
 310.8125 269.5625 310.8125 269.5625 278 268 c 1,55,56
 231.067114094 187.543624161 231.067114094 187.543624161 221 143.5 c 0,57,58
 217 126 217 126 226 126 c 0,0,1
EndSplineSet
EndChar

StartChar: F
Encoding: 70 70 47
Width: 424
Flags: HW
LayerCount: 2
Fore
SplineSet
148 9 m 1,0,1
 134.874132805 -37.8780971259 134.874132805 -37.8780971259 82 -53.5 c 0,2,3
 33.6837481698 -67.7752562225 33.6837481698 -67.7752562225 -4 -44.5 c 0,4,5
 -44.6372007366 -19.4005524862 -44.6372007366 -19.4005524862 -30 30 c 1,6,7
 -17.2988505747 85.8850574713 -17.2988505747 85.8850574713 19.8505747126 208.942528736 c 128,-1,8
 57 332 57 332 71.5 382 c 0,9,10
 107.339622642 505.58490566 107.339622642 505.58490566 116 546 c 1,11,12
 147.423423423 646.162162162 147.423423423 646.162162162 160.711711712 670.081081081 c 128,-1,13
 174 694 174 694 184 703.5 c 128,-1,14
 194 713 194 713 216.5 726 c 128,-1,15
 239 739 239 739 265 746 c 128,-1,16
 291 753 291 753 317 755.5 c 128,-1,17
 343 758 343 758 370 759.5 c 128,-1,18
 397 761 397 761 430 769 c 1,19,20
 443 769 443 769 453.5 771 c 128,-1,21
 464 773 464 773 474 774 c 0,22,23
 497.396226415 776.339622642 497.396226415 776.339622642 519.698113208 769.169811321 c 128,-1,24
 542 762 542 762 553.5 744 c 128,-1,25
 565 726 565 726 565 703 c 128,-1,26
 565 680 565 680 555.5 654 c 128,-1,27
 546 628 546 628 529 604 c 0,28,29
 492.230927835 552.090721649 492.230927835 552.090721649 436 530 c 1,30,31
 397 518 397 518 380 518 c 128,-1,32
 363 518 363 518 356.5 522 c 128,-1,33
 350 526 350 526 349 528 c 128,-1,34
 348 530 348 530 342 521 c 0,35,36
 333 508 333 508 329 492 c 128,-1,37
 325 476 325 476 320 468.5 c 128,-1,38
 315 461 315 461 306.5 439 c 128,-1,39
 298 417 298 417 285 402.5 c 128,-1,40
 272 388 272 388 270 385 c 1,41,-1
 358 394 l 2,42,43
 379 396 379 396 394.5 385.5 c 128,-1,44
 410 375 410 375 416.5 360 c 128,-1,45
 423 345 423 345 420 330.5 c 128,-1,46
 417 316 417 316 402 308.5 c 128,-1,47
 387 301 387 301 382.5 293.5 c 128,-1,48
 378 286 378 286 375 279 c 128,-1,49
 372 272 372 272 367.5 265 c 128,-1,50
 363 258 363 258 348.5 251.5 c 0,51,52
 315.972972973 236.918918919 315.972972973 236.918918919 225 228 c 1,53,54
 220 213 220 213 211.5 192.5 c 128,-1,55
 203 172 203 172 194 149.5 c 0,56,57
 167.545454545 83.3636363636 167.545454545 83.3636363636 164.272727273 69.1818181818 c 128,-1,58
 161 55 161 55 159 46 c 0,59,60
 153 19 153 19 148 9 c 1,0,1
EndSplineSet
EndChar

StartChar: G
Encoding: 71 71 48
Width: 639
Flags: HW
LayerCount: 2
Fore
SplineSet
397 755 m 1,0,1
 541.455958549 783.89119171 541.455958549 783.89119171 621 719 c 0,2,3
 659 688 659 688 671.5 629 c 128,-1,4
 684 570 684 570 658 497 c 1,5,6
 647 463 647 463 620 446 c 128,-1,7
 593 429 593 429 564.5 426.5 c 128,-1,8
 536 424 536 424 513 433.5 c 128,-1,9
 490 443 490 443 488 461 c 1,10,-1
 479 481 l 1,11,12
 454.578864353 516.692429022 454.578864353 516.692429022 396.5 490.5 c 0,13,14
 344.556720099 467.07459926 344.556720099 467.07459926 293.5 409.5 c 0,15,16
 239.584553928 348.701731025 239.584553928 348.701731025 224 300 c 0,17,18
 206.066666667 246.2 206.066666667 246.2 205.533333333 228.6 c 0,19,20
 204.405504587 191.381651376 204.405504587 191.381651376 233 161 c 1,21,22
 275 134 275 134 317 136.5 c 128,-1,23
 359 139 359 139 392 155.5 c 128,-1,24
 425 172 425 172 446 193 c 128,-1,25
 467 214 467 214 467 223 c 1,26,27
 470 229 470 229 473 235 c 128,-1,28
 476 241 476 241 478 247 c 1,29,30
 474 247 474 247 480 247.5 c 128,-1,31
 486 248 486 248 483 247.5 c 128,-1,32
 480 247 480 247 486.5 245.5 c 2,33,-1
 492 244 l 1,34,35
 442.842696629 199.758426966 442.842696629 199.758426966 397 226.5 c 0,36,37
 379 237 379 237 365 249.5 c 128,-1,38
 351 262 351 262 339 261 c 1,39,40
 317.08707124 272.952506596 317.08707124 272.952506596 329 307.5 c 0,41,42
 334 322 334 322 347.5 334.5 c 128,-1,43
 361 347 361 347 382 352 c 1,44,45
 482.362752431 394.707554226 482.362752431 394.707554226 567 372 c 0,46,47
 605 362 605 362 619.5 331.5 c 128,-1,48
 634 301 634 301 632 263 c 128,-1,49
 630 225 630 225 615.5 186 c 128,-1,50
 601 147 601 147 584 123.5 c 128,-1,51
 567 100 567 100 536.5 68 c 128,-1,52
 506 36 506 36 460 6 c 0,53,54
 347.376601196 -67.4500426985 347.376601196 -67.4500426985 218 -64 c 1,55,56
 31.4146341463 -61.1729490022 31.4146341463 -61.1729490022 -3 89 c 0,57,58
 -14 137 -14 137 -13 197 c 1,59,60
 -3.34119960669 370.85840708 -3.34119960669 370.85840708 91 521.5 c 0,61,62
 136.228485153 593.719677906 136.228485153 593.719677906 212.5 663.5 c 0,63,64
 260.200380469 707.140773621 260.200380469 707.140773621 320 730.5 c 0,65,66
 352 743 352 743 397 755 c 1,0,1
EndSplineSet
EndChar

StartChar: H
Encoding: 72 72 49
Width: 588
Flags: HW
LayerCount: 2
Fore
SplineSet
239 218 m 1,0,-1
 191 96 l 2,1,2
 181 68 181 68 173 38 c 128,-1,3
 165 8 165 8 156 -14.5 c 128,-1,4
 147 -37 147 -37 128.5 -50 c 128,-1,5
 110 -63 110 -63 87 -69.5 c 128,-1,6
 64 -76 64 -76 39.5 -75 c 128,-1,7
 15 -74 15 -74 -3.5 -65.5 c 0,8,9
 -46.7729885057 -45.617816092 -46.7729885057 -45.617816092 -34 0 c 1,10,11
 11.6756756757 202.027027027 11.6756756757 202.027027027 52.3378378378 324.013513514 c 128,-1,12
 93 446 93 446 119.5 516 c 128,-1,13
 146 586 146 586 175 664 c 1,14,15
 178 693 178 693 199 716 c 128,-1,16
 220 739 220 739 248.5 754 c 128,-1,17
 277 769 277 769 308 775.5 c 128,-1,18
 339 782 339 782 363 777 c 128,-1,19
 387 772 387 772 398.5 755 c 128,-1,20
 410 738 410 738 400 706 c 1,21,22
 363.571428571 613.857142857 363.571428571 613.857142857 348.785714286 575.928571429 c 128,-1,23
 334 538 334 538 321.5 508 c 2,24,-1
 294 442 l 1,25,26
 315.300613497 440.668711656 315.300613497 440.668711656 346.650306748 447.834355828 c 0,27,28
 405.409638554 461.265060241 405.409638554 461.265060241 431 457 c 1,29,30
 431 461.5 431 461.5 436 474 c 1,31,32
 463.794117647 596.294117647 463.794117647 596.294117647 499 698 c 1,33,34
 524.441424555 781.593252109 524.441424555 781.593252109 628 786 c 1,35,36
 669.473684211 786 669.473684211 786 690 766.5 c 0,37,38
 712.921960073 744.724137931 712.921960073 744.724137931 696 709 c 1,39,40
 604.455399061 450.521126761 604.455399061 450.521126761 566.5 302 c 0,41,42
 522.578313253 130.13253012 522.578313253 130.13253012 509.289156627 70.0662650602 c 128,-1,43
 496 10 496 10 486 -1 c 128,-1,44
 476 -12 476 -12 465.5 -16.5 c 128,-1,45
 455 -21 455 -21 445 -25 c 128,-1,46
 435 -29 435 -29 429 -45 c 1,47,-1
 426 -45 l 1,48,49
 418 -63 418 -63 391 -73 c 128,-1,50
 364 -83 364 -83 336.5 -80.5 c 128,-1,51
 309 -78 309 -78 290.5 -60.5 c 128,-1,52
 272 -43 272 -43 281 -7 c 1,53,54
 291.052631579 49.9649122807 291.052631579 49.9649122807 314.026315789 115.48245614 c 128,-1,55
 337 181 337 181 350.5 218 c 128,-1,56
 364 255 364 255 373 287 c 1,57,58
 365 283 365 283 357.5 281 c 128,-1,59
 350 279 350 279 339 273.5 c 128,-1,60
 328 268 328 268 316.5 264 c 128,-1,61
 305 260 305 260 294.5 256 c 0,62,63
 266.28125 245.25 266.28125 245.25 248 234 c 1,64,-1
 239 218 l 1,0,-1
352 285 m 1,65,66
 353.316577172 285.016624551 353.316577172 285.016624551 362 288.5 c 1,67,68
 356 286 356 286 352 285 c 1,65,66
EndSplineSet
EndChar

StartChar: I
Encoding: 73 73 50
Width: 367
Flags: HW
LayerCount: 2
Fore
SplineSet
422 676 m 1,0,1
 387 567 387 567 357.5 479 c 128,-1,2
 328 391 328 391 303.5 317 c 128,-1,3
 279 243 279 243 258 180.5 c 128,-1,4
 237 118 237 118 219 61 c 1,5,6
 208.79245283 -5.34905660377 208.79245283 -5.34905660377 154 -31.5 c 0,7,8
 121.523809524 -47 121.523809524 -47 77.7619047619 -47 c 128,-1,9
 34 -47 34 -47 12 -37.5 c 128,-1,10
 -10 -28 -10 -28 -16.5 -10 c 128,-1,11
 -23 8 -23 8 -16.5 33.5 c 128,-1,12
 -10 59 -10 59 6 103.5 c 128,-1,13
 22 148 22 148 46.5 224 c 128,-1,14
 71 300 71 300 98 378.5 c 0,15,16
 164.821455364 572.777194299 164.821455364 572.777194299 204 648 c 0,17,18
 219 676 219 676 234 685.5 c 128,-1,19
 249 695 249 695 263 699.5 c 128,-1,20
 277 704 277 704 289 710 c 128,-1,21
 301 716 301 716 310.5 740 c 128,-1,22
 320 764 320 764 345.5 773 c 128,-1,23
 371 782 371 782 393.5 774.5 c 128,-1,24
 416 767 416 767 427.5 742.5 c 128,-1,25
 439 718 439 718 422 676 c 1,0,1
EndSplineSet
EndChar

StartChar: J
Encoding: 74 74 51
Width: 561
Flags: HW
LayerCount: 2
Fore
SplineSet
146 101 m 2,0,-1
 145 77 l 2,1,2
 145 71 145 71 147 53 c 1,3,4
 156.279661017 41.8644067797 156.279661017 41.8644067797 166.139830508 47.9322033898 c 0,5,6
 174.470588235 53.0588235294 174.470588235 53.0588235294 202 76 c 1,7,8
 248.169491525 145.254237288 248.169491525 145.254237288 277.584745763 211.627118644 c 0,9,10
 347.351299326 369.049085659 347.351299326 369.049085659 376.5 480.5 c 0,11,12
 385 513 385 513 393.5 545 c 128,-1,13
 402 577 402 577 410.5 610.5 c 128,-1,14
 419 644 419 644 430 680 c 1,15,-1
 430 684 l 1,16,17
 447.037523452 742.684803002 447.037523452 742.684803002 517 776.5 c 0,18,19
 584.07611153 808.920120573 584.07611153 808.920120573 632 786 c 0,20,21
 655 775 655 775 665 748.5 c 128,-1,22
 675 722 675 722 663 677 c 1,23,24
 640 608 640 608 617 532 c 128,-1,25
 594 456 594 456 568 379.5 c 128,-1,26
 542 303 542 303 510 230 c 128,-1,27
 478 157 478 157 436 95.5 c 0,28,29
 343.197452229 -40.38944495 343.197452229 -40.38944495 216 -84 c 1,30,31
 202 -90 202 -90 192.5 -91 c 128,-1,32
 183 -92 183 -92 165 -94.5 c 128,-1,33
 147 -97 147 -97 119.5 -95.5 c 128,-1,34
 92 -94 92 -94 66.5 -86.5 c 0,35,36
 6.26086956522 -68.7826086957 6.26086956522 -68.7826086957 -8 -26 c 1,37,38
 -24.0346320346 34.1298701299 -24.0346320346 34.1298701299 -20.5173160173 61.5649350649 c 128,-1,39
 -17 89 -17 89 -9 106 c 128,-1,40
 -1 123 -1 123 11 142 c 1,41,-1
 12 142 l 1,42,43
 21 159 21 159 40.5 171 c 128,-1,44
 60 183 60 183 81.5 186.5 c 128,-1,45
 103 190 103 190 121.5 183 c 128,-1,46
 140 176 140 176 146 156 c 1,47,48
 147 145 147 145 147 128 c 128,-1,49
 147 111 147 111 146 101 c 2,0,-1
EndSplineSet
EndChar

StartChar: K
Encoding: 75 75 52
Width: 579
Flags: HW
LayerCount: 2
Fore
SplineSet
180 710 m 1,0,1
 199 756 199 756 234 743 c 1,2,3
 243.802631579 764.565789474 243.802631579 764.565789474 251.401315789 770.782894737 c 128,-1,4
 259 777 259 777 267 780.5 c 128,-1,5
 275 784 275 784 284 788 c 128,-1,6
 293 792 293 792 312 795 c 128,-1,7
 331 798 331 798 354 798.5 c 128,-1,8
 377 799 377 799 400.5 796 c 128,-1,9
 424 793 424 793 440.5 783 c 0,10,11
 478.773195876 759.804123711 478.773195876 759.804123711 457 709 c 1,12,13
 459 710 459 710 456 707 c 1,14,-1
 447 690 l 1,15,-1
 440 681 l 2,16,17
 435.25 676.25 435.25 676.25 409 620 c 1,18,19
 388 580 388 580 366.5 541 c 0,20,21
 329.694915254 474.237288136 329.694915254 474.237288136 322 455 c 1,22,23
 356.770114943 474.471264368 356.770114943 474.471264368 402.885057471 509.735632184 c 0,24,25
 490.229885057 576.528735632 490.229885057 576.528735632 514.114942529 589.764367816 c 128,-1,26
 538 603 538 603 547.5 606 c 128,-1,27
 557 609 557 609 566 607.5 c 128,-1,28
 575 606 575 606 585 602 c 2,29,-1
 610 592 l 1,30,31
 634.312 583.896 634.312 583.896 635.5 534 c 0,32,33
 636.671296296 484.805555556 636.671296296 484.805555556 616 460 c 1,34,35
 524.977578475 342.206278027 524.977578475 342.206278027 411 301.5 c 0,36,37
 376 289 376 289 339 280 c 1,38,39
 391.737864078 274.349514563 391.737864078 274.349514563 440 210 c 0,40,41
 479 158 479 158 496.5 103 c 128,-1,42
 514 48 514 48 524 21.5 c 128,-1,43
 534 -5 534 -5 532.5 -19.5 c 128,-1,44
 531 -34 531 -34 515.5 -41.5 c 128,-1,45
 500 -49 500 -49 463 -56 c 0,46,47
 445.627118644 -59.4745762712 445.627118644 -59.4745762712 393 -16 c 0,48,49
 370 3 370 3 344 25.5 c 128,-1,50
 318 48 318 48 292.5 68 c 0,51,52
 232.071038251 115.395264117 232.071038251 115.395264117 208 117 c 0,53,54
 206 117 206 117 200 119 c 1,55,-1
 182 74 l 2,56,57
 168 41 168 41 153.5 4.5 c 128,-1,58
 139 -32 139 -32 119 -61 c 1,59,60
 88.4563106796 -82.145631068 88.4563106796 -82.145631068 47 -78 c 0,61,62
 -0.209302325581 -73.2790697674 -0.209302325581 -73.2790697674 -15 -40 c 1,63,64
 -24.705372617 -8.94280762565 -24.705372617 -8.94280762565 17.5 142.5 c 0,65,66
 46.7777777778 247.555555556 46.7777777778 247.555555556 67.8888888889 327.777777778 c 128,-1,67
 89 408 89 408 104 460.5 c 128,-1,68
 119 513 119 513 126 542.5 c 128,-1,69
 133 572 133 572 140 599.5 c 0,70,71
 156.622911695 664.804295943 156.622911695 664.804295943 180 710 c 1,0,1
EndSplineSet
EndChar

StartChar: L
Encoding: 76 76 53
Width: 467
Flags: HW
LayerCount: 2
Fore
SplineSet
306 -54.5 m 128,-1,1
 287 -55 287 -55 267.5 -56 c 128,-1,2
 248 -57 248 -57 214 -57 c 128,-1,3
 180 -57 180 -57 112 -55 c 1,4,5
 96 -56 96 -56 80 -56 c 128,-1,6
 64 -56 64 -56 50 -50 c 0,7,8
 18.756097561 -36.6097560976 18.756097561 -36.6097560976 8 10 c 0,9,10
 3 32 3 32 -3.5 41 c 128,-1,11
 -10 50 -10 50 -14.5 57.5 c 0,12,13
 -24.2434782609 73.7391304348 -24.2434782609 73.7391304348 -12.6217391304 110.869565217 c 128,-1,14
 -1 148 -1 148 17 202.5 c 128,-1,15
 35 257 35 257 57.5 317.5 c 0,16,17
 111.554878049 462.847560976 111.554878049 462.847560976 155 548 c 1,18,19
 172 586 172 586 184.5 614 c 128,-1,20
 197 642 197 642 207 662.5 c 128,-1,21
 217 683 217 683 217 684 c 0,22,23
 226.901859504 721.627066116 226.901859504 721.627066116 293.5 748.5 c 0,24,25
 358.724832215 774.818791946 358.724832215 774.818791946 412 761.5 c 0,26,27
 471.371428571 746.657142857 471.371428571 746.657142857 464 684 c 1,28,29
 450 622 450 622 422.5 560 c 128,-1,30
 395 498 395 498 360 430 c 128,-1,31
 325 362 325 362 284 286 c 128,-1,32
 243 210 243 210 203 121 c 0,33,34
 202 117 202 117 207 114 c 1,35,36
 220 115 220 115 243.5 122 c 128,-1,37
 267 129 267 129 292.5 134.5 c 128,-1,38
 318 140 318 140 343 140 c 128,-1,39
 368 140 368 140 385 127 c 1,40,41
 384 109 384 109 394 98.5 c 128,-1,42
 404 88 404 88 414 77.5 c 0,43,44
 438.563345633 51.7084870849 438.563345633 51.7084870849 418 9 c 0,45,46
 397.735099338 -33.2185430464 397.735099338 -33.2185430464 346 -48 c 0,47,0
 325 -54 325 -54 306 -54.5 c 128,-1,1
EndSplineSet
EndChar

StartChar: M
Encoding: 77 77 54
Width: 691
Flags: HW
LayerCount: 2
Fore
SplineSet
392 730 m 1,0,1
 401.947368421 703.473684211 401.947368421 703.473684211 402.973684211 694.236842105 c 0,2,3
 405.159090909 674.568181818 405.159090909 674.568181818 389 662 c 0,4,5
 389 661 389 661 387 659 c 1,6,7
 396 612 396 612 391 571 c 128,-1,8
 386 530 386 530 378 492 c 1,9,10
 432.130434783 584.02173913 432.130434783 584.02173913 464.065217391 627.010869565 c 0,11,12
 530.339622642 716.226415094 530.339622642 716.226415094 587 754 c 1,13,14
 606 765 606 765 633.5 770.5 c 128,-1,15
 661 776 661 776 686 772 c 128,-1,16
 711 768 711 768 727.5 752 c 128,-1,17
 744 736 744 736 742 704 c 1,18,19
 714 509 714 509 682 340.5 c 128,-1,20
 650 172 650 172 599 19 c 1,21,-1
 599 17 l 1,22,-1
 598 17 l 1,23,24
 585.948275862 -19.1551724138 585.948275862 -19.1551724138 538.5 -33.5 c 0,25,26
 491.353249476 -47.7536687631 491.353249476 -47.7536687631 453.5 -36.5 c 0,27,28
 409.27862069 -23.3531034483 409.27862069 -23.3531034483 413 12 c 1,29,-1
 414 35 l 1,30,-1
 414 37 l 1,31,32
 418 61 418 61 418.5 69.5 c 128,-1,33
 419 78 419 78 419.5 82.5 c 0,34,35
 422.289473684 107.605263158 422.289473684 107.605263158 428.644736842 130.302631579 c 128,-1,36
 435 153 435 153 438 167 c 128,-1,37
 441 181 441 181 444 193.5 c 128,-1,38
 447 206 447 206 448 213 c 1,39,40
 410.421052632 161.105263158 410.421052632 161.105263158 394.210526316 150.052631579 c 0,41,42
 353.757281553 122.470873786 353.757281553 122.470873786 301 124.5 c 0,43,44
 267.96097561 125.770731707 267.96097561 125.770731707 263 139 c 0,45,46
 253.355555556 166.555555556 253.355555556 166.555555556 249.177777778 171.777777778 c 0,47,48
 242.866666667 179.666666667 242.866666667 179.666666667 239 199 c 1,49,50
 212.507352941 84.1985294118 212.507352941 84.1985294118 187.5 35.5 c 0,51,52
 178 17 178 17 168 2 c 1,53,54
 153.735849057 -30.6037735849 153.735849057 -30.6037735849 103.5 -44 c 0,55,56
 56.5555555556 -56.5185185185 56.5555555556 -56.5185185185 14.5 -42.5 c 0,57,58
 -29.8507462687 -27.7164179104 -29.8507462687 -27.7164179104 -27.9253731343 8.14179104478 c 128,-1,59
 -26 44 -26 44 -13.5 98.5 c 128,-1,60
 -1 153 -1 153 15.5 214.5 c 0,61,62
 67.0855018587 406.773234201 67.0855018587 406.773234201 88.5427509294 464.8866171 c 128,-1,63
 110 523 110 523 125 555.5 c 0,64,65
 160.905263158 633.294736842 160.905263158 633.294736842 189 668 c 1,66,67
 219.650692226 731.104366347 219.650692226 731.104366347 291.5 744.5 c 0,68,69
 349.095238095 755.238095238 349.095238095 755.238095238 392 730 c 1,0,1
EndSplineSet
EndChar

StartChar: N
Encoding: 78 78 55
Width: 630
Flags: HW
LayerCount: 2
Fore
SplineSet
68.5 388 m 0,0,1
 88 455 88 455 100.5 491.5 c 128,-1,2
 113 528 113 528 125 557 c 128,-1,3
 137 586 137 586 152.5 613 c 128,-1,4
 168 640 168 640 186.5 662.5 c 128,-1,5
 205 685 205 685 226 698 c 128,-1,6
 247 711 247 711 270 711 c 128,-1,7
 293 711 293 711 318 693 c 1,8,9
 358.225225225 593.495495495 358.225225225 593.495495495 366.612612613 558.747747748 c 0,10,11
 378.693251534 508.699386503 378.693251534 508.699386503 389 418 c 1,12,13
 398 441 398 441 409.5 466.5 c 128,-1,14
 421 492 421 492 432.5 517.5 c 0,15,16
 462.512195122 584.048780488 462.512195122 584.048780488 471 618 c 1,17,18
 492.997874601 687.659936238 492.997874601 687.659936238 562.5 723 c 0,19,20
 622.034596376 753.271828666 622.034596376 753.271828666 673.5 742.5 c 0,21,22
 695 738 695 738 703.5 725 c 128,-1,23
 712 712 712 712 703.5 698 c 128,-1,24
 695 684 695 684 697.5 671.5 c 128,-1,25
 700 659 700 659 701.5 641.5 c 0,26,27
 705.425047438 595.707779886 705.425047438 595.707779886 686.212523719 560.353889943 c 128,-1,28
 667 525 667 525 647 472.5 c 128,-1,29
 627 420 627 420 606.5 361 c 128,-1,30
 586 302 586 302 565 241 c 128,-1,31
 544 180 544 180 524.5 129.5 c 0,32,33
 480.461653016 15.4519731943 480.461653016 15.4519731943 452 3 c 1,34,35
 413.5 -20.1 413.5 -20.1 396.25 -23.55 c 0,36,37
 373 -28.2 373 -28.2 331 -24 c 0,38,39
 305.319562576 -22.2879708384 305.319562576 -22.2879708384 285.5 43 c 0,40,41
 274.836363636 78.1272727273 274.836363636 78.1272727273 265.918181818 139.563636364 c 0,42,43
 250.200873362 247.838427948 250.200873362 247.838427948 244 259 c 1,44,45
 204.005119454 128.581911263 204.005119454 128.581911263 187.502559727 94.7909556314 c 128,-1,46
 171 61 171 61 162.5 50 c 128,-1,47
 154 39 154 39 142 21 c 1,48,49
 128.799703264 -14.8293768546 128.799703264 -14.8293768546 80.5 -32.5 c 0,50,51
 37.8834285714 -48.0914285714 37.8834285714 -48.0914285714 3.5 -37 c 0,52,53
 -33.1849529781 -25.1661442006 -33.1849529781 -25.1661442006 -18 9 c 1,54,55
 -6.81682734443 129.219106047 -6.81682734443 129.219106047 68.5 388 c 0,0,1
EndSplineSet
EndChar

StartChar: O
Encoding: 79 79 56
Width: 639
Flags: HW
LayerCount: 2
Fore
SplineSet
203 661.5 m 0,0,1
 265.801672085 734.29284719 265.801672085 734.29284719 343 752.5 c 0,2,3
 396 765 396 765 443 748 c 1,4,5
 480.399380805 787.269349845 480.399380805 787.269349845 539 776 c 0,6,7
 593.04494382 765.606741573 593.04494382 765.606741573 631 715 c 1,8,9
 633 708 633 708 639.5 694 c 128,-1,10
 646 680 646 680 652 663 c 1,11,12
 695.829268293 560.731707317 695.829268293 560.731707317 659 395 c 0,13,14
 613.305084746 189.372881356 613.305084746 189.372881356 496 46 c 0,15,16
 460 2 460 2 415 -27 c 1,17,18
 342.936170213 -81.6691122524 342.936170213 -81.6691122524 243 -76.5 c 0,19,20
 181.476635514 -73.3177570093 181.476635514 -73.3177570093 139 -45 c 1,21,22
 -27.5974025974 38.2987012987 -27.5974025974 38.2987012987 30.5 301 c 0,23,24
 78.247134881 516.900088158 78.247134881 516.900088158 203 661.5 c 0,0,1
215 131 m 1,25,-1
 214 125 l 1,26,-1
 216 114 l 2,27,28
 222.105263158 83.4736842105 222.105263158 83.4736842105 236.052631579 66.7368421053 c 128,-1,29
 250 50 250 50 259 46 c 1,30,31
 269 54 269 54 279 61 c 128,-1,32
 289 68 289 68 297 78 c 0,33,34
 364.825327511 162.26783115 364.825327511 162.26783115 403 298 c 128,-1,35
 441.193164933 433.797919762 441.193164933 433.797919762 431 550 c 1,36,37
 391.512820513 499.743589744 391.512820513 499.743589744 348.756410256 434.871794872 c 128,-1,38
 306 370 306 370 281 323.5 c 0,39,40
 223.783375315 217.077078086 223.783375315 217.077078086 215 131 c 1,25,-1
EndSplineSet
EndChar

StartChar: P
Encoding: 80 80 57
Width: 606
Flags: HW
LayerCount: 2
Fore
SplineSet
513 214.5 m 0,0,1
 473 184 473 184 429.5 170.5 c 128,-1,2
 386 157 386 157 343 163 c 128,-1,3
 300 169 300 169 269 200 c 1,4,5
 240.658536585 110.926829268 240.658536585 110.926829268 231 24 c 1,6,7
 227 8 227 8 217 -5 c 1,8,9
 199.32885906 -58.0134228188 199.32885906 -58.0134228188 137.5 -76 c 0,10,11
 78.2522567703 -93.2357071214 78.2522567703 -93.2357071214 26.5 -70 c 0,12,13
 2 -59 2 -59 -14 -38 c 128,-1,14
 -30 -17 -30 -17 -30 13 c 1,15,16
 39.4473684211 252.473684211 39.4473684211 252.473684211 103 405 c 0,17,18
 117 437 117 437 125.5 457 c 128,-1,19
 134 477 134 477 141 491 c 128,-1,20
 148 505 148 505 153.5 515.5 c 128,-1,21
 159 526 159 526 167 539 c 0,22,23
 185.181818182 568.545454545 185.181818182 568.545454545 208.590909091 609.272727273 c 128,-1,24
 232 650 232 650 248.5 670 c 128,-1,25
 265 690 265 690 283.5 704.5 c 128,-1,26
 302 719 302 719 324.5 732 c 128,-1,27
 347 745 347 745 381 766 c 128,-1,28
 415 787 415 787 453.5 791.5 c 128,-1,29
 492 796 492 796 527 785 c 0,30,31
 601.278438031 761.655348048 601.278438031 761.655348048 636 682 c 1,32,33
 666.427294882 607.833468725 666.427294882 607.833468725 646 483 c 0,34,35
 614.760581667 292.092443521 614.760581667 292.092443521 513 214.5 c 0,0,1
304 303 m 1,36,37
 386.142414861 321.253869969 386.142414861 321.253869969 418 410 c 0,38,39
 444.861788618 484.829268293 444.861788618 484.829268293 429 580 c 1,40,41
 406 541 406 541 387.5 499 c 128,-1,42
 369 457 369 457 354.5 424.5 c 0,43,44
 321.103225806 349.64516129 321.103225806 349.64516129 304 303 c 1,36,37
EndSplineSet
EndChar

StartChar: Q
Encoding: 81 81 58
Width: 724
Flags: HW
LayerCount: 2
Fore
SplineSet
565 80 m 1,0,1
 574 46 574 46 561 23.5 c 128,-1,2
 548 1 548 1 524 -11 c 1,3,4
 524 -16 524 -16 530.5 -35.5 c 128,-1,5
 537 -55 537 -55 541 -67.5 c 0,6,7
 549.712328767 -94.7260273973 549.712328767 -94.7260273973 546 -117 c 1,8,9
 534.606469003 -154.978436658 534.606469003 -154.978436658 490 -158.5 c 0,10,11
 471 -160 471 -160 452 -153 c 128,-1,12
 433 -146 433 -146 422 -131 c 1,13,14
 420 -135 420 -135 411 -114.5 c 128,-1,15
 402 -94 402 -94 391 -68 c 1,16,-1
 369 -24 l 1,17,18
 315.039076377 -41.3445825933 315.039076377 -41.3445825933 280.519538188 -37.6722912966 c 0,19,20
 227.673740053 -32.050397878 227.673740053 -32.050397878 169 -9 c 0,21,22
 87 23 87 23 56 105 c 128,-1,23
 25 187 25 187 48 306 c 1,24,25
 59.442209342 445.594953972 59.442209342 445.594953972 115 561.5 c 0,26,27
 180.688474705 698.539748954 180.688474705 698.539748954 280 739 c 1,28,29
 380.529680365 790.433789954 380.529680365 790.433789954 448 782 c 1,30,-1
 466 788 l 1,31,32
 481 814 481 814 512.5 825 c 128,-1,33
 544 836 544 836 580 834 c 128,-1,34
 616 832 616 832 650.5 819 c 128,-1,35
 685 806 685 806 706 784 c 1,36,37
 780.512195122 711.398373984 780.512195122 711.398373984 767 547 c 0,38,39
 750.518647439 346.476877176 750.518647439 346.476877176 621 171 c 0,40,41
 590 129 590 129 554 93 c 1,42,-1
 565 80 l 1,0,1
278 101 m 1,43,44
 268 138.5 268 138.5 268 160 c 1,45,46
 266 162 266 162 266 165 c 2,47,-1
 266 166 l 1,48,49
 265 167 265 167 265 169 c 1,50,-1
 266 169 l 1,51,52
 267.8375 218.6125 267.8375 218.6125 317 235 c 1,53,54
 347 251 347 251 383 248.5 c 128,-1,55
 419 246 419 246 448 226 c 1,56,57
 458 243 458 243 465 257 c 2,58,-1
 477 281 l 1,59,60
 563.954022989 465.137931034 563.954022989 465.137931034 521 594 c 1,61,62
 491 574 491 574 455.5 567.5 c 128,-1,63
 420 561 420 561 390 566 c 1,64,65
 368.461538462 546.615384615 368.461538462 546.615384615 348.730769231 520.307692308 c 128,-1,66
 329 494 329 494 321.5 484 c 128,-1,67
 314 474 314 474 295.5 441.5 c 128,-1,68
 277 409 277 409 260 370 c 128,-1,69
 243 331 243 331 231 289.5 c 128,-1,70
 219 248 219 248 218 211 c 0,71,72
 215.720125786 126.644654088 215.720125786 126.644654088 278 101 c 1,43,44
EndSplineSet
EndChar

StartChar: R
Encoding: 82 82 59
Width: 582
Flags: HW
LayerCount: 2
Fore
SplineSet
175 -3 m 1,0,1
 165.507559395 -42.86825054 165.507559395 -42.86825054 113 -52 c 0,2,3
 63.9757785467 -60.5259515571 63.9757785467 -60.5259515571 19.5 -41 c 0,4,5
 -28.6773455378 -19.8489702517 -28.6773455378 -19.8489702517 -23 18 c 1,6,7
 -29.0564516129 75.5362903226 -29.0564516129 75.5362903226 38 270 c 0,8,9
 138.303030303 560.878787879 138.303030303 560.878787879 238 685.5 c 0,10,11
 264 718 264 718 282.5 727.5 c 128,-1,12
 301 737 301 737 325 745 c 128,-1,13
 349 753 349 753 375 760 c 0,14,15
 426.509433962 773.867924528 426.509433962 773.867924528 473.254716981 779.433962264 c 128,-1,16
 520 785 520 785 557 768.5 c 128,-1,17
 594 752 594 752 614.5 720 c 128,-1,18
 635 688 635 688 640 644.5 c 128,-1,19
 645 601 645 601 637 553.5 c 128,-1,20
 629 506 629 506 608 457.5 c 128,-1,21
 587 409 587 409 555 367 c 0,22,23
 484.739130435 274.782608696 484.739130435 274.782608696 391 248 c 1,24,-1
 401 231 l 1,25,26
 414 211 414 211 432.5 187 c 128,-1,27
 451 163 451 163 469.5 138 c 128,-1,28
 488 113 488 113 503 88 c 128,-1,29
 518 63 518 63 525 41 c 0,30,31
 540.552816901 -7.88028169014 540.552816901 -7.88028169014 500 -30 c 1,32,33
 467.447916667 -49.53125 467.447916667 -49.53125 448.5 -39.5 c 0,34,35
 440 -35 440 -35 432 -27.5 c 128,-1,36
 424 -20 424 -20 410 -15 c 1,37,38
 351.30820996 -32.1184387618 351.30820996 -32.1184387618 320.5 15 c 0,39,40
 301.181818182 44.5454545455 301.181818182 44.5454545455 291.090909091 69.7727272727 c 128,-1,41
 281 95 281 95 273.5 111.5 c 0,42,43
 256.27027027 149.405405405 256.27027027 149.405405405 233 176 c 1,44,45
 221.876404494 148.696629213 221.876404494 148.696629213 208.438202247 107.348314607 c 0,46,47
 191.020408163 53.7551020408 191.020408163 53.7551020408 170 -3 c 1,48,-1
 175 -3 l 1,0,1
377 579 m 1,49,50
 357.75 536.375 357.75 536.375 350.875 519.1875 c 0,51,52
 337.333333333 485.333333333 337.333333333 485.333333333 320 444 c 1,53,54
 317.25 422 317.25 422 315 413 c 1,55,-1
 329 427 l 1,56,-1
 346 435 l 1,57,58
 364 445 364 445 379 453 c 128,-1,59
 394 461 394 461 406 473 c 0,60,61
 429.421052632 496.421052632 429.421052632 496.421052632 446 548 c 1,62,63
 446 558 446 558 449.5 568 c 128,-1,64
 453 578 453 578 454.5 587.5 c 0,65,66
 457.985915493 609.577464789 457.985915493 609.577464789 436 619 c 1,67,68
 416 621 416 621 386 586 c 0,69,70
 380 579 380 579 377 579 c 1,49,50
EndSplineSet
EndChar

StartChar: S
Encoding: 83 83 60
Width: 552
Flags: HW
LayerCount: 2
Fore
SplineSet
166 -58 m 1,0,1
 115 -60 115 -60 72.5 -45.5 c 128,-1,2
 30 -31 30 -31 3.5 -6 c 128,-1,3
 -23 19 -23 19 -30 52.5 c 128,-1,4
 -37 86 -37 86 -18 121 c 1,5,6
 7.66666666667 163 7.66666666667 163 86.5 146.5 c 0,7,8
 144.671698113 134.324528302 144.671698113 134.324528302 167.335849057 133.162264151 c 128,-1,9
 190 132 190 132 206 139 c 1,10,11
 279.333333333 162.833333333 279.333333333 162.833333333 288 191 c 0,12,13
 294.362416107 211.677852349 294.362416107 211.677852349 262.5 240 c 0,14,15
 249 252 249 252 233 264 c 128,-1,16
 217 276 217 276 206 288 c 1,17,18
 156 325 156 325 127.5 373.5 c 128,-1,19
 99 422 99 422 104 479 c 128,-1,20
 109 536 109 536 123 573.5 c 128,-1,21
 137 611 137 611 157.5 639.5 c 0,22,23
 194.526431718 690.975770925 194.526431718 690.975770925 254 723 c 1,24,25
 321.578034682 758.040462428 321.578034682 758.040462428 363.289017341 767.520231214 c 0,26,27
 443.733167082 785.802992519 443.733167082 785.802992519 527 771 c 0,28,29
 555 766 555 766 575 752 c 128,-1,30
 595 738 595 738 615 723 c 1,31,32
 650.108695652 687.891304348 650.108695652 687.891304348 632.5 651.5 c 0,33,34
 625 636 625 636 610 626 c 128,-1,35
 595 616 595 616 578 615 c 1,36,37
 580.5 587.5 580.5 587.5 568.25 575.25 c 0,38,39
 545.407407407 552.407407407 545.407407407 552.407407407 488 545 c 1,40,41
 406.198473282 551.458015267 406.198473282 551.458015267 377 536 c 0,42,43
 342.653650255 517.81663837 342.653650255 517.81663837 352 458 c 0,44,45
 354 445 354 445 368.5 431 c 128,-1,46
 383 417 383 417 402.5 401 c 128,-1,47
 422 385 422 385 443.5 365 c 128,-1,48
 465 345 465 345 481 319 c 0,49,50
 537.4743083 227.229249012 537.4743083 227.229249012 472.5 104.5 c 0,51,52
 423.671641791 12.2686567164 423.671641791 12.2686567164 308 -34 c 0,53,54
 248 -58 248 -58 166 -58 c 1,0,1
EndSplineSet
EndChar

StartChar: T
Encoding: 84 84 61
Width: 502
Flags: HW
LayerCount: 2
Fore
SplineSet
293 106 m 128,-1,1
 265 34 265 34 246.5 -3.5 c 128,-1,2
 228 -41 228 -41 214 -55 c 128,-1,3
 200 -69 200 -69 185.5 -74 c 128,-1,4
 171 -79 171 -79 156.5 -78 c 128,-1,5
 142 -77 142 -77 127 -76 c 1,6,7
 42.6369426752 -62.8768577495 42.6369426752 -62.8768577495 75 45 c 1,8,9
 96 131 96 131 109 185.5 c 128,-1,10
 122 240 122 240 130.5 275.5 c 128,-1,11
 139 311 139 311 145 334.5 c 128,-1,12
 151 358 151 358 158 381 c 128,-1,13
 165 404 165 404 175.5 433 c 128,-1,14
 186 462 186 462 203 510 c 1,15,16
 165 505 165 505 135 518 c 0,17,18
 90.9470468432 537.089613035 90.9470468432 537.089613035 99 599.5 c 0,19,20
 102.785617368 628.8385346 102.785617368 628.8385346 130.5 654.5 c 0,21,22
 144 667 144 667 163 682 c 256,23,24
 201.894351464 712.706066946 201.894351464 712.706066946 317.5 747.5 c 0,25,26
 438.445927904 783.901201602 438.445927904 783.901201602 524 782 c 1,27,28
 547 786 547 786 571.5 776.5 c 128,-1,29
 596 767 596 767 611 751 c 128,-1,30
 626 735 626 735 626.5 716 c 128,-1,31
 627 697 627 697 602 682 c 0,32,33
 590 674 590 674 585 655.5 c 128,-1,34
 580 637 580 637 574 616.5 c 128,-1,35
 568 596 568 596 556.5 579 c 128,-1,36
 545 562 545 562 520 559 c 1,37,38
 506.75 552.375 506.75 552.375 483.375 549.1875 c 128,-1,39
 460 546 460 546 452.5 544.5 c 128,-1,40
 445 543 445 543 444 539 c 0,41,42
 426 486 426 486 401 410.5 c 128,-1,43
 376 335 376 335 348.5 256.5 c 128,-1,0
 321 178 321 178 293 106 c 128,-1,1
213 521 m 1,44,45
 211 521 211 521 211 520.5 c 128,-1,46
 211 520 211 520 213 520 c 1,47,-1
 213 521 l 1,44,45
EndSplineSet
EndChar

StartChar: U
Encoding: 85 85 62
Width: 685
Flags: HW
LayerCount: 2
Fore
SplineSet
343 724 m 1,0,-1
 343 722 l 2,1,2
 343 721 343 721 343.5 721 c 128,-1,3
 344 721 344 721 344 720 c 2,4,-1
 344 718 l 1,5,-1
 345 718 l 1,6,-1
 351 702 l 2,7,8
 361.218855219 673.387205387 361.218855219 673.387205387 299 521.5 c 0,9,10
 233.262002743 361.021947874 233.262002743 361.021947874 238 271 c 1,11,12
 248.589928058 207.460431655 248.589928058 207.460431655 345 373.5 c 0,13,14
 420.820143885 504.079136691 420.820143885 504.079136691 492 659 c 0,15,16
 501 680 501 680 511 702.5 c 128,-1,17
 521 725 521 725 535.5 740.5 c 0,18,19
 569.06743567 776.382431233 569.06743567 776.382431233 616 759 c 1,20,21
 632 778 632 778 653.5 785 c 128,-1,22
 675 792 675 792 694.5 788 c 128,-1,23
 714 784 714 784 728 769.5 c 128,-1,24
 742 755 742 755 743 731 c 1,25,26
 746.345454545 710.927272727 746.345454545 710.927272727 722.672727273 635.963636364 c 128,-1,27
 699 561 699 561 679 499 c 128,-1,28
 659 437 659 437 637.5 364 c 0,29,30
 586.573732719 191.087557604 586.573732719 191.087557604 557 38 c 1,31,32
 556 6 556 6 529.5 -15 c 128,-1,33
 503 -36 503 -36 470.5 -42.5 c 128,-1,34
 438 -49 438 -49 409 -40.5 c 0,35,36
 374.446294754 -30.3721898418 374.446294754 -30.3721898418 372.5 10.5 c 0,37,38
 372 21 372 21 371 32 c 1,39,40
 373.393861893 -1.51406649616 373.393861893 -1.51406649616 321.5 -26.5 c 0,41,42
 308 -33 308 -33 296 -39 c 1,43,44
 225.572450805 -60.3416815742 225.572450805 -60.3416815742 149 -29.5 c 0,45,46
 113 -15 113 -15 84.5 10.5 c 128,-1,47
 56 36 56 36 45 71 c 0,48,49
 9.56601788532 182.617043661 9.56601788532 182.617043661 57.5 365 c 0,50,51
 78 443 78 443 107 517 c 128,-1,52
 136 591 136 591 149.5 624 c 128,-1,53
 163 657 163 657 169 669.5 c 128,-1,54
 175 682 175 682 181.5 694.5 c 0,55,56
 198.833333333 727.833333333 198.833333333 727.833333333 211 740 c 2,57,-1
 223 751 l 2,58,59
 225 753 225 753 227 753.5 c 128,-1,60
 229 754 229 754 232 756 c 0,61,62
 239.714285714 761.142857143 239.714285714 761.142857143 249 763 c 2,63,-1
 263 766 l 1,64,-1
 269 766 l 1,65,66
 297.56 770.08 297.56 770.08 319 754 c 0,67,68
 319 753 319 753 321 753 c 1,69,-1
 329 746 l 1,70,-1
 332 743 l 1,71,-1
 335 739 l 2,72,73
 335 738 335 738 335.5 738 c 128,-1,74
 336 738 336 738 336 737 c 2,75,-1
 337 736 l 1,76,-1
 337 734 l 1,77,78
 338 734 338 734 338 733 c 2,79,-1
 338 732 l 1,80,81
 339 731 339 731 340 731 c 1,82,-1
 340 730 l 2,83,84
 340 729 340 729 340.5 729 c 128,-1,85
 341 729 341 729 341 728.5 c 128,-1,86
 341 728 341 728 342 727 c 1,87,-1
 342 726 l 2,88,89
 342 725 342 725 343 724 c 1,0,-1
370 58 m 1,90,-1
 369.5 61 l 2,91,92
 369 60 369 60 369 53 c 1,93,94
 369 56 369 56 370 57 c 1,95,-1
 370 58 l 1,90,-1
EndSplineSet
EndChar

StartChar: V
Encoding: 86 86 63
Width: 515
Flags: HW
LayerCount: 2
Fore
SplineSet
79 33 m 2,0,-1
 72 679 l 2,1,2
 72 703 72 703 91.5 720.5 c 128,-1,3
 111 738 111 738 136 745 c 128,-1,4
 161 752 161 752 183 747 c 128,-1,5
 205 742 205 742 211 721 c 1,6,7
 230.173913043 682.652173913 230.173913043 682.652173913 237.086956522 615.826086957 c 0,8,9
 250 491 250 491 250 400 c 1,10,11
 260 384 260 384 275 385 c 1,12,13
 318.094890511 490.04379562 318.094890511 490.04379562 370.047445255 587.02189781 c 128,-1,14
 422 684 422 684 437 711.5 c 128,-1,15
 452 739 452 739 473 750 c 128,-1,16
 494 761 494 761 518.5 764 c 0,17,18
 569.673684211 770.266165414 569.673684211 770.266165414 616 746 c 1,19,20
 651 734 651 734 657 705 c 1,21,22
 680.133333333 658.733333333 680.133333333 658.733333333 626 599 c 1,23,24
 562.646216769 499.217791411 562.646216769 499.217791411 498.823108384 377.608895706 c 0,25,26
 376.578947368 144.684210526 376.578947368 144.684210526 343.789473684 90.8421052632 c 128,-1,27
 311 37 311 37 296 14.5 c 128,-1,28
 281 -8 281 -8 262 -23 c 0,29,30
 228.305949008 -49.6005665722 228.305949008 -49.6005665722 180 -45 c 1,31,32
 95.7081447964 -42.4457013575 95.7081447964 -42.4457013575 82.5 8.5 c 0,33,34
 79 22 79 22 79 33 c 2,0,-1
EndSplineSet
EndChar

StartChar: W
Encoding: 87 87 64
Width: 773
Flags: HW
LayerCount: 2
Fore
SplineSet
488 422 m 1,0,1
 590.333333333 729 590.333333333 729 623.5 729 c 0,2,3
 628 729 628 729 633 728.5 c 0,4,5
 648.555555556 726.944444444 648.555555556 726.944444444 669 741 c 1,6,7
 695 763 695 763 729.5 775 c 128,-1,8
 764 787 764 787 797 784 c 0,9,10
 873.641025641 777.032634033 873.641025641 777.032634033 894 703 c 1,11,-1
 894 700 l 1,12,13
 889.25 685.75 889.25 685.75 884 677 c 1,14,-1
 888 677 l 1,15,16
 863.044334975 646.172413793 863.044334975 646.172413793 840.022167488 596.586206897 c 128,-1,17
 817 547 817 547 805 519.5 c 128,-1,18
 793 492 793 492 771 450 c 128,-1,19
 749 408 749 408 720.5 347 c 128,-1,20
 692 286 692 286 661 226 c 0,21,22
 586.68641115 82.1672473868 586.68641115 82.1672473868 514 0 c 1,23,24
 477.472312704 -44.6449511401 477.472312704 -44.6449511401 414.5 -43.5 c 0,25,26
 387 -43 387 -43 362 -30 c 128,-1,27
 337 -17 337 -17 323 10 c 1,28,-1
 302 73 l 1,29,30
 289 62 289 62 272 45 c 128,-1,31
 255 28 255 28 236.5 10.5 c 0,32,33
 192.04676259 -31.5503597122 192.04676259 -31.5503597122 168.023381295 -33.7751798561 c 128,-1,34
 144 -36 144 -36 127 -34.5 c 128,-1,35
 110 -33 110 -33 95 -27 c 0,36,37
 61.4516129032 -13.5806451613 61.4516129032 -13.5806451613 51 23 c 1,38,39
 34.0828865979 194.285773196 34.0828865979 194.285773196 68.5 459.5 c 0,40,41
 77 525 77 525 84 588 c 1,42,43
 100.727436823 677.21299639 100.727436823 677.21299639 147.5 716 c 0,44,45
 188.347583643 749.873605948 188.347583643 749.873605948 226.5 736 c 0,46,47
 243 730 243 730 252 716 c 128,-1,48
 261 702 261 702 258 682 c 1,49,50
 259.705479452 620.602739726 259.705479452 620.602739726 257.352739726 590.801369863 c 0,51,52
 253.380530973 540.486725664 253.380530973 540.486725664 254.190265487 516.243362832 c 128,-1,53
 255 492 255 492 253.5 476.5 c 128,-1,54
 252 461 252 461 251.5 447.5 c 128,-1,55
 251 434 251 434 252.5 425.5 c 128,-1,56
 254 417 254 417 260 422 c 1,57,58
 282.912 470.688 282.912 470.688 298.956 492.844 c 128,-1,59
 315 515 315 515 333 539 c 1,60,61
 360.9225 563.6375 360.9225 563.6375 382.5 558.5 c 0,62,63
 393 556 393 556 405 550.5 c 128,-1,64
 417 545 417 545 437 541 c 1,65,66
 450 530 450 530 454 517 c 1,67,68
 457 514 457 514 460 511.5 c 128,-1,69
 463 509 463 509 464.5 505.5 c 128,-1,70
 466 502 466 502 469.5 490 c 128,-1,71
 473 478 473 478 477 464.5 c 128,-1,72
 481 451 481 451 484 438.5 c 128,-1,73
 487 426 487 426 488 422 c 1,0,1
512 3 m 2,74,75
 512 1 512 1 512.5 2.5 c 128,-1,76
 513 4 513 4 513 5.5 c 2,77,-1
 512 3 l 2,74,75
EndSplineSet
EndChar

StartChar: X
Encoding: 88 88 65
Width: 600
Flags: HW
LayerCount: 2
Fore
SplineSet
331 517 m 1,0,-1
 432 650 l 1,1,2
 421.07480315 680.590551181 421.07480315 680.590551181 440 715 c 1,3,4
 500.2 775.2 500.2 775.2 559 792 c 0,5,6
 623.86659065 809.464082098 623.86659065 809.464082098 673.5 790 c 0,7,8
 699 780 699 780 713 759 c 128,-1,9
 727 738 727 738 718 703 c 1,10,11
 693.793650794 651.35978836 693.793650794 651.35978836 621 572.5 c 0,12,13
 591 540 591 540 561 509 c 128,-1,14
 531 478 531 478 508.5 451 c 128,-1,15
 486 424 486 424 468 396.5 c 128,-1,16
 450 369 450 369 430 342 c 1,17,18
 439.737430168 299.804469274 439.737430168 299.804469274 473.368715084 211.402234637 c 128,-1,19
 507 123 507 123 520 77.5 c 128,-1,20
 533 32 533 32 535 -11 c 1,21,22
 531 -26 531 -26 523 -30 c 128,-1,23
 515 -34 515 -34 506.5 -35 c 128,-1,24
 498 -36 498 -36 491 -35.5 c 128,-1,25
 484 -35 484 -35 483 -41 c 1,26,27
 489 -52 489 -52 482 -61 c 128,-1,28
 475 -70 475 -70 461 -74.5 c 0,29,30
 427.584527221 -85.2406876791 427.584527221 -85.2406876791 393 -71 c 1,31,32
 358.122615804 -46.5858310627 358.122615804 -46.5858310627 324.5 19.5 c 0,33,34
 303.176470588 61.4117647059 303.176470588 61.4117647059 279 142 c 1,35,36
 259 115 259 115 243 86.5 c 128,-1,37
 227 58 227 58 210.5 31 c 0,38,39
 172 -32 172 -32 133 -58 c 1,40,41
 64.9285714286 -92.0357142857 64.9285714286 -92.0357142857 0 -74 c 1,42,43
 -56.3513043478 -44.1669565217 -56.3513043478 -44.1669565217 -22.5 42 c 0,44,45
 -10.7341772152 71.9493670886 -10.7341772152 71.9493670886 0 80 c 0,46,47
 5 85 5 85 5.5 85 c 128,-1,48
 6 85 6 85 6.5 86 c 128,-1,49
 7 87 7 87 9.5 91.5 c 128,-1,50
 12 96 12 96 21.5 110.5 c 0,51,52
 56.8674698795 164.481927711 56.8674698795 164.481927711 101 226 c 1,53,-1
 122 250.5 l 2,54,55
 137 268 137 268 153.5 288 c 0,56,57
 193.571428571 336.571428571 193.571428571 336.571428571 206 349 c 1,58,59
 164.964285714 444.75 164.964285714 444.75 156.482142857 480.375 c 0,60,61
 141.819742489 541.957081545 141.819742489 541.957081545 138 647 c 1,62,63
 126.949640288 672.784172662 126.949640288 672.784172662 158 711 c 0,64,65
 185.511627907 744.860465116 185.511627907 744.860465116 224.5 756 c 0,66,67
 265.80952381 767.802721088 265.80952381 767.802721088 279 732 c 0,68,69
 298 679 298 679 308.5 626.5 c 128,-1,70
 319 574 319 574 331 517 c 1,0,-1
EndSplineSet
EndChar

StartChar: Y
Encoding: 89 89 66
Width: 491
Flags: HW
LayerCount: 2
Fore
SplineSet
120 379 m 1,0,1
 103.214574899 524.473684211 103.214574899 524.473684211 106 615 c 1,2,3
 104.056910569 657.74796748 104.056910569 657.74796748 141 697 c 0,4,5
 176.194492255 734.394148021 176.194492255 734.394148021 214.5 737.5 c 0,6,7
 256.483673469 740.904081633 256.483673469 740.904081633 268 691 c 1,8,9
 276 663 276 663 288 626 c 128,-1,10
 300 589 300 589 311 548 c 1,11,12
 321.9 562.533333333 321.9 562.533333333 345.95 600.766666667 c 128,-1,13
 370 639 370 639 391 669 c 0,14,15
 441.842105263 741.631578947 441.842105263 741.631578947 481 771 c 1,16,17
 519.277310924 786.31092437 519.277310924 786.31092437 546.638655462 779.655462185 c 128,-1,18
 574 773 574 773 586.5 759 c 128,-1,19
 599 745 599 745 596 718 c 1,20,21
 593.96925442 655.04688701 593.96925442 655.04688701 500 520.5 c 0,22,23
 478 489 478 489 455.5 448 c 128,-1,24
 433 407 433 407 403.5 356.5 c 128,-1,25
 374 306 374 306 347 256.5 c 0,26,27
 285.155555556 143.118518519 285.155555556 143.118518519 250 41 c 1,28,29
 251 43 251 43 258 36.5 c 128,-1,30
 265 30 265 30 271 18.5 c 0,31,32
 286.702770781 -11.59697733 286.702770781 -11.59697733 268 -32 c 0,33,34
 219.965562053 -81.9558154646 219.965562053 -81.9558154646 149 -87.5 c 0,35,36
 84.1513812155 -92.5662983425 84.1513812155 -92.5662983425 37 -64.5 c 0,37,38
 -9.84615384615 -36.6153846154 -9.84615384615 -36.6153846154 6 3 c 1,39,-1
 3 3 l 1,40,41
 25 60 25 60 53 110.5 c 128,-1,42
 81 161 81 161 111 215 c 2,43,-1
 156 295 l 1,44,45
 138.923076923 291.205128205 138.923076923 291.205128205 128.5 319 c 0,46,47
 120 341.666666667 120 341.666666667 120 379 c 1,0,1
EndSplineSet
EndChar

StartChar: Z
Encoding: 90 90 67
Width: 561
Flags: HW
LayerCount: 2
Fore
SplineSet
454 126 m 1,0,1
 497 127 497 127 512 106 c 128,-1,2
 527 85 527 85 521.5 58 c 128,-1,3
 516 31 516 31 493.5 4.5 c 128,-1,4
 471 -22 471 -22 438 -32 c 1,5,6
 377.139874739 -58.6263048017 377.139874739 -58.6263048017 279.5 -68.5 c 0,7,8
 193.27064803 -77.2198221093 193.27064803 -77.2198221093 108 -66 c 0,9,10
 57.0063291139 -58.7151898734 57.0063291139 -58.7151898734 36.503164557 -40.8575949367 c 0,11,12
 -3.40823327616 -6.09605488851 -3.40823327616 -6.09605488851 2 57 c 0,13,14
 3.90186915888 87.4299065421 3.90186915888 87.4299065421 14.4509345794 105.714953271 c 0,15,16
 29.6478873239 132.056338028 29.6478873239 132.056338028 64.323943662 182.028169014 c 128,-1,17
 99 232 99 232 133.5 273 c 128,-1,18
 168 314 168 314 202 352 c 0,19,20
 335.097560976 500.756097561 335.097560976 500.756097561 359 539 c 0,21,22
 364 547 364 547 374 570 c 1,23,24
 283.329918033 548.913934426 283.329918033 548.913934426 191 573 c 0,25,26
 156 581.75 156 581.75 143 617.5 c 0,27,28
 128.733333333 656.733333333 128.733333333 656.733333333 163 691 c 1,29,30
 211.873873874 743.783783784 211.873873874 743.783783784 308 770 c 0,31,32
 397.660377358 794.452830189 397.660377358 794.452830189 488 788 c 1,33,34
 504 783 504 783 513 778.5 c 128,-1,35
 522 774 522 774 533 761 c 1,36,-1
 534 742 l 1,37,38
 539 740 539 740 550.5 738 c 128,-1,39
 562 736 562 736 568 733.5 c 128,-1,40
 574 731 574 731 581 726 c 128,-1,41
 588 721 588 721 593.5 712 c 0,42,43
 606 691.545454545 606 691.545454545 605.5 645.272727273 c 128,-1,44
 605 599 605 599 583.5 544.5 c 128,-1,45
 562 490 562 490 531 438 c 128,-1,46
 500 386 500 386 464.5 339.5 c 128,-1,47
 429 293 429 293 404 261 c 128,-1,48
 379 229 379 229 364.5 209.5 c 128,-1,49
 350 190 350 190 343 176.5 c 0,50,51
 329.535031847 150.531847134 329.535031847 150.531847134 345 137 c 1,52,-1
 454 126 l 1,0,1
466 124 m 1,53,-1
 457 124 l 1,54,-1
 466 124 l 1,53,-1
EndSplineSet
EndChar

StartChar: bracketleft
Encoding: 91 91 68
Width: 536
Flags: HW
LayerCount: 2
Fore
SplineSet
491 721 m 1,0,1
 414 712.894736842 414 712.894736842 414 711.947368421 c 128,-1,2
 414 711 414 711 413 711 c 1,3,-1
 413 709 l 1,4,-1
 397 691 l 1,5,-1
 377 678 l 1,6,7
 351 621 351 621 335 565 c 1,8,-1
 326 519 l 2,9,10
 318 481 318 481 308 439 c 128,-1,11
 298 397 298 397 288.5 354.5 c 0,12,13
 261.658354115 234.418952618 261.658354115 234.418952618 256.829177057 187.709476309 c 128,-1,14
 252 141 252 141 238.5 90 c 128,-1,15
 225 39 225 39 214 -8 c 1,16,17
 257 -2 257 -2 303 -3 c 128,-1,18
 349 -4 349 -4 381 -23.5 c 128,-1,19
 413 -43 413 -43 422 -69 c 128,-1,20
 431 -95 431 -95 412.5 -121.5 c 128,-1,21
 394 -148 394 -148 339 -164 c 1,22,23
 292 -157 292 -157 243.5 -163 c 128,-1,24
 195 -169 195 -169 147.5 -175 c 128,-1,25
 100 -181 100 -181 55 -181.5 c 128,-1,26
 10 -182 10 -182 -30 -163 c 0,27,28
 -30 -162 -30 -162 -31 -161 c 0,29,30
 -51 -124 -51 -124 -39.5 -97.5 c 128,-1,31
 -28 -71 -28 -71 0 -57 c 1,32,33
 19 31 19 31 41.5 123 c 128,-1,34
 64 215 64 215 86 309 c 0,35,36
 157.17 613.09 157.17 613.09 166.5 709.5 c 0,37,38
 172.173913043 768.130434783 172.173913043 768.130434783 177.586956522 783.565217391 c 128,-1,39
 183 799 183 799 187 805 c 128,-1,40
 191 811 191 811 192.5 812.5 c 128,-1,41
 194 814 194 814 195 816 c 1,42,43
 195 815 195 815 197 815 c 1,44,45
 207 827 207 827 221 838 c 1,46,47
 310.570093458 871.588785047 310.570093458 871.588785047 380 843 c 1,48,49
 425.333333333 837.666666667 425.333333333 837.666666667 428 835 c 1,50,-1
 438.5 835 l 2,51,52
 443 835 443 835 460.5 836.5 c 0,53,54
 515.76056338 841.236619718 515.76056338 841.236619718 554 829 c 1,55,56
 570 819 570 819 577 795 c 128,-1,57
 584 771 584 771 579 751 c 1,58,59
 562.897610922 723.395904437 562.897610922 723.395904437 515.5 721.5 c 0,60,61
 503 721 503 721 491 721 c 1,0,1
EndSplineSet
EndChar

StartChar: backslash
Encoding: 92 92 69
Width: 567
Flags: HW
LayerCount: 2
Fore
SplineSet
243 786 m 1,0,-1
 250 765 l 2,1,2
 263 727 263 727 272.5 686 c 128,-1,3
 282 645 282 645 300.5 577 c 128,-1,4
 319 509 319 509 348 418.5 c 128,-1,5
 377 328 377 328 405 239 c 0,6,7
 469.620633631 33.5987002437 469.620633631 33.5987002437 498 -130 c 1,8,9
 511 -171 511 -171 499 -199 c 128,-1,10
 487 -227 487 -227 465 -241 c 128,-1,11
 443 -255 443 -255 420 -253.5 c 128,-1,12
 397 -252 397 -252 389 -234 c 0,13,14
 329.937837838 -108.303603604 329.937837838 -108.303603604 251.5 129.5 c 0,15,16
 220 225 220 225 189 318.5 c 128,-1,17
 158 412 158 412 129.5 482 c 128,-1,18
 101 552 101 552 79.5 604.5 c 128,-1,19
 58 657 58 657 27 706 c 1,20,21
 5.50632911392 747.196202532 5.50632911392 747.196202532 25 774 c 1,22,23
 -0.5 825 -0.5 825 10 846 c 1,24,25
 44.8927789934 900.831509847 44.8927789934 900.831509847 111.5 894 c 0,26,27
 143.48 890.72 143.48 890.72 160 886 c 1,28,29
 213 862 213 862 231.5 835.5 c 128,-1,30
 250 809 250 809 243 786 c 1,0,-1
EndSplineSet
EndChar

StartChar: bracketright
Encoding: 93 93 70
Width: 545
Flags: HW
LayerCount: 2
Fore
SplineSet
305.5 435.5 m 128,-1,1
 317 485 317 485 326 522 c 128,-1,2
 335 559 335 559 338.5 580.5 c 128,-1,3
 342 602 342 602 346.5 627 c 0,4,5
 358.826086957 695.47826087 358.826086957 695.47826087 360.413043478 701.239130435 c 128,-1,6
 362 707 362 707 362 712 c 1,7,8
 342 708 342 708 319 708 c 128,-1,9
 296 708 296 708 272.5 709.5 c 128,-1,10
 249 711 249 711 225.5 713.5 c 128,-1,11
 202 716 202 716 175.5 717.5 c 128,-1,12
 149 719 149 719 125 729 c 128,-1,13
 101 739 101 739 92.5 755.5 c 0,14,15
 72.9359735974 793.477227723 72.9359735974 793.477227723 134 845 c 1,16,17
 209.119402985 873.616915423 209.119402985 873.616915423 313 869 c 0,18,19
 350 868 350 868 385 870.5 c 128,-1,20
 420 873 420 873 450 875 c 128,-1,21
 480 877 480 877 504.5 877 c 128,-1,22
 529 877 529 877 545.5 870 c 0,23,24
 580.183673469 855.285714286 580.183673469 855.285714286 573 805 c 0,25,26
 572 801 572 801 579 796 c 128,-1,27
 586 791 586 791 594.5 785 c 128,-1,28
 603 779 603 779 610 774 c 128,-1,29
 617 769 617 769 616 765 c 0,30,31
 524.217687075 494.242176871 524.217687075 494.242176871 389 5 c 1,32,33
 383 -24 383 -24 378 -52 c 128,-1,34
 373 -80 373 -80 366.5 -104 c 0,35,36
 351.588235294 -159.058823529 351.588235294 -159.058823529 326 -171 c 0,37,38
 279.135 -192.63 279.135 -192.63 159.5 -196 c 0,39,40
 84.5010366275 -198.112646856 84.5010366275 -198.112646856 36.5 -179.5 c 0,41,42
 12 -170 12 -170 1 -154 c 1,43,44
 -9 -137 -9 -137 -4.5 -126 c 128,-1,45
 0 -115 0 -115 14 -103 c 1,46,47
 41.7037037037 -86.7037037037 41.7037037037 -86.7037037037 84.3518518519 -80.3518518519 c 128,-1,48
 127 -74 127 -74 144.5 -71.5 c 128,-1,49
 162 -69 162 -69 165 -65 c 0,50,51
 191.056338028 -25.9154929577 191.056338028 -25.9154929577 223.5 90.5 c 0,52,53
 232 121 232 121 243 164.5 c 128,-1,54
 254 208 254 208 264 253.5 c 128,-1,55
 274 299 274 299 284 342.5 c 128,-1,0
 294 386 294 386 305.5 435.5 c 128,-1,1
EndSplineSet
EndChar

StartChar: asciicircum
Encoding: 94 94 71
Width: 539
Flags: HW
LayerCount: 2
Fore
SplineSet
454 770 m 1,0,-1
 457 746 l 1,1,2
 485.490322581 671.212903226 485.490322581 671.212903226 505 578 c 1,3,4
 515 554 515 554 526.5 524.5 c 128,-1,5
 538 495 538 495 540 468 c 0,6,7
 544.688391039 404.706720978 544.688391039 404.706720978 482 396 c 1,8,9
 456 394 456 394 434 400 c 128,-1,10
 412 406 412 406 399 431 c 1,11,12
 397 442 397 442 397.5 452 c 128,-1,13
 398 462 398 462 398 473 c 1,14,15
 390 502 390 502 372.5 529 c 128,-1,16
 355 556 355 556 339 582 c 1,17,18
 296.25 525.75 296.25 525.75 256 489 c 1,19,20
 201 456 201 456 144 460 c 1,21,22
 79.119760479 455.674650699 79.119760479 455.674650699 41 488.5 c 0,23,24
 -0.306493506494 524.069480519 -0.306493506494 524.069480519 30 579 c 1,25,26
 100 663 100 663 135 698 c 0,27,28
 198.111111111 761.111111111 198.111111111 761.111111111 268 814 c 0,29,30
 277 821 277 821 287 829.5 c 128,-1,31
 297 838 297 838 308 845.5 c 0,32,33
 334.316455696 863.443037975 334.316455696 863.443037975 361.158227848 866.721518987 c 128,-1,34
 388 870 388 870 417 865.5 c 128,-1,35
 446 861 446 861 469 832 c 1,36,37
 482.925925926 798.925925926 482.925925926 798.925925926 454 770 c 1,0,-1
EndSplineSet
EndChar

StartChar: underscore
Encoding: 95 95 72
Width: 833
Flags: HW
LayerCount: 2
Fore
SplineSet
319 21 m 1,0,1
 361 24 361 24 465.333333333 24 c 128,-1,2
 569.666666667 24 569.666666667 24 742 13 c 1,3,4
 768 6 768 6 787 -16 c 128,-1,5
 806 -38 806 -38 809 -64 c 128,-1,6
 812 -90 812 -90 794.5 -114 c 128,-1,7
 777 -138 777 -138 731 -147 c 0,8,9
 716 -149 716 -149 704 -152 c 128,-1,10
 692 -155 692 -155 680 -158 c 0,11,12
 654.24 -164.44 654.24 -164.44 625 -161 c 1,13,14
 533 -161 533 -161 470 -161 c 128,-1,15
 407 -161 407 -161 374.5 -161.5 c 128,-1,16
 342 -162 342 -162 297.5 -163.5 c 128,-1,17
 253 -165 253 -165 189.5 -167.5 c 128,-1,18
 126 -170 126 -170 30 -173 c 1,19,20
 -20 -165 -20 -165 -41 -148 c 128,-1,21
 -62 -131 -62 -131 -61 -110.5 c 128,-1,22
 -60 -90 -60 -90 -38.5 -70 c 128,-1,23
 -17 -50 -17 -50 19 -35 c 1,24,25
 1 13 1 13 48 33 c 1,26,27
 76.8865979381 42.6288659794 76.8865979381 42.6288659794 243 32.5 c 0,28,29
 331.731343284 27.0895522388 331.731343284 27.0895522388 344 23 c 0,30,31
 350 21 350 21 319 21 c 1,0,1
EndSplineSet
EndChar

StartChar: grave
Encoding: 96 96 73
Width: 282
Flags: HW
LayerCount: 2
Fore
SplineSet
44 799 m 1,0,1
 34.8507734304 848.405823476 34.8507734304 848.405823476 78.5 872 c 0,2,3
 115.681017613 892.097847358 115.681017613 892.097847358 163 885 c 1,4,5
 192 884 192 884 218 870 c 128,-1,6
 244 856 244 856 255 830 c 1,7,8
 247.288135593 803.779661017 247.288135593 803.779661017 248.144067797 776.389830508 c 0,9,10
 250.020408163 716.346938776 250.020408163 716.346938776 249.010204082 698.173469388 c 128,-1,11
 248 680 248 680 237 671 c 128,-1,12
 226 662 226 662 211.5 660 c 0,13,14
 182.259668508 655.966850829 182.259668508 655.966850829 157 670 c 1,15,16
 152 680 152 680 148 684 c 1,17,18
 144 685 144 685 142 690.5 c 0,19,20
 138.285714286 700.714285714 138.285714286 700.714285714 116.142857143 722.857142857 c 2,21,-1
 80 759 l 1,22,23
 65 766.5 65 766.5 60.5 771.75 c 0,24,25
 52.5714285714 781 52.5714285714 781 44 793 c 1,26,-1
 43 798 l 1,27,-1
 44 799 l 1,0,1
EndSplineSet
EndChar

StartChar: a
Encoding: 97 97 74
Width: 536
Flags: HW
LayerCount: 2
Fore
SplineSet
458 429 m 1,0,-1
 462 428 l 2,1,2
 464 428 464 428 464 427 c 1,3,4
 489.789473684 437.315789474 489.789473684 437.315789474 507 411.5 c 0,5,6
 518.222222222 394.666666667 518.222222222 394.666666667 524 360 c 1,7,8
 525.609856263 311.704312115 525.609856263 311.704312115 514.304928131 227.352156057 c 0,9,10
 491.193877551 54.9081632653 491.193877551 54.9081632653 489 22 c 1,11,12
 490.858543417 -13.31232493 490.858543417 -13.31232493 446.5 -26.5 c 0,13,14
 406.531966224 -38.3823884198 406.531966224 -38.3823884198 367.5 -25 c 0,15,16
 326.743421053 -11.0263157895 326.743421053 -11.0263157895 334 18 c 1,17,18
 326 3 326 3 318 -3.5 c 128,-1,19
 310 -10 310 -10 286.5 -21.5 c 128,-1,20
 263 -33 263 -33 220 -40.5 c 128,-1,21
 177 -48 177 -48 134 -44.5 c 128,-1,22
 91 -41 91 -41 55.5 -23.5 c 128,-1,23
 20 -6 20 -6 8 31 c 0,24,25
 -14.7667087011 103.094577554 -14.7667087011 103.094577554 14.5 214 c 0,26,27
 33.823215477 287.224816544 33.823215477 287.224816544 86 343 c 0,28,29
 145.732864675 406.852372583 145.732864675 406.852372583 222 449 c 0,30,31
 278.6048 480.2816 278.6048 480.2816 331.5 486 c 0,32,33
 350 488 350 488 363.5 485 c 128,-1,34
 377 482 377 482 392.5 479 c 128,-1,35
 408 476 408 476 422.5 470 c 0,36,37
 458 455.310344828 458 455.310344828 458 429 c 1,0,-1
273 163.5 m 1,38,39
 279.778555139 177.581353638 279.778555139 177.581353638 284.389277569 198.790676819 c 128,-1,40
 289 220 289 220 297 245 c 1,41,42
 216.399061033 212.323943662 216.399061033 212.323943662 173 163.5 c 0,43,44
 126.318051576 110.982808023 126.318051576 110.982808023 179 91 c 1,45,46
 225.056194125 78.6002554278 225.056194125 78.6002554278 245.5 105.5 c 0,47,48
 255 118 255 118 262 136 c 128,-1,49
 269 154 269 154 279 173 c 1,50,51
 276 168 276 168 273 163.5 c 1,38,39
EndSplineSet
EndChar

StartChar: b
Encoding: 98 98 75
Width: 530
Flags: HW
LayerCount: 2
Fore
SplineSet
191 -3 m 1,0,-1
 166 -26 l 1,1,2
 146 -40 146 -40 127 -43 c 1,3,-1
 128 -44 l 1,4,-1
 123 -48 l 1,5,6
 52.4591611479 -54.0463576159 52.4591611479 -54.0463576159 18.5 -17 c 0,7,8
 -16.8305084746 21.5423728814 -16.8305084746 21.5423728814 3 85 c 1,9,10
 46.7075757576 333.796969697 46.7075757576 333.796969697 125.5 547 c 0,11,12
 178.829545455 691.303475936 178.829545455 691.303475936 228.5 740 c 0,13,14
 254 765 254 765 276 755 c 1,15,16
 282 779 282 779 297 792.5 c 128,-1,17
 312 806 312 806 330 808.5 c 128,-1,18
 348 811 348 811 365 802.5 c 128,-1,19
 382 794 382 794 391.5 772 c 128,-1,20
 401 750 401 750 399.5 729.5 c 128,-1,21
 398 709 398 709 390.5 689.5 c 128,-1,22
 383 670 383 670 372.5 651 c 128,-1,23
 362 632 362 632 353 613 c 1,24,25
 289.16 458.72 289.16 458.72 262 385 c 1,26,-1
 271 391 l 2,27,28
 337.080536913 435.053691275 337.080536913 435.053691275 411.5 429.5 c 0,29,30
 445 427 445 427 471.5 412.5 c 128,-1,31
 498 398 498 398 510.5 369 c 128,-1,32
 523 340 523 340 520.5 294.5 c 128,-1,33
 518 249 518 249 503 200.5 c 128,-1,34
 488 152 488 152 462.5 106 c 128,-1,35
 437 60 437 60 406 26 c 0,36,37
 335.753069577 -51.0450204638 335.753069577 -51.0450204638 271 -32 c 1,38,39
 243.25462963 -36.2685185185 243.25462963 -36.2685185185 206.5 -6 c 0,40,41
 198 1 198 1 191 5 c 1,42,-1
 191 -3 l 1,0,-1
218 69 m 1,43,44
 233.263157895 85.7894736842 233.263157895 85.7894736842 269.631578947 132.894736842 c 128,-1,45
 306 180 306 180 318.5 206.5 c 128,-1,46
 331 233 331 233 312 256 c 0,47,48
 293.306818182 280.034090909 293.306818182 280.034090909 264.5 220.5 c 0,49,50
 218 124.4 218 124.4 218 69 c 1,43,44
EndSplineSet
EndChar

StartChar: c
Encoding: 99 99 76
Width: 445
Flags: HW
LayerCount: 2
Fore
SplineSet
410 491 m 0,0,1
 449 486 449 486 462.5 463.5 c 128,-1,2
 476 441 476 441 473 415.5 c 128,-1,3
 470 390 470 390 454.5 369.5 c 128,-1,4
 439 349 439 349 420 348 c 1,5,6
 413 327 413 327 398 319 c 128,-1,7
 383 311 383 311 365 308 c 128,-1,8
 347 305 347 305 327.5 301.5 c 128,-1,9
 308 298 308 298 291 284 c 128,-1,10
 274 270 274 270 262.5 256.5 c 128,-1,11
 251 243 251 243 244 230.5 c 0,12,13
 231.654545455 208.454545455 231.654545455 208.454545455 223 176 c 1,14,15
 220.758064516 153.580645161 220.758064516 153.580645161 244.5 135 c 0,16,17
 271.123287671 114.164383562 271.123287671 114.164383562 303.061643836 116.582191781 c 128,-1,18
 335 119 335 119 354.5 113.5 c 128,-1,19
 374 108 374 108 384 97.5 c 0,20,21
 405.578947368 74.8421052632 405.578947368 74.8421052632 380 45 c 1,22,23
 329.566666667 -35.1 329.566666667 -35.1 211.5 -50.5 c 0,24,25
 177 -55 177 -55 142 -52.5 c 128,-1,26
 107 -50 107 -50 74 -26 c 128,-1,27
 41 -2 41 -2 22.5 39 c 0,28,29
 -20.0896370791 133.387844338 -20.0896370791 133.387844338 29 258 c 0,30,31
 75.6457142857 374.614285714 75.6457142857 374.614285714 170 438.5 c 0,32,33
 273.157510495 508.346231064 273.157510495 508.346231064 410 491 c 0,0,1
EndSplineSet
EndChar

StartChar: d
Encoding: 100 100 77
Width: 542
Flags: HW
LayerCount: 2
Fore
SplineSet
203 409 m 1,0,1
 240.135135135 433.756756757 240.135135135 433.756756757 288 423.5 c 0,2,3
 336.153488372 413.181395349 336.153488372 413.181395349 342 382 c 1,4,5
 349.5 400.75 349.5 400.75 353.75 419.875 c 0,6,7
 398.837209302 622.76744186 398.837209302 622.76744186 453 729.5 c 0,8,9
 470 763 470 763 488 776 c 1,10,11
 535.192513369 806.203208556 535.192513369 806.203208556 587 784 c 0,12,13
 608 775 608 775 620 759.5 c 128,-1,14
 632 744 632 744 629.5 731 c 128,-1,15
 627 718 627 718 631.5 710 c 128,-1,16
 636 702 636 702 642 694.5 c 0,17,18
 657.76 674.8 657.76 674.8 655 661 c 0,19,20
 635 582 635 582 601.5 497.5 c 128,-1,21
 568 413 568 413 533 329 c 128,-1,22
 498 245 498 245 469.5 163.5 c 128,-1,23
 441 82 441 82 432 9 c 1,24,25
 432 -10 432 -10 416 -25.5 c 128,-1,26
 400 -41 400 -41 376 -49.5 c 0,27,28
 319.270738377 -69.5916134913 319.270738377 -69.5916134913 270 -42 c 1,29,-1
 270 -36 l 1,30,31
 260 -33 260 -33 255.5 -32 c 128,-1,32
 251 -31 251 -31 249 -28 c 0,33,34
 245.740740741 -23.1111111111 245.740740741 -23.1111111111 244 3 c 1,35,36
 224.459770115 -28.2643678161 224.459770115 -28.2643678161 205.229885057 -35.132183908 c 128,-1,37
 186 -42 186 -42 166.5 -42 c 0,38,39
 68.75 -42 68.75 -42 27.5 -7 c 0,40,41
 -7.88815789474 23.0263157895 -7.88815789474 23.0263157895 -6 91 c 0,42,43
 -3.69945684973 166.917923959 -3.69945684973 166.917923959 50.5 261 c 0,44,45
 112.301615799 368.278276481 112.301615799 368.278276481 203 409 c 1,0,1
202 81 m 1,46,47
 233.714285714 70.4285714286 233.714285714 70.4285714286 246.5 96 c 0,48,49
 253 109 253 109 259.5 130 c 128,-1,50
 266 151 266 151 276 179 c 1,51,-1
 280 199 l 1,52,53
 256 213 256 213 236.5 203 c 128,-1,54
 217 193 217 193 205 172 c 128,-1,55
 193 151 193 151 191 125 c 128,-1,56
 189 99 189 99 202 81 c 1,46,47
EndSplineSet
EndChar

StartChar: e
Encoding: 101 101 78
Width: 482
Flags: HW
LayerCount: 2
Fore
SplineSet
349 148.5 m 0,0,1
 330 139 330 139 312 134 c 128,-1,2
 294 129 294 129 270.5 124 c 0,3,4
 207.421052632 110.578947368 207.421052632 110.578947368 179 109 c 1,5,6
 181.571428571 98.7142857143 181.571428571 98.7142857143 209 85 c 1,7,8
 227 82 227 82 248.5 90.5 c 128,-1,9
 270 99 270 99 293.5 106.5 c 128,-1,10
 317 114 317 114 339.5 115 c 128,-1,11
 362 116 362 116 382 98 c 1,12,13
 390 80 390 80 395 77 c 128,-1,14
 400 74 400 74 404 74 c 128,-1,15
 408 74 408 74 413 71 c 128,-1,16
 418 68 418 68 427.5 48 c 128,-1,17
 437 28 437 28 422.5 10 c 128,-1,18
 408 -8 408 -8 378 -21 c 128,-1,19
 348 -34 348 -34 308 -42 c 128,-1,20
 268 -50 268 -50 227.5 -53 c 0,21,22
 138.382911392 -59.6012658228 138.382911392 -59.6012658228 91 -39 c 1,23,24
 22.8214285714 -16.2738095238 22.8214285714 -16.2738095238 3 52 c 0,25,26
 -23.1589319771 142.102987921 -23.1589319771 142.102987921 31.5 262 c 0,27,28
 57.2434782609 318.469565217 57.2434782609 318.469565217 111 382 c 0,29,30
 158.106870229 437.671755725 158.106870229 437.671755725 216 463 c 0,31,32
 282.513409962 492.099616858 282.513409962 492.099616858 356 490 c 0,33,34
 434.37742869 487.760644895 434.37742869 487.760644895 463.5 422 c 0,35,36
 479 387 479 387 470 324 c 1,37,38
 454.078431373 242.401960784 454.078431373 242.401960784 428 208.5 c 0,39,40
 402.375 175.1875 402.375 175.1875 349 148.5 c 0,0,1
291 306 m 1,41,42
 238.051886792 316.589622642 238.051886792 316.589622642 207.5 246.5 c 0,43,44
 199 227 199 227 194 206 c 1,45,46
 228.477372263 202.37080292 228.477372263 202.37080292 265.5 244.5 c 0,47,48
 280 261 280 261 287 278.5 c 128,-1,49
 294 296 294 296 291 306 c 1,41,42
EndSplineSet
EndChar

StartChar: f
Encoding: 102 102 79
Width: 436
Flags: HW
LayerCount: 2
Fore
SplineSet
345 458 m 1,0,1
 382.515873016 470.936507937 382.515873016 470.936507937 461 476 c 1,2,3
 479.072289157 465.959839357 479.072289157 465.959839357 475.5 435 c 128,-1,4
 471.915254237 403.93220339 471.915254237 403.93220339 452 388 c 1,5,6
 428.488038278 351.827751196 428.488038278 351.827751196 401 339 c 0,7,8
 386 332 386 332 364.5 326.5 c 128,-1,9
 343 321 343 321 312 312 c 1,10,11
 291.541666667 255.739583333 291.541666667 255.739583333 267.270833333 159.869791667 c 128,-1,12
 243 64 243 64 233 32 c 0,13,14
 209.976744186 -41.6744186047 209.976744186 -41.6744186047 200 -45 c 1,15,16
 177 -81 177 -81 149.5 -90 c 128,-1,17
 122 -99 122 -99 99 -90.5 c 128,-1,18
 76 -82 76 -82 63.5 -60.5 c 128,-1,19
 51 -39 51 -39 58 -15 c 1,20,21
 55.0827586207 9.79655172414 55.0827586207 9.79655172414 67.0413793103 124.898275862 c 128,-1,22
 79 240 79 240 79 257 c 1,23,24
 75 261 75 261 69 262 c 128,-1,25
 63 263 63 263 61 267 c 1,26,27
 51.693877551 270.489795918 51.693877551 270.489795918 46.8469387755 278.244897959 c 0,28,29
 38.1111111111 292.222222222 38.1111111111 292.222222222 28 298 c 1,30,31
 10 296 10 296 -1.5 308.5 c 128,-1,32
 -13 321 -13 321 -13 338 c 128,-1,33
 -13 355 -13 355 -1 373 c 128,-1,34
 11 391 11 391 40 401 c 2,35,-1
 142 433 l 1,36,37
 153.550898204 513.856287425 153.550898204 513.856287425 217.5 617 c 0,38,39
 233 642 233 642 250.5 670.5 c 128,-1,40
 268 699 268 699 299 723.5 c 128,-1,41
 330 748 330 748 363.5 761.5 c 128,-1,42
 397 775 397 775 431.5 778 c 128,-1,43
 466 781 466 781 495 777 c 0,44,45
 556.488721805 768.518796992 556.488721805 768.518796992 576 736 c 0,46,47
 600 694 600 694 597.5 660.5 c 128,-1,48
 595 627 595 627 570 610 c 0,49,50
 530.407407407 583.604938272 530.407407407 583.604938272 501.5 601.5 c 0,51,52
 491 608 491 608 486 622 c 128,-1,53
 481 636 481 636 467 632 c 128,-1,54
 453 628 453 628 435 613.5 c 128,-1,55
 417 599 417 599 398.5 577 c 128,-1,56
 380 555 380 555 365.5 532.5 c 0,57,58
 331.331230284 479.479495268 331.331230284 479.479495268 345 458 c 1,0,1
EndSplineSet
EndChar

StartChar: g
Encoding: 103 103 80
Width: 542
Flags: HW
LayerCount: 2
Fore
SplineSet
419 399 m 1,0,1
 436.222222222 430 436.222222222 430 464 430 c 1,2,3
 506.851351351 405.513513514 506.851351351 405.513513514 518 352 c 0,4,5
 529.236162362 298.066420664 529.236162362 298.066420664 494 255 c 0,6,7
 492.6 253.6 492.6 253.6 495.3 238.3 c 0,8,9
 513 138 513 138 481.5 30 c 0,10,11
 471 -6 471 -6 456.5 -37 c 128,-1,12
 442 -68 442 -68 420.5 -115 c 128,-1,13
 399 -162 399 -162 360 -208 c 128,-1,14
 321 -254 321 -254 272.5 -281 c 0,15,16
 168.885094955 -338.682524458 168.885094955 -338.682524458 42 -306 c 1,17,18
 -3.88607594937 -287.64556962 -3.88607594937 -287.64556962 -22 -264.5 c 0,19,20
 -44.8863361548 -235.256348247 -44.8863361548 -235.256348247 -38.5 -201.5 c 0,21,22
 -30.8253861652 -160.934184016 -30.8253861652 -160.934184016 9.5 -157 c 0,23,24
 30 -155 30 -155 60 -172 c 1,25,26
 93.9931972789 -179.156462585 93.9931972789 -179.156462585 114.996598639 -171.078231293 c 128,-1,27
 136 -163 136 -163 148.5 -156.5 c 128,-1,28
 161 -150 161 -150 180.5 -140 c 0,29,30
 213.279569892 -123.189964158 213.279569892 -123.189964158 255 -62 c 0,31,32
 277.721311475 -29.5409836066 277.721311475 -29.5409836066 301 24 c 1,33,34
 263.694038245 -23.2542182227 263.694038245 -23.2542182227 183 -21.5 c 0,35,36
 160 -21 160 -21 131.5 -20 c 128,-1,37
 103 -19 103 -19 80 -1 c 128,-1,38
 57 17 57 17 43 46 c 128,-1,39
 29 75 29 75 24.5 112.5 c 128,-1,40
 20 150 20 150 24.5 189 c 0,41,42
 40.2420461634 325.43106675 40.2420461634 325.43106675 138 404.5 c 0,43,44
 205.194312796 458.848341232 205.194312796 458.848341232 282 463 c 0,45,46
 319 465 319 465 352 455 c 1,47,48
 391.765957447 439.85106383 391.765957447 439.85106383 419 399 c 1,0,1
297 172 m 1,49,50
 297 175 297 175 298 177 c 1,51,52
 293 179 293 179 288 180.5 c 128,-1,53
 283 182 283 182 270 186 c 128,-1,54
 257 190 257 190 235 181.5 c 128,-1,55
 213 173 213 173 196.5 158.5 c 128,-1,56
 180 144 180 144 170.5 128 c 128,-1,57
 161 112 161 112 167.5 101 c 128,-1,58
 174 90 174 90 191 92.5 c 128,-1,59
 208 95 208 95 227.5 107 c 0,60,61
 271.869565217 134.304347826 271.869565217 134.304347826 297 172 c 1,49,50
EndSplineSet
EndChar

StartChar: h
Encoding: 104 104 81
Width: 591
Flags: HW
LayerCount: 2
Fore
SplineSet
542 107 m 1,0,1
 542 54 542 54 555 15 c 1,2,3
 555 -17 555 -17 540 -30.5 c 128,-1,4
 525 -44 525 -44 502.5 -44.5 c 128,-1,5
 480 -45 480 -45 455 -35.5 c 128,-1,6
 430 -26 430 -26 412.5 -12 c 128,-1,7
 395 2 395 2 390 10.5 c 128,-1,8
 385 19 385 19 374 36 c 1,9,10
 357.463687151 115.374301676 357.463687151 115.374301676 358.231843575 139.187150838 c 128,-1,11
 359 163 359 163 362 180 c 1,12,13
 311.6 153.6 311.6 153.6 292.8 134.8 c 0,14,15
 257.705882353 99.7058823529 257.705882353 99.7058823529 234 45 c 1,16,17
 225.836734694 0.918367346939 225.836734694 0.918367346939 220.918367347 -1.54081632653 c 128,-1,18
 216 -4 216 -4 208 -5 c 128,-1,19
 200 -6 200 -6 191 -12 c 128,-1,20
 182 -18 182 -18 174 -22 c 128,-1,21
 166 -26 166 -26 158 -30.5 c 0,22,23
 139.333333333 -41 139.333333333 -41 133 -41 c 1,24,25
 75.9879518072 -59.3253012048 75.9879518072 -59.3253012048 24.5 -25 c 0,26,27
 2 -10 2 -10 -10 13.5 c 128,-1,28
 -22 37 -22 37 -16 64 c 0,29,30
 27.1877256318 249.090252708 27.1877256318 249.090252708 102 441 c 0,31,32
 147.792792793 558.468468468 147.792792793 558.468468468 190 626 c 0,33,34
 200 642 200 642 210 659.5 c 0,35,36
 230.666666667 695.666666667 230.666666667 695.666666667 239 709 c 1,37,38
 229 735 229 735 239.5 754.5 c 128,-1,39
 250 774 250 774 271.5 785.5 c 128,-1,40
 293 797 293 797 321 801 c 128,-1,41
 349 805 349 805 374.5 801.5 c 0,42,43
 434.168986083 793.310139165 434.168986083 793.310139165 438 755 c 1,44,45
 432 737 432 737 421.5 712 c 128,-1,46
 411 687 411 687 400.5 661.5 c 128,-1,47
 390 636 390 636 380.5 614 c 128,-1,48
 371 592 371 592 366.5 581.5 c 128,-1,49
 362 571 362 571 353.5 545.5 c 128,-1,50
 345 520 345 520 335.5 490.5 c 128,-1,51
 326 461 326 461 317.5 435.5 c 2,52,-1
 306 401 l 2,53,54
 302 387 302 387 293 358.5 c 128,-1,55
 284 330 284 330 274 288 c 1,56,57
 287 298 287 298 295.5 311.5 c 128,-1,58
 304 325 304 325 320.5 342 c 128,-1,59
 337 359 337 359 363.5 375.5 c 128,-1,60
 390 392 390 392 419.5 397 c 0,61,62
 484.913043478 408.086956522 484.913043478 408.086956522 538 355 c 0,63,64
 577.615384615 315.384615385 577.615384615 315.384615385 563 235 c 0,65,66
 557 202 557 202 548.5 168.5 c 128,-1,67
 540 135 540 135 542 107 c 1,0,1
EndSplineSet
EndChar

StartChar: i
Encoding: 105 105 82
Width: 321
Flags: HW
LayerCount: 2
Fore
SplineSet
132 433 m 1,0,1
 144.744619799 465.771879484 144.744619799 465.771879484 194.5 478.5 c 0,2,3
 239.694747275 490.061446977 239.694747275 490.061446977 279.5 475 c 0,4,5
 320.827633379 459.3625171 320.827633379 459.3625171 317 423 c 1,6,7
 306 388 306 388 289.5 337.5 c 128,-1,8
 273 287 273 287 257.5 233.5 c 0,9,10
 218.209302326 97.8837209302 218.209302326 97.8837209302 212 42 c 1,11,12
 197 -48 197 -48 162 -55 c 0,13,14
 152 -57 152 -57 143 -57.5 c 0,15,16
 120.815286624 -58.7324840764 120.815286624 -58.7324840764 114.907643312 -69.8662420382 c 128,-1,17
 109 -81 109 -81 95 -86.5 c 128,-1,18
 81 -92 81 -92 64.5 -91.5 c 128,-1,19
 48 -91 48 -91 31 -83.5 c 128,-1,20
 14 -76 14 -76 2 -61.5 c 0,21,22
 -25.5940298507 -28.1572139303 -25.5940298507 -28.1572139303 -9 29 c 1,23,24
 7.32102272727 137.806818182 7.32102272727 137.806818182 71.5 306 c 0,25,26
 102.983086681 388.507399577 102.983086681 388.507399577 132 433 c 1,0,1
321 583 m 1,27,28
 272.293532338 573.258706468 272.293532338 573.258706468 241.646766169 589.129353234 c 128,-1,29
 211 605 211 605 206 627.5 c 128,-1,30
 201 650 201 650 219.5 674.5 c 0,31,32
 241.913461538 704.182692308 241.913461538 704.182692308 286 713 c 1,33,34
 306 715 306 715 315 715 c 128,-1,35
 324 715 324 715 337 711 c 1,36,37
 369.78021978 707.549450549 369.78021978 707.549450549 380 682 c 1,38,39
 394 660 394 660 382.5 632 c 128,-1,40
 371 604 371 604 321 583 c 1,27,28
EndSplineSet
EndChar

StartChar: j
Encoding: 106 106 83
Width: 358
Flags: HW
LayerCount: 2
Fore
SplineSet
100 200 m 1,0,1
 122.84 291.36 122.84 291.36 137.42 322.68 c 0,2,3
 168.903361345 390.31092437 168.903361345 390.31092437 227 422 c 1,4,5
 251.458333333 442.381944444 251.458333333 442.381944444 275.729166667 443.190972222 c 0,6,7
 320.033222591 444.667774086 320.033222591 444.667774086 322.016611296 425.833887043 c 128,-1,8
 324 407 324 407 330.5 401 c 128,-1,9
 337 395 337 395 344.5 390.5 c 128,-1,10
 352 386 352 386 358.5 377.5 c 128,-1,11
 365 369 365 369 367 345 c 1,12,13
 224.196226415 -182.275471698 224.196226415 -182.275471698 58 -261 c 0,14,15
 -18.6366322009 -296.370753323 -18.6366322009 -296.370753323 -103 -277.5 c 0,16,17
 -183.307363275 -259.536510846 -183.307363275 -259.536510846 -216.5 -206 c 0,18,19
 -251.651105651 -149.304668305 -251.651105651 -149.304668305 -197 -89 c 1,20,21
 -170.135678392 -57.2512562814 -170.135678392 -57.2512562814 -123.5 -75.5 c 0,22,23
 -112 -80 -112 -80 -103 -84 c 1,24,25
 -86.0769230769 -95.8461538462 -86.0769230769 -95.8461538462 -81.5384615385 -104.923076923 c 128,-1,26
 -77 -114 -77 -114 -74.5 -121 c 128,-1,27
 -72 -128 -72 -128 -66 -137 c 1,28,29
 -59 -141.2 -59 -141.2 -48 -150 c 1,30,31
 -42 -147 -42 -147 -40 -145 c 2,32,-1
 -18 -119 l 1,33,34
 -1 -88 -1 -88 10 -61.5 c 128,-1,35
 21 -35 21 -35 33 -5.5 c 128,-1,36
 45 24 45 24 55 52 c 128,-1,37
 65 80 65 80 71.5 102.5 c 128,-1,38
 78 125 78 125 84 146.5 c 128,-1,39
 90 168 90 168 100 200 c 1,0,1
237 656 m 1,40,41
 269.555956679 719.303249097 269.555956679 719.303249097 327 720.5 c 0,42,43
 376.6587473 721.534557235 376.6587473 721.534557235 408 679 c 0,44,45
 440.149090909 635.369090909 440.149090909 635.369090909 417 591 c 256,46,47
 394.565217391 548 394.565217391 548 342.5 548 c 0,48,49
 294.133333333 548 294.133333333 548 260 580 c 0,50,51
 222.237288136 615.402542373 222.237288136 615.402542373 237 656 c 1,40,41
EndSplineSet
EndChar

StartChar: k
Encoding: 107 107 84
Width: 476
Flags: HW
LayerCount: 2
Fore
SplineSet
197 785 m 1,0,1
 219 812 219 812 250 815 c 128,-1,2
 281 818 281 818 310 805.5 c 128,-1,3
 339 793 339 793 359.5 767.5 c 128,-1,4
 380 742 380 742 382 711 c 1,5,-1
 373 682 l 1,6,7
 384 669 384 669 392.5 661 c 128,-1,8
 401 653 401 653 402 636 c 1,9,10
 408.027247956 622.438692098 408.027247956 622.438692098 352 525 c 0,11,12
 329 485 329 485 303.5 441.5 c 128,-1,13
 278 398 278 398 262 364 c 1,14,15
 274 367 274 367 286 369 c 128,-1,16
 298 371 298 371 310 374 c 256,17,18
 384.424242424 392.606060606 384.424242424 392.606060606 410.212121212 393.303030303 c 128,-1,19
 436 394 436 394 453 387.5 c 0,20,21
 499.427148194 369.748443337 499.427148194 369.748443337 501 332 c 1,22,23
 486.802816901 298.873239437 486.802816901 298.873239437 396 240.5 c 0,24,25
 375 227 375 227 362 218 c 2,26,-1
 275 156 l 1,27,28
 268.25 144.75 268.25 144.75 265 135 c 1,29,-1
 265 134 l 1,30,31
 266.761904762 128.714285714 266.761904762 128.714285714 290.380952381 119.857142857 c 128,-1,32
 314 111 314 111 331 103.5 c 0,33,34
 371.263157895 85.7368421053 371.263157895 85.7368421053 402 55 c 0,35,36
 412 44 412 44 415 22.5 c 128,-1,37
 418 1 418 1 408.5 -17 c 128,-1,38
 399 -35 399 -35 375 -43 c 128,-1,39
 351 -51 351 -51 308 -36 c 1,40,41
 245.090375587 -7.58920187793 245.090375587 -7.58920187793 159 89 c 1,42,43
 149 54 149 54 139.5 20.5 c 128,-1,44
 130 -13 130 -13 119 -48 c 1,45,46
 104 -81.75 104 -81.75 49 -80.5 c 0,47,48
 27 -80 27 -80 9.5 -71 c 128,-1,49
 -8 -62 -8 -62 -11 -47 c 1,50,51
 -19 -25 -19 -25 -19 -14.5 c 128,-1,52
 -19 -4 -19 -4 -13.5 10 c 0,53,54
 9.09230769231 67.5076923077 9.09230769231 67.5076923077 15.0461538462 102.253846154 c 128,-1,55
 21 137 21 137 23 143 c 1,56,57
 -4.74013921114 160.832946636 -4.74013921114 160.832946636 -10.5 200 c 0,58,59
 -16.0745341615 237.906832298 -16.0745341615 237.906832298 8 268 c 1,60,61
 40 279.636363636 40 279.636363636 54 286 c 1,62,63
 60.2666666667 323.6 60.2666666667 323.6 74.1333333333 367.8 c 0,64,65
 99.0769230769 447.307692308 99.0769230769 447.307692308 112.538461538 505.153846154 c 128,-1,66
 126 563 126 563 151.5 636.5 c 128,-1,67
 177 710 177 710 197 785 c 1,0,1
EndSplineSet
EndChar

StartChar: l
Encoding: 108 108 85
Width: 294
Flags: HW
LayerCount: 2
Fore
SplineSet
182 2 m 128,-1,1
 174 -14 174 -14 158 -28 c 128,-1,2
 142 -42 142 -42 120 -54.5 c 128,-1,3
 98 -67 98 -67 78.5 -71.5 c 0,4,5
 31.7753623188 -82.2826086957 31.7753623188 -82.2826086957 30 -45 c 1,6,7
 27 -35 27 -35 17.5 -33.5 c 128,-1,8
 8 -32 8 -32 0 -28.5 c 0,9,10
 -20.9620253165 -19.3291139241 -20.9620253165 -19.3291139241 -12 21 c 1,11,12
 4 76 4 76 23 154.5 c 128,-1,13
 42 233 42 233 71.5 327 c 0,14,15
 143.184330053 555.417865254 143.184330053 555.417865254 248 738 c 1,16,17
 255 747 255 747 264 761.5 c 128,-1,18
 273 776 273 776 287 788.5 c 0,19,20
 322.203883495 819.932038835 322.203883495 819.932038835 373 803 c 1,21,22
 372 790 372 790 379 779.5 c 128,-1,23
 386 769 386 769 395 758.5 c 0,24,25
 417.516483516 732.230769231 417.516483516 732.230769231 416 711 c 1,26,27
 309.909090909 459.918181818 309.909090909 459.918181818 225 150 c 0,28,29
 215 114 215 114 209 87 c 128,-1,30
 203 60 203 60 196.5 39 c 128,-1,0
 190 18 190 18 182 2 c 128,-1,1
EndSplineSet
EndChar

StartChar: m
Encoding: 109 109 86
Width: 767
Flags: HW
LayerCount: 2
Fore
SplineSet
139 435 m 1,0,1
 141 454 141 454 163 466 c 128,-1,2
 185 478 185 478 212 478 c 128,-1,3
 239 478 239 478 264.5 465.5 c 128,-1,4
 290 453 290 453 299 423 c 1,5,6
 384.121317158 496.513864818 384.121317158 496.513864818 454 480.5 c 0,7,8
 478 475 478 475 495 452 c 1,9,10
 546.132275132 501.001763668 546.132275132 501.001763668 608 516 c 1,11,12
 685.605536332 518.771626298 685.605536332 518.771626298 720.5 480 c 0,13,14
 725 475 725 475 730.5 469 c 0,15,16
 744.380952381 453.857142857 744.380952381 453.857142857 746 449 c 1,17,18
 763.530241935 420.951612903 763.530241935 420.951612903 755.5 320 c 0,19,20
 745.072164948 188.907216495 745.072164948 188.907216495 705.5 57 c 0,21,22
 685.434554974 -9.88481675393 685.434554974 -9.88481675393 668 -12.5 c 0,23,24
 658 -14 658 -14 649.5 -12 c 128,-1,25
 641 -10 641 -10 634.5 -9.5 c 128,-1,26
 628 -9 628 -9 627 -21 c 1,27,28
 607 -47 607 -47 565.5 -47 c 0,29,30
 526.260869565 -47 526.260869565 -47 497.5 -22.5 c 0,31,32
 466.737704918 3.70491803279 466.737704918 3.70491803279 476.368852459 39.3524590164 c 128,-1,33
 486 75 486 75 498 112.5 c 128,-1,34
 510 150 510 150 523.5 189.5 c 0,35,36
 547.702702703 260.315315315 547.702702703 260.315315315 577 336 c 1,37,38
 556.02970297 311.534653465 556.02970297 311.534653465 520.014851485 245.267326733 c 128,-1,39
 484 179 484 179 475 166 c 1,40,41
 458 132 458 132 447 112.5 c 128,-1,42
 436 93 436 93 417.5 81.5 c 128,-1,43
 399 70 399 70 383.5 67 c 128,-1,44
 368 64 368 64 353.5 66 c 0,45,46
 320.69375 70.525 320.69375 70.525 307 94 c 1,47,48
 304 102 304 102 301 110 c 128,-1,49
 298 118 298 118 296.5 132.5 c 0,50,51
 293.298969072 163.443298969 293.298969072 163.443298969 304 233 c 1,52,-1
 302 230 l 1,53,54
 314 242 314 242 310 236 c 0,55,56
 270.450704225 178.873239437 270.450704225 178.873239437 262.225352113 162.936619718 c 128,-1,57
 254 147 254 147 245 127.5 c 128,-1,58
 236 108 236 108 224 82.5 c 128,-1,59
 212 57 212 57 205 37 c 128,-1,60
 198 17 198 17 187.5 -1.5 c 0,61,62
 143.219839142 -79.5174262735 143.219839142 -79.5174262735 29.5 -65 c 0,63,64
 6 -62 6 -62 -11 -53.5 c 128,-1,65
 -28 -45 -28 -45 -25 -28 c 0,66,67
 -17.0545454545 11.7272727273 -17.0545454545 11.7272727273 11.9727272727 105.363636364 c 0,68,69
 68.92147806 289.069284065 68.92147806 289.069284065 80 342 c 1,70,71
 87 360 87 360 92.5 379 c 128,-1,72
 98 398 98 398 103.5 412.5 c 0,73,74
 115.805084746 444.940677966 115.805084746 444.940677966 139 435 c 1,0,1
486 188 m 1,75,-1
 485.5 186 l 1,76,77
 488 190 488 190 486 188 c 1,75,-1
EndSplineSet
EndChar

StartChar: n
Encoding: 110 110 87
Width: 652
Flags: HW
LayerCount: 2
Fore
SplineSet
167 433 m 1,0,1
 234.340425532 459.936170213 234.340425532 459.936170213 257 433.5 c 0,2,3
 269 419.5 269 419.5 269 395 c 2,4,-1
 269 390 l 1,5,6
 305.832941176 432.971764706 305.832941176 432.971764706 398.5 462 c 0,7,8
 495.256428075 492.30924253 495.256428075 492.30924253 558 479 c 0,9,10
 639.631349782 461.91436865 639.631349782 461.91436865 649.5 372 c 0,11,12
 657.820335637 296.192497532 657.820335637 296.192497532 615 179 c 1,13,14
 601 149 601 149 593.5 130.5 c 128,-1,15
 586 112 586 112 579.5 97 c 0,16,17
 567.371134021 69.0103092784 567.371134021 69.0103092784 539 30 c 1,18,19
 523 0 523 0 489.5 -16 c 128,-1,20
 456 -32 456 -32 423.5 -34.5 c 128,-1,21
 391 -37 391 -37 370 -24.5 c 128,-1,22
 349 -12 349 -12 358 15 c 0,23,24
 381 77 381 77 396 128 c 128,-1,25
 411 179 411 179 427 215 c 1,26,27
 441.638297872 266.234042553 441.638297872 266.234042553 431 279 c 0,28,29
 422.472392638 289.233128834 422.472392638 289.233128834 400 275.5 c 0,30,31
 380.92 263.84 380.92 263.84 373 248 c 1,32,33
 354.612903226 234.866359447 354.612903226 234.866359447 305 144.5 c 0,34,35
 291 119 291 119 277.5 94.5 c 128,-1,36
 264 70 264 70 252.5 49 c 128,-1,37
 241 28 241 28 232.5 14 c 128,-1,38
 224 0 224 0 217.5 -4.5 c 128,-1,39
 211 -9 211 -9 206.5 -10.5 c 128,-1,40
 202 -12 202 -12 199 -14 c 128,-1,41
 196 -16 196 -16 194 -27 c 256,42,43
 189.838630807 -49.8875305623 189.838630807 -49.8875305623 146.5 -61 c 0,44,45
 75.4920318725 -79.2071713147 75.4920318725 -79.2071713147 18 -55 c 0,46,47
 -1 -47 -1 -47 -12 -33 c 1,48,49
 -34.8378378378 12.6756756757 -34.8378378378 12.6756756757 67 280 c 0,50,51
 102.74025974 373.818181818 102.74025974 373.818181818 114.37012987 391.909090909 c 0,52,53
 138.857142857 430 138.857142857 430 146.368571429 434.78 c 128,-1,54
 153.88 439.56 153.88 439.56 167 433 c 1,0,1
EndSplineSet
EndChar

StartChar: o
Encoding: 111 111 88
Width: 524
Flags: HW
LayerCount: 2
Fore
SplineSet
140 427 m 0,0,1
 160.826446281 441.578512397 160.826446281 441.578512397 191.5 434.5 c 0,2,3
 198 433 198 433 204 433 c 1,4,5
 225.535714286 478.464285714 225.535714286 478.464285714 280.5 480.5 c 0,6,7
 294 481 294 481 319 485 c 128,-1,8
 344 489 344 489 379.5 483 c 128,-1,9
 415 477 415 477 442.5 462 c 0,10,11
 500.979591837 430.102040816 500.979591837 430.102040816 513 370 c 1,12,13
 536.52687262 282.308929327 536.52687262 282.308929327 506 177.5 c 0,14,15
 472.673560293 63.0792236717 472.673560293 63.0792236717 394 -6 c 0,16,17
 358 -38 358 -38 318 -46.5 c 128,-1,18
 278 -55 278 -55 246 -56 c 128,-1,19
 214 -57 214 -57 187.5 -56.5 c 128,-1,20
 161 -56 161 -56 136.5 -51 c 0,21,22
 81.6062567422 -39.7971952535 81.6062567422 -39.7971952535 47 0 c 1,23,24
 5.92964824121 44.8040201005 5.92964824121 44.8040201005 11.5 139.5 c 0,25,26
 16.4476744186 223.610465116 16.4476744186 223.610465116 54.5 309.5 c 128,-1,27
 92.5389221557 395.359281437 92.5389221557 395.359281437 140 427 c 0,0,1
316 226 m 1,28,29
 291 218 291 218 269 219 c 1,30,31
 258 208 258 208 249.5 195.5 c 128,-1,32
 241 183 241 183 227 172.5 c 128,-1,33
 213 162 213 162 213 164 c 1,34,35
 196 140 196 140 185 114.5 c 128,-1,36
 174 89 174 89 185 63 c 1,37,38
 224.75 59.3863636364 224.75 59.3863636364 243.875 65.1931818182 c 128,-1,39
 263 71 263 71 279.5 88 c 128,-1,40
 296 105 296 105 305 127.5 c 0,41,42
 322.553846154 171.384615385 322.553846154 171.384615385 316 226 c 1,28,29
EndSplineSet
EndChar

StartChar: p
Encoding: 112 112 89
Width: 588
Flags: HW
LayerCount: 2
Fore
SplineSet
241 409 m 1,0,1
 290.74025974 483.61038961 290.74025974 483.61038961 380 499 c 0,2,3
 409 504 409 504 451.5 506 c 128,-1,4
 494 508 494 508 524.5 487 c 128,-1,5
 555 466 555 466 569.5 433 c 0,6,7
 595.616022099 373.563535912 595.616022099 373.563535912 578 288 c 0,8,9
 568 241 568 241 554 184.5 c 128,-1,10
 540 128 540 128 512 73 c 128,-1,11
 484 18 484 18 439 -30 c 128,-1,12
 394 -78 394 -78 322 -106 c 0,13,14
 278.842105263 -123.263157895 278.842105263 -123.263157895 246.421052632 -118.631578947 c 128,-1,15
 214 -114 214 -114 198 -105 c 128,-1,16
 182 -96 182 -96 176 -79 c 1,17,18
 156 -136 156 -136 138.5 -194.5 c 128,-1,19
 121 -253 121 -253 92 -306 c 1,20,21
 72 -319 72 -319 43 -325.5 c 128,-1,22
 14 -332 14 -332 -14 -322.5 c 128,-1,23
 -42 -313 -42 -313 -54.5 -288.5 c 128,-1,24
 -67 -264 -67 -264 -67 -235 c 0,25,26
 -67 -196 -67 -196 -48 -139.5 c 0,27,28
 -20.1214953271 -56.5981308411 -20.1214953271 -56.5981308411 -2.56074766355 -11.7990654206 c 128,-1,29
 15 33 15 33 20 46.5 c 128,-1,30
 25 60 25 60 30.5 75 c 0,31,32
 51.752 132.96 51.752 132.96 62.376 169.48 c 128,-1,33
 73 206 73 206 82 233 c 1,34,-1
 82 234 l 1,35,36
 91.7066666667 277.68 91.7066666667 277.68 113.353333333 327.34 c 128,-1,37
 135 377 135 377 143 388 c 1,38,39
 160 405 160 405 178 409 c 128,-1,40
 196 413 196 413 219 414 c 1,41,-1
 222 414 l 1,42,-1
 241 409 l 1,0,1
317 242 m 1,43,44
 305.413793103 220.75862069 305.413793103 220.75862069 277 203 c 1,45,-1
 268 182 l 1,46,47
 258 156 258 156 249 129 c 128,-1,48
 240 102 240 102 229 76 c 1,49,50
 239 66 239 66 244 57 c 1,51,52
 300.330578512 106.289256198 300.330578512 106.289256198 345.5 186 c 0,53,54
 364.27831094 219.138195777 364.27831094 219.138195777 369.63915547 252.069097889 c 128,-1,55
 375 285 375 285 372 294 c 128,-1,56
 369 303 369 303 362.5 303 c 128,-1,57
 356 303 356 303 349.5 299.5 c 128,-1,58
 343 296 343 296 339.5 292.5 c 128,-1,59
 336 289 336 289 340 292 c 1,60,61
 329 279 329 279 324 269.5 c 128,-1,62
 319 260 319 260 317 242 c 1,43,44
EndSplineSet
EndChar

StartChar: q
Encoding: 113 113 90
Width: 576
Flags: HW
LayerCount: 2
Fore
SplineSet
122.5 385 m 0,0,1
 160 412 160 412 207.5 433 c 128,-1,2
 255 454 255 454 299 462.5 c 128,-1,3
 343 471 343 471 377 464 c 128,-1,4
 411 457 411 457 422 429 c 1,5,6
 424 434 424 434 424 431 c 128,-1,7
 424 428 424 428 423.5 425 c 128,-1,8
 423 422 423 422 423.5 421 c 128,-1,9
 424 420 424 420 424 419 c 1,10,11
 426.344827586 423.689655172 426.344827586 423.689655172 442.172413793 428.344827586 c 0,12,13
 472.433962264 437.245283019 472.433962264 437.245283019 476 442 c 1,14,15
 478 466 478 466 496 470 c 128,-1,16
 514 474 514 474 535 465.5 c 128,-1,17
 556 457 556 457 573.5 439.5 c 128,-1,18
 591 422 591 422 592 403 c 1,19,20
 591 400 591 400 576.5 355.5 c 128,-1,21
 562 311 562 311 540 250 c 128,-1,22
 518 189 518 189 500 144 c 128,-1,23
 482 99 482 99 467.5 63.5 c 128,-1,24
 453 28 453 28 441 -8.5 c 0,25,26
 413.488888889 -92.1796296296 413.488888889 -92.1796296296 394 -188 c 1,27,28
 393 -206 393 -206 389 -201 c 128,-1,29
 385 -196 385 -196 381 -181.5 c 0,30,31
 369.236686391 -138.857988166 369.236686391 -138.857988166 379 -133 c 0,32,33
 476.801899593 -83.1763907734 476.801899593 -83.1763907734 503.5 -118 c 0,34,35
 515 -133 515 -133 509.5 -160 c 128,-1,36
 504 -187 504 -187 487.5 -215.5 c 128,-1,37
 471 -244 471 -244 445.5 -270 c 128,-1,38
 420 -296 420 -296 391 -309 c 1,39,40
 332.434782609 -328.52173913 332.434782609 -328.52173913 277 -304.5 c 0,41,42
 262 -298 262 -298 248 -291 c 0,43,44
 193 -265 193 -265 188 -203 c 0,45,46
 184.376344086 -148.64516129 184.376344086 -148.64516129 191.688172043 -122.322580645 c 128,-1,47
 199 -96 199 -96 207 -77.5 c 128,-1,48
 215 -59 215 -59 225 -32 c 1,49,50
 210.142857143 -69.1428571429 210.142857143 -69.1428571429 130 -74 c 0,51,52
 51.7926829268 -78.7398373984 51.7926829268 -78.7398373984 21 -50 c 1,53,54
 -14 -15 -14 -15 -17 9 c 1,55,56
 -40.2142857143 113.464285714 -40.2142857143 113.464285714 4 224 c 0,57,58
 46.5168539326 330.292134831 46.5168539326 330.292134831 122.5 385 c 0,0,1
265 154 m 0,59,60
 270 166 270 166 277 180.5 c 128,-1,61
 284 195 284 195 285 208.5 c 128,-1,62
 286 222 286 222 288 235 c 1,63,-1
 286 235 l 1,64,65
 225.5 226.655172414 225.5 226.655172414 207.25 215.327586207 c 128,-1,66
 189 204 189 204 178 188.5 c 128,-1,67
 167 173 167 173 160.5 159.5 c 128,-1,68
 154 146 154 146 151.5 139 c 128,-1,69
 149 132 149 132 147.5 123 c 0,70,71
 143.531914894 99.1914893617 143.531914894 99.1914893617 152.265957447 93.0957446809 c 128,-1,72
 161 87 161 87 169.5 87 c 128,-1,73
 178 87 178 87 187 88.5 c 0,74,75
 241.492537313 97.5820895522 241.492537313 97.5820895522 265 154 c 0,59,60
EndSplineSet
EndChar

StartChar: r
Encoding: 114 114 91
Width: 397
Flags: HW
LayerCount: 2
Fore
SplineSet
143.5 468.5 m 128,-1,1
 169 487 169 487 192.5 491.5 c 128,-1,2
 216 496 216 496 231.5 486 c 128,-1,3
 247 476 247 476 242 455 c 1,4,5
 261.333333333 474.333333333 261.333333333 474.333333333 297.166666667 490.166666667 c 128,-1,6
 333 506 333 506 354 512 c 128,-1,7
 375 518 375 518 390 517.5 c 0,8,9
 423.477508651 516.384083045 423.477508651 516.384083045 409 482 c 1,10,11
 426 479 426 479 434 460 c 128,-1,12
 442 441 442 441 436 418 c 128,-1,13
 430 395 430 395 409 373 c 128,-1,14
 388 351 388 351 352.5 343 c 128,-1,15
 317 335 317 335 293.5 306.5 c 128,-1,16
 270 278 270 278 252 235.5 c 0,17,18
 222.021937843 164.718464351 222.021937843 164.718464351 198 35 c 1,19,20
 190.450549451 -12.1840659341 190.450549451 -12.1840659341 133 -44.5 c 0,21,22
 79.2107081174 -74.7564766839 79.2107081174 -74.7564766839 33.5 -62 c 0,23,24
 -16.5484536082 -48.0329896907 -16.5484536082 -48.0329896907 -11 13 c 1,25,26
 -9.20373514431 56.1103565365 -9.20373514431 56.1103565365 14.8981324278 127.555178268 c 128,-1,27
 39 199 39 199 52 235.5 c 128,-1,28
 65 272 65 272 70 291 c 2,29,-1
 104 414 l 1,30,0
 118 450 118 450 143.5 468.5 c 128,-1,1
EndSplineSet
EndChar

StartChar: s
Encoding: 115 115 92
Width: 506
Flags: HW
LayerCount: 2
Fore
SplineSet
361 -24 m 0,0,1
 322 -56 322 -56 268.5 -72.5 c 128,-1,2
 215 -89 215 -89 161 -90 c 128,-1,3
 107 -91 107 -91 60 -77 c 128,-1,4
 13 -63 13 -63 -14 -33 c 0,5,6
 -46.3194675541 1.33943427621 -46.3194675541 1.33943427621 -35.5 35 c 0,7,8
 -31 49 -31 49 -18.5 57 c 128,-1,9
 -6 65 -6 65 12 61 c 1,10,11
 24 60 24 60 29.5 67.5 c 128,-1,12
 35 75 35 75 39 84.5 c 128,-1,13
 43 94 43 94 48 102.5 c 128,-1,14
 53 111 53 111 64 111 c 0,15,16
 240.391780822 105.654794521 240.391780822 105.654794521 247 142 c 1,17,18
 235 153 235 153 217.5 161 c 128,-1,19
 200 169 200 169 182.5 177 c 0,20,21
 137.7 197.48 137.7 197.48 123 221 c 1,22,23
 103.644067797 230.677966102 103.644067797 230.677966102 93.5 269 c 0,24,25
 89 286 89 286 89 304 c 128,-1,26
 89 322 89 322 95 337 c 1,27,28
 92.2248803828 375.851674641 92.2248803828 375.851674641 143 423 c 0,29,30
 157 436 157 436 178 451 c 128,-1,31
 199 466 199 466 241 480 c 128,-1,32
 283 494 283 494 324.5 500.5 c 128,-1,33
 366 507 366 507 399.5 505 c 128,-1,34
 433 503 433 503 447.5 489 c 128,-1,35
 462 475 462 475 470.5 454 c 128,-1,36
 479 433 479 433 475.5 413 c 0,37,38
 467.693138011 368.389360062 467.693138011 368.389360062 402 351 c 1,39,40
 319.035294118 338.858823529 319.035294118 338.858823529 321.5 329 c 0,41,42
 322 327 322 327 315 324 c 1,43,44
 392.364392679 270.811980033 392.364392679 270.811980033 422.5 219.5 c 0,45,46
 463.291590826 150.044048052 463.291590826 150.044048052 434 64 c 1,47,48
 438.659090909 36.0454545455 438.659090909 36.0454545455 384 -6 c 0,49,50
 371 -16 371 -16 361 -24 c 0,0,1
EndSplineSet
EndChar

StartChar: t
Encoding: 116 116 93
Width: 436
Flags: HW
LayerCount: 2
Fore
SplineSet
271 748 m 1,0,-1
 272 752 l 1,1,-1
 281 761 l 1,2,3
 291.586206897 786.709359606 291.586206897 786.709359606 305 791.5 c 0,4,5
 312 794 312 794 323 797 c 128,-1,6
 334 800 334 800 352 812 c 1,7,8
 359 826 359 826 381 824.5 c 128,-1,9
 403 823 403 823 424.5 810.5 c 128,-1,10
 446 798 446 798 459.5 776 c 128,-1,11
 473 754 473 754 466 730.5 c 128,-1,12
 459 707 459 707 454.5 695.5 c 128,-1,13
 450 684 450 684 445.5 674 c 128,-1,14
 441 664 441 664 434.5 651.5 c 128,-1,15
 428 639 428 639 418 618 c 2,16,-1
 385 549 l 1,17,18
 380 536 380 536 376.5 534 c 128,-1,19
 373 532 373 532 370 527 c 1,20,21
 379 529 379 529 385 530 c 128,-1,22
 391 531 391 531 397 532 c 0,23,24
 411.4 534.4 411.4 534.4 429 536 c 1,25,26
 440 534 440 534 447.5 534 c 2,27,-1
 461.5 534 l 2,28,29
 473.75 534 473.75 534 490.875 527.5 c 128,-1,30
 508 521 508 521 513 505 c 128,-1,31
 518 489 518 489 514 472.5 c 128,-1,32
 510 456 510 456 498 442 c 128,-1,33
 486 428 486 428 467 427 c 1,34,35
 379.516949153 403.355932203 379.516949153 403.355932203 343 401 c 1,36,-1
 337 394 l 1,37,-1
 337 393 l 1,38,39
 327 369 327 369 315.5 332.5 c 128,-1,40
 304 296 304 296 290.5 253.5 c 128,-1,41
 277 211 277 211 263 165.5 c 128,-1,42
 249 120 249 120 234.5 78 c 0,43,44
 185.781128405 -63.1167315175 185.781128405 -63.1167315175 163.5 -75 c 0,45,46
 156 -79 156 -79 147.5 -80.5 c 128,-1,47
 139 -82 139 -82 138 -83 c 1,48,49
 103.042654028 -80.8151658768 103.042654028 -80.8151658768 80.0213270142 -68.9075829384 c 128,-1,50
 57 -57 57 -57 49 -46 c 128,-1,51
 41 -35 41 -35 45 -21 c 1,52,53
 63.8532423208 153.392491468 63.8532423208 153.392491468 121 360 c 1,54,55
 101 360 101 360 93 356 c 0,56,57
 77.7692307692 348.384615385 77.7692307692 348.384615385 57 347 c 1,58,-1
 56 347 l 1,59,60
 40 348 40 348 27 362 c 128,-1,61
 14 376 14 376 11 394 c 128,-1,62
 8 412 8 412 17 431 c 128,-1,63
 26 450 26 450 53 461 c 1,64,65
 85.275862069 469.689655172 85.275862069 469.689655172 99.6379310345 475.844827586 c 0,66,67
 128.724137931 488.310344828 128.724137931 488.310344828 148.362068966 493.155172414 c 128,-1,68
 168 498 168 498 170.5 499.5 c 128,-1,69
 173 501 173 501 174.5 502 c 0,70,71
 177.5 504 177.5 504 189 504 c 1,72,73
 195 533 195 533 201 563 c 128,-1,74
 207 593 207 593 215.5 623.5 c 0,75,76
 235.656498674 695.826259947 235.656498674 695.826259947 271 748 c 1,0,-1
EndSplineSet
EndChar

StartChar: u
Encoding: 117 117 94
Width: 606
Flags: HW
LayerCount: 2
Fore
SplineSet
130 439 m 1,0,1
 158 466 158 466 192.5 470.5 c 128,-1,2
 227 475 227 475 253.5 463 c 128,-1,3
 280 451 280 451 292.5 424.5 c 128,-1,4
 305 398 305 398 289 364 c 1,5,6
 255 314 255 314 235 256 c 128,-1,7
 215 198 215 198 198 139 c 1,8,9
 289.995243757 197.102259215 289.995243757 197.102259215 352 312.5 c 0,10,11
 370 346 370 346 391 381 c 1,12,-1
 406 409 l 1,13,-1
 436 457 l 1,14,15
 442 476 442 476 457 481.5 c 128,-1,16
 472 487 472 487 489.5 487 c 128,-1,17
 507 487 507 487 525 486.5 c 128,-1,18
 543 486 543 486 558 496 c 128,-1,19
 573 506 573 506 593.5 503.5 c 128,-1,20
 614 501 614 501 630.5 490 c 128,-1,21
 647 479 647 479 655.5 463.5 c 128,-1,22
 664 448 664 448 657 433 c 0,23,24
 615 343 615 343 541.5 98 c 0,25,26
 525 43 525 43 510 6 c 1,27,28
 485 -25 485 -25 447 -36 c 128,-1,29
 409 -47 409 -47 375.5 -42.5 c 128,-1,30
 342 -38 342 -38 322 -19.5 c 128,-1,31
 302 -1 302 -1 313 27 c 1,32,33
 285 4 285 4 255 -15 c 128,-1,34
 225 -34 225 -34 182.5 -40 c 128,-1,35
 140 -46 140 -46 101 -36.5 c 128,-1,36
 62 -27 62 -27 34.5 0 c 128,-1,37
 7 27 7 27 5 72 c 0,38,39
 -1.00783289817 230.206266319 -1.00783289817 230.206266319 130 439 c 1,0,1
EndSplineSet
EndChar

StartChar: v
Encoding: 118 118 95
Width: 509
Flags: HW
LayerCount: 2
Fore
SplineSet
221 444 m 1,0,1
 226 384 226 384 230 323.5 c 128,-1,2
 234 263 234 263 242 203 c 1,3,4
 260 240 260 240 275.5 281 c 128,-1,5
 291 322 291 322 309 361.5 c 0,6,7
 352.195372751 456.289845758 352.195372751 456.289845758 404 500 c 1,8,9
 435.5 535 435.5 535 500 535 c 0,10,11
 538 535 538 535 548 511 c 0,12,13
 553 499 553 499 545 479 c 1,14,15
 594.47826087 444.365217391 594.47826087 444.365217391 565.5 398 c 0,16,17
 558 386 558 386 550 376 c 1,18,19
 506.666666667 304.333333333 506.666666667 304.333333333 470.833333333 242.666666667 c 0,20,21
 412.106481481 141.601851852 412.106481481 141.601851852 365 70 c 0,22,23
 349 46 349 46 320.5 16.5 c 128,-1,24
 292 -13 292 -13 258.5 -34.5 c 0,25,26
 178.066967954 -86.1211996713 178.066967954 -86.1211996713 131 -53 c 1,27,28
 100 -49 100 -49 73 -33 c 128,-1,29
 46 -17 46 -17 32 9 c 1,30,31
 10.7138263666 64.3440514469 10.7138263666 64.3440514469 42 261 c 0,32,33
 49 305 49 305 51 327 c 128,-1,34
 53 349 53 349 56 367 c 128,-1,35
 59 385 59 385 61 401 c 128,-1,36
 63 417 63 417 65 433.5 c 128,-1,37
 67 450 67 450 74.5 464 c 0,38,39
 91.4126074499 495.570200573 91.4126074499 495.570200573 136 499 c 1,40,-1
 148 499 l 1,41,42
 166 495 166 495 182 489.5 c 0,43,44
 208.541176471 480.376470588 208.541176471 480.376470588 218 452 c 0,45,46
 219 449 219 449 221 444 c 1,0,1
EndSplineSet
EndChar

StartChar: w
Encoding: 119 119 96
Width: 709
Flags: HW
LayerCount: 2
Fore
SplineSet
475 365 m 1,0,1
 467.692307692 306.538461538 467.692307692 306.538461538 463.846153846 288.269230769 c 128,-1,2
 460 270 460 270 458 255 c 0,3,4
 457 247 457 247 462.5 252 c 128,-1,5
 468 257 468 257 477.5 270.5 c 128,-1,6
 487 284 487 284 499 303 c 128,-1,7
 511 322 511 322 522 342.5 c 0,8,9
 547.407079646 389.849557522 547.407079646 389.849557522 551 415 c 1,10,11
 550 419 550 419 550.5 422.5 c 128,-1,12
 551 426 551 426 548.5 437.5 c 128,-1,13
 546 449 546 449 550 466 c 128,-1,14
 554 483 554 483 565 495 c 0,15,16
 588.747663551 520.906542056 588.747663551 520.906542056 636 515 c 1,17,18
 678.085714286 512.661904762 678.085714286 512.661904762 692.542857143 504.830952381 c 0,19,20
 719.969359331 489.974930362 719.969359331 489.974930362 743 451 c 1,21,22
 754.020576132 427.122085048 754.020576132 427.122085048 730.5 342 c 0,23,24
 700.919254658 234.945874002 700.919254658 234.945874002 635.5 98.5 c 0,25,26
 618 62 618 62 602 37 c 128,-1,27
 586 12 586 12 556 -5 c 128,-1,28
 526 -22 526 -22 492 -29 c 0,29,30
 417.419354839 -44.3548387097 417.419354839 -44.3548387097 365 -15 c 1,31,32
 357 -8 357 -8 349 -3 c 128,-1,33
 341 2 341 2 330 16.5 c 0,34,35
 294.662125341 63.0817438692 294.662125341 63.0817438692 290 147 c 1,36,37
 275.4 95.9 275.4 95.9 253.7 66.45 c 0,38,39
 222.421052632 24 222.421052632 24 176 -18 c 1,40,41
 127.136363636 -47.3181818182 127.136363636 -47.3181818182 64.5 -42.5 c 0,42,43
 42.6363636364 -40.8181818182 42.6363636364 -40.8181818182 27 -33 c 1,44,45
 13 -21 13 -21 7 -12.5 c 128,-1,46
 1 -4 1 -4 1 21.5 c 0,47,48
 1 68 1 68 25 152 c 0,49,50
 31 174 31 174 39.5 205 c 128,-1,51
 48 236 48 236 55.5 269 c 0,52,53
 77.5652173913 366.086956522 77.5652173913 366.086956522 80.2826086957 390.543478261 c 128,-1,54
 83 415 83 415 85 424 c 1,55,56
 94 441 94 441 113 450 c 128,-1,57
 132 459 132 459 152.5 459 c 128,-1,58
 173 459 173 459 190 449 c 128,-1,59
 207 439 207 439 213 418 c 1,60,-1
 214 418 l 1,61,-1
 214 417 l 1,62,63
 244 361 244 361 244 303 c 1,64,65
 271 339 271 339 291.5 356.5 c 128,-1,66
 312 374 312 374 331.5 381.5 c 0,67,68
 362.227272727 393.318181818 362.227272727 393.318181818 377.613636364 395.159090909 c 128,-1,69
 393 397 393 397 411 400.5 c 128,-1,70
 429 404 429 404 445.5 403.5 c 0,71,72
 485.172131148 402.297814208 485.172131148 402.297814208 475 365 c 1,0,1
EndSplineSet
EndChar

StartChar: x
Encoding: 120 120 97
Width: 467
Flags: HW
LayerCount: 2
Fore
SplineSet
395 476 m 128,-1,1
 405 486 405 486 416 495 c 128,-1,2
 427 504 427 504 437 506 c 128,-1,3
 447 508 447 508 459.5 504.5 c 128,-1,4
 472 501 472 501 482.5 498 c 128,-1,5
 493 495 493 495 495 494 c 0,6,7
 506.461538462 482.538461538 506.461538462 482.538461538 513.230769231 464.769230769 c 128,-1,8
 520 447 520 447 520 437 c 128,-1,9
 520 427 520 427 514 419 c 1,10,11
 493.910958904 367.342465753 493.910958904 367.342465753 408.5 272 c 0,12,13
 387 248 387 248 371 233 c 1,14,15
 380 203 380 203 384.5 153.5 c 0,16,17
 393.666666667 52.6666666667 393.666666667 52.6666666667 396.833333333 37.8333333333 c 128,-1,18
 400 23 400 23 401 16 c 128,-1,19
 402 9 402 9 407 2 c 1,20,21
 411 -15 411 -15 396.5 -25 c 128,-1,22
 382 -35 382 -35 360.5 -40 c 0,23,24
 313.614457831 -50.9036144578 313.614457831 -50.9036144578 282 -43 c 1,25,26
 266.310810811 -30.7972972973 266.310810811 -30.7972972973 258.655405405 -13.3986486486 c 0,27,28
 249.428571429 7.57142857143 249.428571429 7.57142857143 228 74 c 1,29,30
 217 62 217 62 207 50 c 128,-1,31
 197 38 197 38 187 26 c 2,32,-1
 173 7 l 2,33,34
 167 -1 167 -1 161.5 -9 c 128,-1,35
 156 -17 156 -17 149 -25.5 c 0,36,37
 135.488372093 -41.9069767442 135.488372093 -41.9069767442 107 -59 c 1,38,39
 80.1597633136 -70.1834319527 80.1597633136 -70.1834319527 57.0798816568 -68.5917159763 c 0,40,41
 13.5619047619 -65.5904761905 13.5619047619 -65.5904761905 10 -46 c 1,42,43
 -13 -38 -13 -38 -17 -21.5 c 128,-1,44
 -21 -5 -21 -5 -12 31 c 1,45,46
 78.3833333333 195.333333333 78.3833333333 195.333333333 147 255 c 1,47,48
 138.284768212 268.695364238 138.284768212 268.695364238 132.642384106 297.847682119 c 0,49,50
 122.075862069 352.44137931 122.075862069 352.44137931 113 368 c 1,51,52
 88 375 88 375 77 394 c 128,-1,53
 66 413 66 413 83 447 c 1,54,-1
 95 461 l 1,55,56
 134 496 134 496 175.5 503 c 128,-1,57
 217 510 217 510 252 483 c 1,58,59
 278.222222222 473.166666667 278.222222222 473.166666667 309 427 c 0,60,61
 317 415 317 415 319 407 c 1,62,63
 334 427 334 427 359.5 446.5 c 128,-1,0
 385 466 385 466 395 476 c 128,-1,1
EndSplineSet
EndChar

StartChar: y
Encoding: 121 121 98
Width: 570
Flags: HW
LayerCount: 2
Fore
SplineSet
30 373 m 128,-1,1
 23 399 23 399 30.5 416.5 c 128,-1,2
 38 434 38 434 54.5 441 c 128,-1,3
 71 448 71 448 93.5 445.5 c 128,-1,4
 116 443 116 443 138.5 432.5 c 0,5,6
 190.944029851 408.026119403 190.944029851 408.026119403 212 364 c 1,7,8
 217 342 217 342 208.5 309.5 c 128,-1,9
 200 277 200 277 189 242.5 c 128,-1,10
 178 208 178 208 168 175.5 c 128,-1,11
 158 143 158 143 160 121 c 1,12,13
 186 137 186 137 205.5 169 c 128,-1,14
 225 201 225 201 241.5 237.5 c 128,-1,15
 258 274 258 274 272.5 310 c 128,-1,16
 287 346 287 346 300.5 367 c 128,-1,17
 314 388 314 388 322 400.5 c 128,-1,18
 330 413 330 413 337.5 423 c 0,19,20
 350.55 440.4 350.55 440.4 372 456 c 0,21,22
 378.137724551 460.910179641 378.137724551 460.910179641 408.568862275 454.45508982 c 128,-1,23
 439 448 439 448 453.5 445.5 c 128,-1,24
 468 443 468 443 473 447 c 2,25,-1
 487 457 l 1,26,27
 514.931034483 470.965517241 514.931034483 470.965517241 553 455.5 c 0,28,29
 590.032015066 440.455743879 590.032015066 440.455743879 592 407 c 1,30,31
 591 406 591 406 591 403 c 1,32,-1
 594 402 l 1,33,-1
 587 396 l 1,34,35
 580 383 580 383 576.5 378.5 c 128,-1,36
 573 374 573 374 562 365 c 1,37,38
 493.839416058 292.138686131 493.839416058 292.138686131 406 94.5 c 0,39,40
 384 45 384 45 366 6 c 1,41,42
 393 -11 393 -11 407 -38 c 128,-1,43
 421 -65 421 -65 407 -97 c 1,44,45
 324.115384615 -163.307692308 324.115384615 -163.307692308 314.5 -221 c 0,46,47
 308.553191489 -256.680851064 308.553191489 -256.680851064 301.276595745 -271.840425532 c 128,-1,48
 294 -287 294 -287 278 -301 c 1,49,50
 224.054644809 -341.459016393 224.054644809 -341.459016393 151 -281 c 1,51,52
 99.0447761194 -229.044776119 99.0447761194 -229.044776119 145.5 -151 c 0,53,54
 158 -130 158 -130 169 -107 c 0,55,56
 185.28 -72.96 185.28 -72.96 220 -6 c 1,57,58
 133.685166498 -55.9717457114 133.685166498 -55.9717457114 62 -4 c 1,59,60
 11.4245939675 34.5336426914 11.4245939675 34.5336426914 26 173 c 0,61,62
 35.7247706422 265.385321101 35.7247706422 265.385321101 36.3623853211 306.19266055 c 128,-1,0
 37 347 37 347 30 373 c 128,-1,1
EndSplineSet
EndChar

StartChar: z
Encoding: 122 122 99
Width: 518
Flags: HW
LayerCount: 2
Fore
SplineSet
272 97 m 1,0,1
 302 105 302 105 337 101 c 128,-1,2
 372 97 372 97 398 81 c 128,-1,3
 424 65 424 65 433.5 37 c 128,-1,4
 443 9 443 9 421 -30 c 1,5,6
 410 -31 410 -31 376.5 -37 c 128,-1,7
 343 -43 343 -43 298.5 -50 c 128,-1,8
 254 -57 254 -57 204.5 -63 c 128,-1,9
 155 -69 155 -69 112 -70.5 c 0,10,11
 12.7844036697 -73.9610091743 12.7844036697 -73.9610091743 2 -47 c 1,12,13
 -36.7692307692 40.2307692308 -36.7692307692 40.2307692308 88.5 165.5 c 0,14,15
 121 198 121 198 149 224.5 c 128,-1,16
 177 251 177 251 194.5 270 c 128,-1,17
 212 289 212 289 207 298 c 1,18,19
 188.333333333 302 188.333333333 302 184.166666667 304.5 c 0,20,21
 176.714285714 308.971428571 176.714285714 308.971428571 149.357142857 312.485714286 c 128,-1,22
 122 316 122 316 107.5 331.5 c 128,-1,23
 93 347 93 347 95.5 367.5 c 128,-1,24
 98 388 98 388 115.5 409.5 c 128,-1,25
 133 431 133 431 163 447 c 128,-1,26
 193 463 193 463 227.5 474 c 128,-1,27
 262 485 262 485 298 492.5 c 0,28,29
 358.205128205 505.042735043 358.205128205 505.042735043 440 510 c 0,30,31
 451 510 451 510 455.5 502.5 c 128,-1,32
 460 495 460 495 464 486.5 c 128,-1,33
 468 478 468 478 474.5 471.5 c 128,-1,34
 481 465 481 465 501 467.5 c 128,-1,35
 521 470 521 470 529.5 450.5 c 128,-1,36
 538 431 538 431 534 402 c 128,-1,37
 530 373 530 373 515 342.5 c 128,-1,38
 500 312 500 312 476 294 c 1,39,40
 356 174 356 174 326 146.5 c 2,41,-1
 272 97 l 1,0,1
48 78 m 1,42,43
 49 79 49 79 48 78 c 129,-1,44
 47 77 47 77 45 76 c 1,45,46
 46 76 46 76 48 78 c 1,42,43
EndSplineSet
EndChar

StartChar: braceleft
Encoding: 123 123 100
Width: 506
Flags: HW
LayerCount: 2
Fore
SplineSet
427.5 831 m 2,0,-1
 467 830 l 2,1,2
 469 830 469 830 486 825.5 c 128,-1,3
 503 821 503 821 526.5 807.5 c 128,-1,4
 550 794 550 794 557.5 777.5 c 0,5,6
 574.307535642 740.523421589 574.307535642 740.523421589 507 705 c 1,7,8
 497.666666667 702.333333333 497.666666667 702.333333333 466.5 695 c 1,9,10
 472.069928142 696.496906494 472.069928142 696.496906494 482 699 c 1,11,12
 458 677 458 677 452.5 650.5 c 128,-1,13
 447 624 447 624 446.5 596.5 c 128,-1,14
 446 569 446 569 445 541 c 128,-1,15
 444 513 444 513 428.5 485.5 c 128,-1,16
 413 458 413 458 399 437.5 c 128,-1,17
 385 417 385 417 370 402 c 0,18,19
 344.529411765 376.529411765 344.529411765 376.529411765 291 358 c 1,20,21
 302.781818182 350.636363636 302.781818182 350.636363636 295.390909091 338.318181818 c 128,-1,22
 288 326 288 326 283.5 317 c 128,-1,23
 279 308 279 308 282 289.5 c 128,-1,24
 285 271 285 271 279.5 246 c 128,-1,25
 274 221 274 221 266 197.5 c 128,-1,26
 258 174 258 174 250.5 151.5 c 128,-1,27
 243 129 243 129 243.5 108 c 0,28,29
 244.594202899 62.0434782609 244.594202899 62.0434782609 298 30 c 1,30,31
 351.117647059 -0.352941176471 351.117647059 -0.352941176471 368.058823529 -19.1764705882 c 0,32,33
 400.180722892 -54.8674698795 400.180722892 -54.8674698795 389 -94 c 1,34,35
 376.117346939 -114.612244898 376.117346939 -114.612244898 353.558673469 -126.806122449 c 128,-1,36
 331 -139 331 -139 311 -143 c 0,37,38
 279.846153846 -149.230769231 279.846153846 -149.230769231 222 -142 c 1,39,40
 192 -135.571428571 192 -135.571428571 177 -127 c 1,41,42
 145.554272517 -113.242494226 145.554272517 -113.242494226 97.5 -60.5 c 0,43,44
 49.6423487544 -7.97330960854 49.6423487544 -7.97330960854 44.3211743772 25.0133451957 c 128,-1,45
 39 58 39 58 52 90.5 c 128,-1,46
 65 123 65 123 75 144.5 c 128,-1,47
 85 166 85 166 99 190 c 128,-1,48
 113 214 113 214 123.5 240 c 0,49,50
 149.846410684 305.238731219 149.846410684 305.238731219 118 322 c 0,51,52
 117 322 117 322 111 324 c 128,-1,53
 105 326 105 326 96.5 328.5 c 0,54,55
 80.7142857143 333.142857143 80.7142857143 333.142857143 65 341 c 1,56,57
 35.1666666667 348.458333333 35.1666666667 348.458333333 29.5833333333 358.229166667 c 0,58,59
 18.8187919463 377.067114094 18.8187919463 377.067114094 46 397 c 1,60,61
 75 411 75 411 100 409 c 1,62,63
 216.380704042 429.782268579 216.380704042 429.782268579 264.5 474 c 0,64,65
 283 491 283 491 284.5 509.5 c 128,-1,66
 286 528 286 528 283 545 c 1,67,68
 285.857142857 530.714285714 285.857142857 530.714285714 281 538 c 0,69,70
 260.047619048 575.714285714 260.047619048 575.714285714 250 636 c 0,71,72
 238.841726619 702.949640288 238.841726619 702.949640288 276.5 752.5 c 0,73,74
 303.6 788.157894737 303.6 788.157894737 315.8 794.578947368 c 128,-1,75
 328 801 328 801 339 805 c 1,76,77
 364.333333333 821.888888889 364.333333333 821.888888889 410 829.5 c 0,78,79
 419 831 419 831 427.5 831 c 2,0,-1
EndSplineSet
EndChar

StartChar: bar
Encoding: 124 124 101
Width: 421
Flags: HW
LayerCount: 2
Fore
SplineSet
207 796.5 m 128,-1,1
 214 815 214 815 229 832 c 128,-1,2
 244 849 244 849 265 864.5 c 128,-1,3
 286 880 286 880 305.5 886.5 c 0,4,5
 350.56 901.52 350.56 901.52 356 858 c 1,6,7
 360 847 360 847 369.5 845.5 c 128,-1,8
 379 844 379 844 387.5 841 c 0,9,10
 408.156079855 833.709618875 408.156079855 833.709618875 402 786 c 1,11,12
 390 721 390 721 376 630.5 c 128,-1,13
 362 540 362 540 338.5 431.5 c 0,14,15
 280.029436222 161.54016298 280.029436222 161.54016298 189 -47 c 1,16,17
 183 -58 183 -58 174.5 -75.5 c 128,-1,18
 166 -93 166 -93 152.5 -108 c 0,19,20
 118.84 -145.4 118.84 -145.4 68 -129 c 1,21,22
 68 -107.368421053 68 -107.368421053 43.5 -79 c 128,-1,23
 19 -50.6315789474 19 -50.6315789474 19 -27 c 1,24,25
 92.2223053892 216.098053892 92.2223053892 216.098053892 141.5 459.5 c 0,26,27
 178.382352941 641.676470588 178.382352941 641.676470588 184.691176471 685.838235294 c 128,-1,28
 191 730 191 730 195.5 754 c 128,-1,0
 200 778 200 778 207 796.5 c 128,-1,1
EndSplineSet
EndChar

StartChar: braceright
Encoding: 125 125 102
Width: 582
Flags: HW
LayerCount: 2
Fore
SplineSet
313 -64.5 m 128,-1,1
 304 -78 304 -78 293 -91.5 c 128,-1,2
 282 -105 282 -105 273 -110 c 128,-1,3
 264 -115 264 -115 253 -120 c 1,4,5
 229.421052632 -137.684210526 229.421052632 -137.684210526 183 -148 c 0,6,7
 169.5 -151 169.5 -151 154.75 -151 c 2,8,-1
 127 -151 l 2,9,10
 107 -151 107 -151 75 -135 c 128,-1,11
 43 -119 43 -119 34.5 -102.5 c 0,12,13
 15.4247491639 -65.4715719064 15.4247491639 -65.4715719064 81 -28 c 1,14,15
 88 -26 88 -26 100.5 -22.5 c 128,-1,16
 113 -19 113 -19 121 -16.5 c 1,17,18
 115.581940809 -18.1774662776 115.581940809 -18.1774662776 106 -21 c 1,19,20
 128 2 128 2 129.5 28 c 128,-1,21
 131 54 131 54 126.5 81.5 c 128,-1,22
 122 109 122 109 118.5 136.5 c 128,-1,23
 115 164 115 164 128 190 c 0,24,25
 159 251 159 251 213 281.5 c 128,-1,26
 267 312 267 312 332 329 c 1,27,28
 262.705114255 369.761697497 262.705114255 369.761697497 292 484.5 c 0,29,30
 298 508 298 508 305 531.5 c 128,-1,31
 312 555 312 555 318 578 c 1,32,33
 312.054054054 593.459459459 312.054054054 593.459459459 314.027027027 610.22972973 c 128,-1,34
 316 627 316 627 314.5 635.5 c 128,-1,35
 313 644 313 644 304 655 c 1,36,37
 293 663 293 663 281.5 671.5 c 128,-1,38
 270 680 270 680 258 688 c 1,39,40
 179.116465863 691.429718876 179.116465863 691.429718876 162 738.5 c 0,41,42
 156 755 156 755 161 776 c 1,43,44
 187.367673179 818.188277087 187.367673179 818.188277087 232.18383659 827.594138544 c 128,-1,45
 277 837 277 837 326 832 c 1,46,47
 340 829 340 829 348.5 827.5 c 128,-1,48
 357 826 357 826 372 819 c 128,-1,49
 387 812 387 812 404 799 c 128,-1,50
 421 786 421 786 436 769.5 c 0,51,52
 469.976377953 732.125984252 469.976377953 732.125984252 476 700 c 1,53,54
 494 656 494 656 494.5 615 c 128,-1,55
 495 574 495 574 486.5 554.5 c 128,-1,56
 478 535 478 535 471 521 c 128,-1,57
 464 507 464 507 456 490 c 128,-1,58
 448 473 448 473 441.5 455 c 128,-1,59
 435 437 435 437 432.5 421 c 0,60,61
 426.748878924 384.192825112 426.748878924 384.192825112 451 373 c 1,62,63
 453.8 373 453.8 373 467.4 369 c 128,-1,64
 481 365 481 365 490 362.5 c 128,-1,65
 499 360 499 360 505 357 c 1,66,67
 534.690322581 350.148387097 534.690322581 350.148387097 540.84516129 340.574193548 c 0,68,69
 552.328947368 322.710526316 552.328947368 322.710526316 527 301 c 1,70,71
 499 287 499 287 473 287 c 1,72,73
 396.733333333 267.933333333 396.733333333 267.933333333 363.366666667 249.966666667 c 0,74,75
 295.799283154 213.584229391 295.799283154 213.584229391 294 174 c 1,76,77
 292.333333333 160.666666667 292.333333333 160.666666667 297 142 c 1,78,79
 294.5 154.5 294.5 154.5 299 150 c 1,80,81
 318.347826087 120.97826087 318.347826087 120.97826087 334 52.5 c 0,82,83
 339.978947368 26.3421052632 339.978947368 26.3421052632 336.489473684 0.171052631579 c 128,-1,84
 333 -26 333 -26 327.5 -38.5 c 128,-1,0
 322 -51 322 -51 313 -64.5 c 128,-1,1
EndSplineSet
EndChar

StartChar: asciitilde
Encoding: 126 126 103
Width: 464
Flags: HW
LayerCount: 2
Fore
SplineSet
74 457 m 1,0,-1
 82 459 l 1,1,-1
 108 480 l 1,2,3
 170.5625 520.90625 170.5625 520.90625 207 506 c 1,4,5
 226 500 226 500 238.5 489.5 c 128,-1,6
 251 479 251 479 256 463 c 128,-1,7
 261 447 261 447 266.5 438.5 c 128,-1,8
 272 430 272 430 280.5 415.5 c 128,-1,9
 289 401 289 401 301 390 c 1,10,11
 326 391 326 391 351 404 c 1,12,-1
 367.5 420.5 l 2,13,14
 376 429 376 429 385 437 c 1,15,16
 412.559322034 455.372881356 412.559322034 455.372881356 428.779661017 451.686440678 c 128,-1,17
 445 448 445 448 452 437.5 c 128,-1,18
 459 427 459 427 459 405 c 1,19,20
 455.482014388 373.338129496 455.482014388 373.338129496 415 340 c 1,21,22
 366.769230769 287.384615385 366.769230769 287.384615385 345.384615385 276.692307692 c 0,23,24
 309 258.5 309 258.5 263 270 c 0,25,26
 252 272 252 272 241 283 c 2,27,-1
 218 306 l 2,28,29
 187.684210526 336.315789474 187.684210526 336.315789474 164 330 c 1,30,31
 150 319 150 319 137 306 c 128,-1,32
 124 293 124 293 111.5 282.5 c 0,33,34
 81.9575596817 257.684350133 81.9575596817 257.684350133 63.9787798408 264.842175066 c 128,-1,35
 46 272 46 272 38 282 c 1,36,37
 13 294 13 294 5 316 c 128,-1,38
 -3 338 -3 338 3 363 c 0,39,40
 16.1365187713 417.735494881 16.1365187713 417.735494881 74 457 c 1,0,-1
53 439 m 1,41,42
 50 436 50 436 54.5 439 c 128,-1,43
 59 442 59 442 66 446 c 2,44,-1
 53 439 l 1,41,42
EndSplineSet
EndChar

StartChar: Euro
Encoding: 8364 8364 104
Width: 642
Flags: HW
LayerCount: 2
Fore
SplineSet
388 555 m 1,0,-1
 420 549 l 1,1,2
 433 549 433 549 457.5 551.5 c 128,-1,3
 482 554 482 554 505.5 555 c 0,4,5
 564 557.489361702 564 557.489361702 564 539 c 1,6,7
 568 521 568 521 577 517 c 128,-1,8
 586 513 586 513 595 513 c 128,-1,9
 604 513 604 513 610 511.5 c 128,-1,10
 616 510 616 510 613 496 c 1,11,12
 640 460 640 460 630 434 c 128,-1,13
 620 408 620 408 592 393 c 128,-1,14
 564 378 564 378 526 374.5 c 128,-1,15
 488 371 488 371 459 379 c 1,16,-1
 432 379 l 1,17,18
 403 381 403 381 375 379 c 128,-1,19
 347 377 347 377 318 380 c 1,20,21
 305.407407407 351.666666667 305.407407407 351.666666667 293 307 c 1,22,23
 331 314 331 314 369.5 324 c 128,-1,24
 408 334 408 334 447 338 c 1,25,26
 499.315789474 334.263157895 499.315789474 334.263157895 536 317 c 0,27,28
 547 312 547 312 558 312.5 c 128,-1,29
 569 313 569 313 582 306 c 1,30,31
 610.077378019 239.635288319 610.077378019 239.635288319 488 206.5 c 0,32,33
 428.495376486 190.348745046 428.495376486 190.348745046 366.247688243 182.674372523 c 128,-1,34
 304 175 304 175 277 170 c 1,35,36
 283.380952381 96.619047619 283.380952381 96.619047619 317.5 62.5 c 0,37,38
 329 51 329 51 339 40 c 0,39,40
 340 39 340 39 341 39 c 128,-1,41
 342 39 342 39 343 38 c 1,42,-1
 344 38 l 1,43,44
 385.464285714 42.6071428571 385.464285714 42.6071428571 414 51 c 1,45,-1
 441 60 l 1,46,-1
 456 67 l 1,47,-1
 467 75 l 1,48,49
 481 87 481 87 493 98.5 c 128,-1,50
 505 110 505 110 527 115.5 c 128,-1,51
 549 121 549 121 569 118 c 128,-1,52
 589 115 589 115 601 102.5 c 128,-1,53
 613 90 613 90 607 66 c 1,54,55
 573.603773585 10.3396226415 573.603773585 10.3396226415 546 -10 c 0,56,57
 494 -50 494 -50 425 -58.5 c 128,-1,58
 356 -67 356 -67 288 -49 c 1,59,60
 265 -45 265 -45 245 -34 c 1,61,62
 184 -10 184 -10 138.5 35.5 c 128,-1,63
 93 81 93 81 79 144 c 1,64,-1
 76 161 l 1,65,66
 41 159.409090909 41 159.409090909 -97 150 c 1,67,68
 -142.805369128 158.724832215 -142.805369128 158.724832215 -152.5 183.5 c 0,69,70
 -162.808605341 209.84421365 -162.808605341 209.84421365 -117 230 c 1,71,72
 -76 246 -76 246 -23 253.5 c 128,-1,73
 30 261 30 261 74 268 c 1,74,75
 80 324 80 324 100 385 c 1,76,77
 97 384 97 384 74 382 c 128,-1,78
 51 380 51 380 17.5 376 c 128,-1,79
 -16 372 -16 372 -53 386 c 1,80,81
 -78 407 -78 407 -70.5 425 c 128,-1,82
 -63 443 -63 443 -33.5 454.5 c 128,-1,83
 -4 466 -4 466 30 472 c 128,-1,84
 64 478 64 478 83 482.5 c 128,-1,85
 102 487 102 487 104.5 488 c 128,-1,86
 107 489 107 489 108.5 489.5 c 128,-1,87
 110 490 110 490 112.5 491 c 128,-1,88
 115 492 115 492 121 494 c 1,89,90
 141.405660377 589.226415094 141.405660377 589.226415094 177 641 c 0,91,92
 222.21 706.76 222.21 706.76 324 752 c 0,93,94
 409.01216545 790.255474453 409.01216545 790.255474453 515 793.5 c 0,95,96
 627.056424846 796.93029872 627.056424846 796.93029872 661 755 c 0,97,98
 681 731 681 731 671.5 704 c 128,-1,99
 662 677 662 677 635 655.5 c 128,-1,100
 608 634 608 634 569 620.5 c 128,-1,101
 530 607 530 607 490 610 c 1,102,-1
 388 555 l 1,0,-1
486 381 m 1,103,104
 487 380 487 380 488 380 c 2,105,-1
 509 381 l 1,106,-1
 486 381 l 1,103,104
EndSplineSet
EndChar

StartChar: quotesinglbase
Encoding: 8218 8218 105
Width: 288
Flags: HW
LayerCount: 2
Fore
SplineSet
236 64.5 m 128,-1,1
 239 61 239 61 241 57 c 1,2,-1
 259 39 l 1,3,4
 258 27 258 27 261.5 15 c 128,-1,5
 265 3 265 3 263.5 -14.5 c 128,-1,6
 262 -32 262 -32 246 -54 c 128,-1,7
 230 -76 230 -76 209 -94 c 1,8,9
 170.003351955 -143.829050279 170.003351955 -143.829050279 116.5 -162 c 0,10,11
 57.4611260054 -182.050938338 57.4611260054 -182.050938338 13 -145 c 1,12,13
 6 -131 6 -131 6 -123.5 c 128,-1,14
 6 -116 6 -116 13 -103 c 1,15,16
 18 -90 18 -90 29.5 -73 c 128,-1,17
 41 -56 41 -56 51 -41 c 1,18,-1
 46 -37 l 1,19,-1
 44 -39 l 1,20,21
 41 -40 41 -40 41 -33 c 1,22,23
 38 -31 38 -31 31 -24 c 1,24,-1
 30 -24 l 1,25,-1
 22 -17 l 1,26,-1
 20 -12 l 1,27,28
 -7.63744427935 39.5898959881 -7.63744427935 39.5898959881 28 73 c 0,29,30
 67.048951049 109.608391608 67.048951049 109.608391608 141 105.5 c 0,31,32
 158.542372881 104.525423729 158.542372881 104.525423729 196 93 c 1,33,34
 203 86 203 86 209.5 81 c 128,-1,35
 216 76 216 76 221 72 c 1,36,-1
 225 75 l 1,37,-1
 230 72 l 1,38,0
 233 68 233 68 236 64.5 c 128,-1,1
EndSplineSet
EndChar

